<?xml version="1.0" encoding="UTF-8" standalone="no"?>
<svg width="1200px" height="137px" viewBox="0 0 1200 137" version="1.1" xmlns="http://www.w3.org/2000/svg" xmlns:xlink="http://www.w3.org/1999/xlink">
    <!-- Generator: Sketch 3.8.3 (29802) - http://www.bohemiancoding.com/sketch -->
    <title>timeline</title>
    <desc>Created with Sketch.</desc>
    <defs></defs>
    <g id="Page-1" stroke="none" stroke-width="1" fill="none" fill-rule="evenodd">
        <g id="timeline">
            <rect id="Rectangle-1" fill="#D53880" x="31.630972" y="61.2833608" width="203" height="9.4892916"></rect>
            <rect id="Rectangle-1-Copy" fill="#D53880" x="266" y="62" width="203" height="9.4892916"></rect>
            <rect id="Rectangle-1-Copy-2" fill="#D53880" x="497" y="62" width="203" height="9.4892916"></rect>
            <rect id="Rectangle-1-Copy-3" fill="#005EA5" x="730" y="62" width="203" height="9.4892916"></rect>
            <rect id="Rectangle-1-Copy-4" fill="#005EA5" x="961" y="62" width="208" height="9.4892916"></rect>
            <path d="M18.9785832,85.9571664 C29.4601653,85.9571664 37.9571664,77.4601653 37.9571664,66.9785832 C37.9571664,56.4970011 29.4601653,48 18.9785832,48 C8.49700112,48 0,56.4970011 0,66.9785832 C0,77.4601653 8.49700112,85.9571664 18.9785832,85.9571664 Z M18.9785832,76.4678748 C24.2193742,76.4678748 28.4678748,72.2193742 28.4678748,66.9785832 C28.4678748,61.7377922 24.2193742,57.4892916 18.9785832,57.4892916 C13.7377922,57.4892916 9.4892916,61.7377922 9.4892916,66.9785832 C9.4892916,72.2193742 13.7377922,76.4678748 18.9785832,76.4678748 Z" id="Combined-Shape" fill="#D53880"></path>
            <path d="M251.378583,85.9571664 C261.860165,85.9571664 270.357166,77.4601653 270.357166,66.9785832 C270.357166,56.4970011 261.860165,48 251.378583,48 C240.897001,48 232.4,56.4970011 232.4,66.9785832 C232.4,77.4601653 240.897001,85.9571664 251.378583,85.9571664 Z M251.378583,76.4678748 C256.619374,76.4678748 260.867875,72.2193742 260.867875,66.9785832 C260.867875,61.7377922 256.619374,57.4892916 251.378583,57.4892916 C246.137792,57.4892916 241.889292,61.7377922 241.889292,66.9785832 C241.889292,72.2193742 246.137792,76.4678748 251.378583,76.4678748 Z" id="Combined-Shape-Copy" fill="#D53880"></path>
            <path d="M483.778583,85.9571664 C494.260165,85.9571664 502.757166,77.4601653 502.757166,66.9785832 C502.757166,56.4970011 494.260165,48 483.778583,48 C473.297001,48 464.8,56.4970011 464.8,66.9785832 C464.8,77.4601653 473.297001,85.9571664 483.778583,85.9571664 Z M483.778583,76.4678748 C489.019374,76.4678748 493.267875,72.2193742 493.267875,66.9785832 C493.267875,61.7377922 489.019374,57.4892916 483.778583,57.4892916 C478.537792,57.4892916 474.289292,61.7377922 474.289292,66.9785832 C474.289292,72.2193742 478.537792,76.4678748 483.778583,76.4678748 Z" id="Combined-Shape-Copy-2" fill="#D53880"></path>
            <path d="M716.178583,85.9571664 C726.660165,85.9571664 735.157166,77.4601653 735.157166,66.9785832 C735.157166,56.4970011 726.660165,48 716.178583,48 C705.697001,48 697.2,56.4970011 697.2,66.9785832 C697.2,77.4601653 705.697001,85.9571664 716.178583,85.9571664 Z M716.178583,76.4678748 C721.419374,76.4678748 725.667875,72.2193742 725.667875,66.9785832 C725.667875,61.7377922 721.419374,57.4892916 716.178583,57.4892916 C710.937792,57.4892916 706.689292,61.7377922 706.689292,66.9785832 C706.689292,72.2193742 710.937792,76.4678748 716.178583,76.4678748 Z" id="Combined-Shape-Copy-3" fill="#D53880"></path>
            <path d="M948.578583,85.9571664 C959.060165,85.9571664 967.557166,77.4601653 967.557166,66.9785832 C967.557166,56.4970011 959.060165,48 948.578583,48 C938.097001,48 929.6,56.4970011 929.6,66.9785832 C929.6,77.4601653 938.097001,85.9571664 948.578583,85.9571664 Z M948.578583,76.4678748 C953.819374,76.4678748 958.067875,72.2193742 958.067875,66.9785832 C958.067875,61.7377922 953.819374,57.4892916 948.578583,57.4892916 C943.337792,57.4892916 939.089292,61.7377922 939.089292,66.9785832 C939.089292,72.2193742 943.337792,76.4678748 948.578583,76.4678748 Z" id="Combined-Shape-Copy-4" fill="#2E358B"></path>
            <path d="M1180.97858,85.9571664 C1191.46017,85.9571664 1199.95717,77.4601653 1199.95717,66.9785832 C1199.95717,56.4970011 1191.46017,48 1180.97858,48 C1170.497,48 1162,56.4970011 1162,66.9785832 C1162,77.4601653 1170.497,85.9571664 1180.97858,85.9571664 Z M1180.97858,76.4678748 C1186.21937,76.4678748 1190.46787,72.2193742 1190.46787,66.9785832 C1190.46787,61.7377922 1186.21937,57.4892916 1180.97858,57.4892916 C1175.73779,57.4892916 1171.48929,61.7377922 1171.48929,66.9785832 C1171.48929,72.2193742 1175.73779,76.4678748 1180.97858,76.4678748 Z" id="Combined-Shape-Copy-5" fill="#2E358B"></path>
            <text id="In-development" font-family="GDSTransport-Bold, GDS Transport" font-size="36" font-weight="bold" fill="#D53880">
                <tspan x="588.751953" y="41">In development</tspan>
            </text>
            <text id="Open" font-family="GDSTransport-Bold, GDS Transport" font-size="19" font-weight="bold" fill="#005EA5">
                <tspan x="6.29272461" y="104">Open</tspan>
            </text>
            <text id="Scoping" font-family="GDSTransport-Bold, GDS Transport" font-size="19" font-weight="bold" fill="#005EA5">
                <tspan x="216.29248" y="103">Scoping</tspan>
            </text>
            <text id="Resourcing" font-family="GDSTransport-Bold, GDS Transport" font-size="19" font-weight="bold" fill="#005EA5">
                <tspan x="435.474854" y="103">Resourcing</tspan>
            </text>
            <text id="Awaiting-Decision" font-family="GDSTransport-Bold, GDS Transport" font-size="19" font-weight="bold" fill="#005EA5">
                <tspan x="872.192871" y="104">Awaiting Decision</tspan>
            </text>
            <text id="Closed" font-family="GDSTransport-Bold, GDS Transport" font-size="19" font-weight="bold" fill="#005EA5">
                <tspan x="1132.33936" y="103">Closed</tspan>
            </text>
        </g>
    </g>
</svg>