<?xml version="1.0" encoding="UTF-8" standalone="no"?>
<svg width="1680px" height="137px" viewBox="0 0 1680 137" version="1.1" xmlns="http://www.w3.org/2000/svg" xmlns:xlink="http://www.w3.org/1999/xlink">
    <!-- Generator: Sketch 3.8.3 (29802) - http://www.bohemiancoding.com/sketch -->
    <title>timeline</title>
    <desc>Created with Sketch.</desc>
    <defs></defs>
    <g id="Page-1" stroke="none" stroke-width="1" fill="none" fill-rule="evenodd">
        <g id="timeline">
            <rect id="Rectangle-1" fill="#D53880" x="34" y="61" width="298" height="9.4892916"></rect>
            <rect id="Rectangle-1-Copy" fill="#D53880" x="359" y="61" width="305" height="9.4892916"></rect>
            <rect id="Rectangle-1-Copy-2" fill="#D53880" x="691" y="61" width="298" height="9.4892916"></rect>
            <rect id="Rectangle-1-Copy-3" fill="#005EA5" x="1015" y="61" width="305" height="9.4892916"></rect>
            <rect id="Rectangle-1-Copy-4" fill="#005EA5" x="1345" y="61" width="298" height="9.4892916"></rect>
            <path d="M18.9785832,84.9571664 C29.4601653,84.9571664 37.9571664,76.4601653 37.9571664,65.9785832 C37.9571664,55.4970011 29.4601653,47 18.9785832,47 C8.49700112,47 0,55.4970011 0,65.9785832 C0,76.4601653 8.49700112,84.9571664 18.9785832,84.9571664 Z M18.9785832,75.4678748 C24.2193742,75.4678748 28.4678748,71.2193742 28.4678748,65.9785832 C28.4678748,60.7377922 24.2193742,56.4892916 18.9785832,56.4892916 C13.7377922,56.4892916 9.4892916,60.7377922 9.4892916,65.9785832 C9.4892916,71.2193742 13.7377922,75.4678748 18.9785832,75.4678748 Z" id="Combined-Shape" fill="#D53880"></path>
            <path d="M346.978583,84.9571664 C357.460165,84.9571664 365.957166,76.4601653 365.957166,65.9785832 C365.957166,55.4970011 357.460165,47 346.978583,47 C336.497001,47 328,55.4970011 328,65.9785832 C328,76.4601653 336.497001,84.9571664 346.978583,84.9571664 Z M346.978583,75.4678748 C352.219374,75.4678748 356.467875,71.2193742 356.467875,65.9785832 C356.467875,60.7377922 352.219374,56.4892916 346.978583,56.4892916 C341.737792,56.4892916 337.489292,60.7377922 337.489292,65.9785832 C337.489292,71.2193742 341.737792,75.4678748 346.978583,75.4678748 Z" id="Combined-Shape-Copy" fill="#D53880"></path>
            <path d="M675.978583,84.9571664 C686.460165,84.9571664 694.957166,76.4601653 694.957166,65.9785832 C694.957166,55.4970011 686.460165,47 675.978583,47 C665.497001,47 657,55.4970011 657,65.9785832 C657,76.4601653 665.497001,84.9571664 675.978583,84.9571664 Z M675.978583,75.4678748 C681.219374,75.4678748 685.467875,71.2193742 685.467875,65.9785832 C685.467875,60.7377922 681.219374,56.4892916 675.978583,56.4892916 C670.737792,56.4892916 666.489292,60.7377922 666.489292,65.9785832 C666.489292,71.2193742 670.737792,75.4678748 675.978583,75.4678748 Z" id="Combined-Shape-Copy-2" fill="#D53880"></path>
            <path d="M1003.97858,84.9571664 C1014.46017,84.9571664 1022.95717,76.4601653 1022.95717,65.9785832 C1022.95717,55.4970011 1014.46017,47 1003.97858,47 C993.497001,47 985,55.4970011 985,65.9785832 C985,76.4601653 993.497001,84.9571664 1003.97858,84.9571664 Z M1003.97858,75.4678748 C1009.21937,75.4678748 1013.46787,71.2193742 1013.46787,65.9785832 C1013.46787,60.7377922 1009.21937,56.4892916 1003.97858,56.4892916 C998.737792,56.4892916 994.489292,60.7377922 994.489292,65.9785832 C994.489292,71.2193742 998.737792,75.4678748 1003.97858,75.4678748 Z" id="Combined-Shape-Copy-3" fill="#D53880"></path>
            <path d="M1332.97858,84.9571664 C1343.46017,84.9571664 1351.95717,76.4601653 1351.95717,65.9785832 C1351.95717,55.4970011 1343.46017,47 1332.97858,47 C1322.497,47 1314,55.4970011 1314,65.9785832 C1314,76.4601653 1322.497,84.9571664 1332.97858,84.9571664 Z M1332.97858,75.4678748 C1338.21937,75.4678748 1342.46787,71.2193742 1342.46787,65.9785832 C1342.46787,60.7377922 1338.21937,56.4892916 1332.97858,56.4892916 C1327.73779,56.4892916 1323.48929,60.7377922 1323.48929,65.9785832 C1323.48929,71.2193742 1327.73779,75.4678748 1332.97858,75.4678748 Z" id="Combined-Shape-Copy-4" fill="#2E358B"></path>
            <path d="M1660.97858,84.9571664 C1671.46017,84.9571664 1679.95717,76.4601653 1679.95717,65.9785832 C1679.95717,55.4970011 1671.46017,47 1660.97858,47 C1650.497,47 1642,55.4970011 1642,65.9785832 C1642,76.4601653 1650.497,84.9571664 1660.97858,84.9571664 Z M1660.97858,75.4678748 C1666.21937,75.4678748 1670.46787,71.2193742 1670.46787,65.9785832 C1670.46787,60.7377922 1666.21937,56.4892916 1660.97858,56.4892916 C1655.73779,56.4892916 1651.48929,60.7377922 1651.48929,65.9785832 C1651.48929,71.2193742 1655.73779,75.4678748 1660.97858,75.4678748 Z" id="Combined-Shape-Copy-5" fill="#2E358B"></path>
            <path d="M906,17.1914062 L909.964844,17.1914062 L909.964844,36.796875 L906,36.796875 L906,17.1914062 Z M913.642578,22.1542969 L917.416016,22.1542969 L917.416016,23.4121094 C917.616537,23.2115875 917.842121,23.0179046 918.092773,22.8310547 C918.343426,22.6442048 918.619139,22.4801439 918.919922,22.3388672 C919.220705,22.1975904 919.555662,22.0836593 919.924805,21.9970703 C920.293947,21.9104813 920.701821,21.8671875 921.148438,21.8671875 C921.94141,21.8671875 922.652341,21.997069 923.28125,22.2568359 C923.910159,22.5166029 924.441079,22.8743467 924.874023,23.3300781 C925.306968,23.7858096 925.637369,24.3190074 925.865234,24.9296875 C926.0931,25.5403676 926.207031,26.2011683 926.207031,26.9121094 L926.207031,36.796875 L922.433594,36.796875 L922.433594,28.2792969 C922.433594,27.759763 922.37435,27.3199888 922.255859,26.9599609 C922.137369,26.5999331 921.975587,26.3082693 921.770508,26.0849609 C921.565429,25.8616525 921.323895,25.6975917 921.045898,25.5927734 C920.767902,25.4879552 920.464845,25.4355469 920.136719,25.4355469 C919.753904,25.4355469 919.396161,25.5039056 919.063477,25.640625 C918.730793,25.7773444 918.441407,25.9846991 918.195312,26.2626953 C917.949218,26.5406915 917.757813,26.8893208 917.621094,27.3085938 C917.484374,27.7278667 917.416016,28.2200493 917.416016,28.7851562 L917.416016,36.796875 L913.642578,36.796875 L913.642578,22.1542969 Z M943.802734,36.796875 L943.802734,35.5390625 C943.602213,35.7578136 943.381186,35.960611 943.139648,36.1474609 C942.898111,36.3343108 942.629233,36.4960931 942.333008,36.6328125 C942.036782,36.7695319 941.713218,36.8766272 941.362305,36.9541016 C941.011391,37.0315759 940.621747,37.0703125 940.193359,37.0703125 C939.227209,37.0703125 938.343103,36.8789082 937.541016,36.4960938 C936.738928,36.1132793 936.050784,35.5846388 935.476562,34.9101562 C934.902341,34.2356737 934.458009,33.4335984 934.143555,32.5039062 C933.8291,31.5742141 933.671875,30.5670627 933.671875,29.4824219 C933.671875,28.397781 933.826821,27.3906296 934.136719,26.4609375 C934.446616,25.5312454 934.881833,24.7268914 935.442383,24.0478516 C936.002932,23.3688117 936.679684,22.8356139 937.472656,22.4482422 C938.265629,22.0608705 939.145177,21.8671875 940.111328,21.8671875 C940.968103,21.8671875 941.694984,22.015298 942.291992,22.3115234 C942.889,22.6077489 943.392576,22.9746072 943.802734,23.4121094 L943.802734,17.1914062 L947.576172,17.1914062 L947.576172,36.796875 L943.802734,36.796875 Z M943.912109,28.1152344 C943.912109,27.7233053 943.841472,27.3587256 943.700195,27.0214844 C943.558919,26.6842431 943.356121,26.3925794 943.091797,26.1464844 C942.827473,25.9003894 942.510744,25.7089851 942.141602,25.5722656 C941.772459,25.4355462 941.355471,25.3671875 940.890625,25.3671875 C940.352862,25.3671875 939.87663,25.4674469 939.461914,25.6679688 C939.047198,25.8684906 938.698569,26.1487612 938.416016,26.5087891 C938.133462,26.8688169 937.919272,27.2949194 937.773438,27.7871094 C937.627603,28.2792993 937.554688,28.8170544 937.554688,29.4003906 L937.554688,29.578125 C937.554688,30.1614613 937.627603,30.6969377 937.773438,31.1845703 C937.919272,31.672203 938.133462,32.0937482 938.416016,32.4492188 C938.698569,32.8046893 939.047198,33.0804027 939.461914,33.2763672 C939.87663,33.4723317 940.352862,33.5703125 940.890625,33.5703125 C941.355471,33.5703125 941.772459,33.5019538 942.141602,33.3652344 C942.510744,33.2285149 942.827473,33.0371106 943.091797,32.7910156 C943.356121,32.5449206 943.558919,32.2555355 943.700195,31.9228516 C943.841472,31.5901676 943.912109,31.2278665 943.912109,30.8359375 L943.912109,28.1152344 Z M953.988281,30.78125 C954.052084,31.2187522 954.19108,31.6197898 954.405273,31.984375 C954.619467,32.3489602 954.890623,32.6611315 955.21875,32.9208984 C955.546877,33.1806654 955.925128,33.3834628 956.353516,33.5292969 C956.781903,33.6751309 957.237628,33.7480469 957.720703,33.7480469 C958.276695,33.7480469 958.878252,33.6409516 959.525391,33.4267578 C960.172529,33.212564 960.764971,32.9003927 961.302734,32.4902344 L963.121094,35.1425781 C962.437497,35.7167997 961.598963,36.1816388 960.605469,36.5371094 C959.611974,36.8925799 958.554693,37.0703125 957.433594,37.0703125 C956.42187,37.0703125 955.469406,36.8971371 954.576172,36.5507812 C953.682938,36.2044254 952.901371,35.7031283 952.231445,35.046875 C951.56152,34.3906217 951.03288,33.5931037 950.645508,32.6542969 C950.258136,31.7154901 950.064453,30.658209 950.064453,29.4824219 C950.064453,28.4068957 950.23535,27.4043015 950.577148,26.4746094 C950.918947,25.5449172 951.397458,24.7382847 952.012695,24.0546875 C952.627933,23.3710903 953.363928,22.8356139 954.220703,22.4482422 C955.077478,22.0608705 956.025385,21.8671875 957.064453,21.8671875 C958.030604,21.8671875 958.928381,22.0426415 959.757812,22.3935547 C960.587244,22.7444679 961.307289,23.2366505 961.917969,23.8701172 C962.528649,24.5035839 963.00716,25.2623654 963.353516,26.1464844 C963.699872,27.0306034 963.873047,28.005854 963.873047,29.0722656 L963.873047,30.78125 L953.988281,30.78125 Z M957.050781,25.1484375 C956.239579,25.1484375 955.553714,25.4195936 954.993164,25.9619141 C954.432614,26.5042345 954.106771,27.1581993 954.015625,27.9238281 L959.921875,27.9238281 C959.903646,27.1490847 959.621096,26.4928412 959.074219,25.9550781 C958.527341,25.417315 957.852869,25.1484375 957.050781,25.1484375 L957.050781,25.1484375 Z M969.382812,36.796875 L964.898438,22.1542969 L969.109375,22.1542969 L971.734375,32.2304688 L974.427734,22.1542969 L978.570312,22.1542969 L974.113281,36.796875 L969.382812,36.796875 Z M983.601562,30.78125 C983.665365,31.2187522 983.804361,31.6197898 984.018555,31.984375 C984.232748,32.3489602 984.503905,32.6611315 984.832031,32.9208984 C985.160158,33.1806654 985.538409,33.3834628 985.966797,33.5292969 C986.395184,33.6751309 986.850909,33.7480469 987.333984,33.7480469 C987.889977,33.7480469 988.491533,33.6409516 989.138672,33.4267578 C989.785811,33.212564 990.378253,32.9003927 990.916016,32.4902344 L992.734375,35.1425781 C992.050778,35.7167997 991.212245,36.1816388 990.21875,36.5371094 C989.225255,36.8925799 988.167974,37.0703125 987.046875,37.0703125 C986.035151,37.0703125 985.082687,36.8971371 984.189453,36.5507812 C983.296219,36.2044254 982.514652,35.7031283 981.844727,35.046875 C981.174801,34.3906217 980.646161,33.5931037 980.258789,32.6542969 C979.871417,31.7154901 979.677734,30.658209 979.677734,29.4824219 C979.677734,28.4068957 979.848631,27.4043015 980.19043,26.4746094 C980.532228,25.5449172 981.010739,24.7382847 981.625977,24.0546875 C982.241214,23.3710903 982.977209,22.8356139 983.833984,22.4482422 C984.690759,22.0608705 985.638667,21.8671875 986.677734,21.8671875 C987.643885,21.8671875 988.541663,22.0426415 989.371094,22.3935547 C990.200525,22.7444679 990.92057,23.2366505 991.53125,23.8701172 C992.14193,24.5035839 992.620441,25.2623654 992.966797,26.1464844 C993.313153,27.0306034 993.486328,28.005854 993.486328,29.0722656 L993.486328,30.78125 L983.601562,30.78125 Z M986.664062,25.1484375 C985.852861,25.1484375 985.166995,25.4195936 984.606445,25.9619141 C984.045896,26.5042345 983.720053,27.1581993 983.628906,27.9238281 L989.535156,27.9238281 C989.516927,27.1490847 989.234378,26.4928412 988.6875,25.9550781 C988.140622,25.417315 987.46615,25.1484375 986.664062,25.1484375 L986.664062,25.1484375 Z M995.837891,17.1914062 L999.611328,17.1914062 L999.611328,32.8183594 C999.611328,33.1282568 999.700194,33.3652336 999.87793,33.5292969 C1000.05566,33.6933602 1000.34049,33.7753906 1000.73242,33.7753906 C1000.91471,33.7753906 1001.07194,33.7639975 1001.2041,33.7412109 C1001.33626,33.7184244 1001.50716,33.684245 1001.7168,33.6386719 L1002.01758,36.8515625 C1001.76237,36.888021 1001.48893,36.924479 1001.19727,36.9609375 C1000.95117,36.9882814 1000.66634,37.0133462 1000.34277,37.0361328 C1000.0192,37.0589194 999.684247,37.0703125 999.337891,37.0703125 C998.800128,37.0703125 998.317059,37.0019538 997.888672,36.8652344 C997.460284,36.7285149 997.093426,36.5257175 996.788086,36.2568359 C996.482746,35.9879544 996.248048,35.6529968 996.083984,35.2519531 C995.919921,34.8509095 995.837891,34.3860704 995.837891,33.8574219 L995.837891,17.1914062 Z M1010.53516,21.8671875 C1011.6198,21.8671875 1012.60416,22.0608705 1013.48828,22.4482422 C1014.3724,22.8356139 1015.1289,23.3710903 1015.75781,24.0546875 C1016.38672,24.7382847 1016.87207,25.5449172 1017.21387,26.4746094 C1017.55567,27.4043015 1017.72656,28.4068957 1017.72656,29.4824219 C1017.72656,30.5670627 1017.55339,31.5719355 1017.20703,32.4970703 C1016.86068,33.4222051 1016.37305,34.2220018 1015.74414,34.8964844 C1015.11523,35.5709669 1014.35873,36.1018861 1013.47461,36.4892578 C1012.59049,36.8766295 1011.61068,37.0703125 1010.53516,37.0703125 C1009.45052,37.0703125 1008.46615,36.8766295 1007.58203,36.4892578 C1006.69791,36.1018861 1005.94141,35.5709669 1005.3125,34.8964844 C1004.68359,34.2220018 1004.19597,33.4222051 1003.84961,32.4970703 C1003.50325,31.5719355 1003.33008,30.5670627 1003.33008,29.4824219 C1003.33008,28.4068957 1003.50097,27.4043015 1003.84277,26.4746094 C1004.18457,25.5449172 1004.66992,24.7382847 1005.29883,24.0546875 C1005.92774,23.3710903 1006.68652,22.8356139 1007.5752,22.4482422 C1008.46387,22.0608705 1009.45052,21.8671875 1010.53516,21.8671875 L1010.53516,21.8671875 Z M1010.53516,33.5703125 C1011.07292,33.5703125 1011.54915,33.4700531 1011.96387,33.2695312 C1012.37858,33.0690094 1012.72721,32.7910174 1013.00977,32.4355469 C1013.29232,32.0800763 1013.50651,31.6539738 1013.65234,31.1572266 C1013.79818,30.6604793 1013.87109,30.1158884 1013.87109,29.5234375 L1013.87109,29.4277344 C1013.87109,28.8352835 1013.79818,28.2906926 1013.65234,27.7939453 C1013.50651,27.297198 1013.29232,26.8688169 1013.00977,26.5087891 C1012.72721,26.1487612 1012.37858,25.8684906 1011.96387,25.6679688 C1011.54915,25.4674469 1011.07292,25.3671875 1010.53516,25.3671875 C1009.99739,25.3671875 1009.52116,25.4674469 1009.10645,25.6679688 C1008.69173,25.8684906 1008.3431,26.1487612 1008.06055,26.5087891 C1007.77799,26.8688169 1007.5638,27.297198 1007.41797,27.7939453 C1007.27213,28.2906926 1007.19922,28.8352835 1007.19922,29.4277344 L1007.19922,29.5234375 C1007.19922,30.1158884 1007.27213,30.6604793 1007.41797,31.1572266 C1007.5638,31.6539738 1007.77799,32.0800763 1008.06055,32.4355469 C1008.3431,32.7910174 1008.69173,33.0690094 1009.10645,33.2695312 C1009.52116,33.4700531 1009.99739,33.5703125 1010.53516,33.5703125 L1010.53516,33.5703125 Z M1024.00195,41.4179688 L1020.22852,41.4179688 L1020.22852,22.1542969 L1024.00195,22.1542969 L1024.00195,23.4121094 C1024.41211,22.9837218 1024.91797,22.6191421 1025.51953,22.3183594 C1026.1211,22.0175766 1026.85026,21.8671875 1027.70703,21.8671875 C1028.67318,21.8671875 1029.55045,22.0608705 1030.33887,22.4482422 C1031.12728,22.8356139 1031.80403,23.3688117 1032.36914,24.0478516 C1032.93425,24.7268914 1033.37174,25.5312454 1033.68164,26.4609375 C1033.99154,27.3906296 1034.14648,28.397781 1034.14648,29.4824219 C1034.14648,30.5670627 1033.98698,31.5742141 1033.66797,32.5039062 C1033.34896,33.4335984 1032.90235,34.2356737 1032.32812,34.9101562 C1031.7539,35.5846388 1031.06576,36.1132793 1030.26367,36.4960938 C1029.46158,36.8789082 1028.57748,37.0703125 1027.61133,37.0703125 C1027.18294,37.0703125 1026.7933,37.0315759 1026.44238,36.9541016 C1026.09147,36.8766272 1025.77018,36.7695319 1025.47852,36.6328125 C1025.18685,36.4960931 1024.91797,36.3343108 1024.67188,36.1474609 C1024.42578,35.960611 1024.20247,35.7578136 1024.00195,35.5390625 L1024.00195,41.4179688 Z M1023.89258,30.8359375 C1023.89258,31.2278665 1023.96322,31.5901676 1024.10449,31.9228516 C1024.24577,32.2555355 1024.44857,32.5449206 1024.71289,32.7910156 C1024.97721,33.0371106 1025.29394,33.2285149 1025.66309,33.3652344 C1026.03223,33.5019538 1026.44922,33.5703125 1026.91406,33.5703125 C1027.45183,33.5703125 1027.92806,33.4723317 1028.34277,33.2763672 C1028.75749,33.0804027 1029.10612,32.8046893 1029.38867,32.4492188 C1029.67123,32.0937482 1029.88542,31.672203 1030.03125,31.1845703 C1030.17708,30.6969377 1030.25,30.1614613 1030.25,29.578125 L1030.25,29.4003906 C1030.25,28.8170544 1030.17708,28.2792993 1030.03125,27.7871094 C1029.88542,27.2949194 1029.67123,26.8688169 1029.38867,26.5087891 C1029.10612,26.1487612 1028.75749,25.8684906 1028.34277,25.6679688 C1027.92806,25.4674469 1027.45183,25.3671875 1026.91406,25.3671875 C1026.44922,25.3671875 1026.03223,25.4355462 1025.66309,25.5722656 C1025.29394,25.7089851 1024.97721,25.9003894 1024.71289,26.1464844 C1024.44857,26.3925794 1024.24577,26.6842431 1024.10449,27.0214844 C1023.96322,27.3587256 1023.89258,27.7233053 1023.89258,28.1152344 L1023.89258,30.8359375 Z M1049.00781,36.796875 L1045.2207,36.796875 L1045.2207,28.2792969 C1045.2207,27.759763 1045.16374,27.3199888 1045.0498,26.9599609 C1044.93587,26.5999331 1044.77865,26.3082693 1044.57812,26.0849609 C1044.3776,25.8616525 1044.14518,25.7021489 1043.88086,25.6064453 C1043.61654,25.5107417 1043.32943,25.4628906 1043.01953,25.4628906 C1042.65495,25.4628906 1042.31543,25.5266921 1042.00098,25.6542969 C1041.68652,25.7819017 1041.41309,25.9824205 1041.18066,26.2558594 C1040.94824,26.5292982 1040.76595,26.8779276 1040.63379,27.3017578 C1040.50163,27.7255881 1040.43555,28.2291637 1040.43555,28.8125 L1040.43555,36.796875 L1036.66211,36.796875 L1036.66211,22.1542969 L1040.43555,22.1542969 L1040.43555,23.4394531 C1040.91862,22.90169 1041.48144,22.5052096 1042.12402,22.25 C1042.7666,21.9947904 1043.45703,21.8671875 1044.19531,21.8671875 C1044.95183,21.8671875 1045.66048,22.0221339 1046.32129,22.3320312 C1046.9821,22.6419286 1047.53125,23.1523402 1047.96875,23.8632812 C1048.22396,23.4986961 1048.5179,23.1888034 1048.85059,22.9335938 C1049.18327,22.6783841 1049.54101,22.4733081 1049.92383,22.3183594 C1050.30664,22.1634107 1050.7054,22.0494795 1051.12012,21.9765625 C1051.53483,21.9036455 1051.96094,21.8671875 1052.39844,21.8671875 C1053.21875,21.8671875 1053.95019,22.0016263 1054.59277,22.2705078 C1055.23535,22.5393894 1055.77995,22.9016904 1056.22656,23.3574219 C1056.67318,23.8131533 1057.01497,24.3372366 1057.25195,24.9296875 C1057.48893,25.5221384 1057.60742,26.1464811 1057.60742,26.8027344 L1057.60742,36.796875 L1053.79297,36.796875 L1053.79297,28.2792969 C1053.79297,27.759763 1053.736,27.3199888 1053.62207,26.9599609 C1053.50814,26.5999331 1053.35091,26.3082693 1053.15039,26.0849609 C1052.94987,25.8616525 1052.71517,25.7021489 1052.44629,25.6064453 C1052.17741,25.5107417 1051.88802,25.4628906 1051.57812,25.4628906 C1051.21354,25.4628906 1050.8763,25.5266921 1050.56641,25.6542969 C1050.25651,25.7819017 1049.98535,25.9824205 1049.75293,26.2558594 C1049.52051,26.5292982 1049.33822,26.8779276 1049.20605,27.3017578 C1049.07389,27.7255881 1049.00781,28.2291637 1049.00781,28.8125 L1049.00781,36.796875 Z M1063.89648,30.78125 C1063.96029,31.2187522 1064.09928,31.6197898 1064.31348,31.984375 C1064.52767,32.3489602 1064.79883,32.6611315 1065.12695,32.9208984 C1065.45508,33.1806654 1065.83333,33.3834628 1066.26172,33.5292969 C1066.69011,33.6751309 1067.14583,33.7480469 1067.62891,33.7480469 C1068.1849,33.7480469 1068.78646,33.6409516 1069.43359,33.4267578 C1070.08073,33.212564 1070.67317,32.9003927 1071.21094,32.4902344 L1073.0293,35.1425781 C1072.3457,35.7167997 1071.50717,36.1816388 1070.51367,36.5371094 C1069.52018,36.8925799 1068.4629,37.0703125 1067.3418,37.0703125 C1066.33007,37.0703125 1065.37761,36.8971371 1064.48438,36.5507812 C1063.59114,36.2044254 1062.80957,35.7031283 1062.13965,35.046875 C1061.46972,34.3906217 1060.94108,33.5931037 1060.55371,32.6542969 C1060.16634,31.7154901 1059.97266,30.658209 1059.97266,29.4824219 C1059.97266,28.4068957 1060.14355,27.4043015 1060.48535,26.4746094 C1060.82715,25.5449172 1061.30566,24.7382847 1061.9209,24.0546875 C1062.53614,23.3710903 1063.27213,22.8356139 1064.12891,22.4482422 C1064.98568,22.0608705 1065.93359,21.8671875 1066.97266,21.8671875 C1067.93881,21.8671875 1068.83658,22.0426415 1069.66602,22.3935547 C1070.49545,22.7444679 1071.21549,23.2366505 1071.82617,23.8701172 C1072.43685,24.5035839 1072.91536,25.2623654 1073.26172,26.1464844 C1073.60807,27.0306034 1073.78125,28.005854 1073.78125,29.0722656 L1073.78125,30.78125 L1063.89648,30.78125 Z M1066.95898,25.1484375 C1066.14778,25.1484375 1065.46192,25.4195936 1064.90137,25.9619141 C1064.34082,26.5042345 1064.01497,27.1581993 1063.92383,27.9238281 L1069.83008,27.9238281 C1069.81185,27.1490847 1069.5293,26.4928412 1068.98242,25.9550781 C1068.43554,25.417315 1067.76107,25.1484375 1066.95898,25.1484375 L1066.95898,25.1484375 Z M1076.1875,22.1542969 L1079.96094,22.1542969 L1079.96094,23.4121094 C1080.16146,23.2115875 1080.38704,23.0179046 1080.6377,22.8310547 C1080.88835,22.6442048 1081.16406,22.4801439 1081.46484,22.3388672 C1081.76563,22.1975904 1082.10058,22.0836593 1082.46973,21.9970703 C1082.83887,21.9104813 1083.24674,21.8671875 1083.69336,21.8671875 C1084.48633,21.8671875 1085.19726,21.997069 1085.82617,22.2568359 C1086.45508,22.5166029 1086.986,22.8743467 1087.41895,23.3300781 C1087.85189,23.7858096 1088.18229,24.3190074 1088.41016,24.9296875 C1088.63802,25.5403676 1088.75195,26.2011683 1088.75195,26.9121094 L1088.75195,36.796875 L1084.97852,36.796875 L1084.97852,28.2792969 C1084.97852,27.759763 1084.91927,27.3199888 1084.80078,26.9599609 C1084.68229,26.5999331 1084.52051,26.3082693 1084.31543,26.0849609 C1084.11035,25.8616525 1083.86882,25.6975917 1083.59082,25.5927734 C1083.31282,25.4879552 1083.00977,25.4355469 1082.68164,25.4355469 C1082.29883,25.4355469 1081.94108,25.5039056 1081.6084,25.640625 C1081.27571,25.7773444 1080.98633,25.9846991 1080.74023,26.2626953 C1080.49414,26.5406915 1080.30274,26.8893208 1080.16602,27.3085938 C1080.0293,27.7278667 1079.96094,28.2200493 1079.96094,28.7851562 L1079.96094,36.796875 L1076.1875,36.796875 L1076.1875,22.1542969 Z M1097.29688,32.4355469 C1097.29688,32.6087248 1097.31966,32.7727857 1097.36523,32.9277344 C1097.41081,33.0826831 1097.49056,33.2171218 1097.60449,33.3310547 C1097.71843,33.4449875 1097.88021,33.5338538 1098.08984,33.5976562 C1098.29948,33.6614587 1098.56836,33.6933594 1098.89648,33.6933594 C1099.0332,33.6933594 1099.18815,33.6865235 1099.36133,33.6728516 C1099.53451,33.6591796 1099.70768,33.6432293 1099.88086,33.625 C1100.05404,33.6067707 1100.21582,33.5839845 1100.36621,33.5566406 C1100.5166,33.5292967 1100.64193,33.5065105 1100.74219,33.4882812 L1101.08398,36.8242188 C1100.72851,36.8697919 1100.35938,36.9108071 1099.97656,36.9472656 C1099.64844,36.9837241 1099.28386,37.0133462 1098.88281,37.0361328 C1098.48177,37.0589194 1098.07617,37.0703125 1097.66602,37.0703125 C1096.36262,37.0703125 1095.34636,36.7740915 1094.61719,36.1816406 C1093.88802,35.5891897 1093.52344,34.6458398 1093.52344,33.3515625 L1093.52344,25.4355469 L1090.88477,25.4355469 L1090.88477,22.1542969 L1093.52344,22.1542969 L1093.52344,18.0117188 L1097.29688,17 L1097.29688,22.1542969 L1101.13867,22.1542969 L1101.13867,25.4355469 L1097.29688,25.4355469 L1097.29688,32.4355469 Z" id="In-development" fill="#D53880"></path>
            <path d="M13.3457031,92 C14.3352914,92 15.2228151,92.177814 16.0083008,92.5334473 C16.7937865,92.8890806 17.4602023,93.37459 18.0075684,93.9899902 C18.5549344,94.6053904 18.9724107,95.329016 19.2600098,96.1608887 C19.5476089,96.9927613 19.6914062,97.8849236 19.6914062,98.8374023 C19.6914062,99.796066 19.5476089,100.689775 19.2600098,101.518555 C18.9724107,102.347335 18.5549344,103.07096 18.0075684,103.689453 C17.4602023,104.307946 16.7937865,104.793455 16.0083008,105.145996 C15.2228151,105.498537 14.3352914,105.674805 13.3457031,105.674805 C12.3499299,105.674805 11.46086,105.498537 10.6784668,105.145996 C9.89607356,104.793455 9.23120391,104.307946 8.68383789,103.689453 C8.13647187,103.07096 7.71899558,102.347335 7.43139648,101.518555 C7.14379739,100.689775 7,99.796066 7,98.8374023 C7,97.8849236 7.14379739,96.9927613 7.43139648,96.1608887 C7.71899558,95.329016 8.13647187,94.6053904 8.68383789,93.9899902 C9.23120391,93.37459 9.89607356,92.8890806 10.6784668,92.5334473 C11.46086,92.177814 12.3499299,92 13.3457031,92 L13.3457031,92 Z M13.3457031,103.244141 C13.9270862,103.244141 14.4388813,103.13436 14.8811035,102.914795 C15.3233258,102.69523 15.695962,102.390627 15.9990234,102.000977 C16.3020848,101.611326 16.5309237,101.150556 16.6855469,100.618652 C16.84017,100.086749 16.9174805,99.5053742 16.9174805,98.8745117 L16.9174805,98.800293 C16.9174805,98.1756154 16.84017,97.5957872 16.6855469,97.060791 C16.5309237,96.5257949 16.3020848,96.0634785 15.9990234,95.6738281 C15.695962,95.2841777 15.3233258,94.9795747 14.8811035,94.7600098 C14.4388813,94.5404449 13.9270862,94.4306641 13.3457031,94.4306641 C12.76432,94.4306641 12.2509788,94.5404449 11.8056641,94.7600098 C11.3603493,94.9795747 10.9877131,95.2841777 10.6877441,95.6738281 C10.3877752,96.0634785 10.1604825,96.5257949 10.0058594,97.060791 C9.85123621,97.5957872 9.77392578,98.1756154 9.77392578,98.800293 L9.77392578,98.8745117 C9.77392578,99.5053742 9.85123621,100.086749 10.0058594,100.618652 C10.1604825,101.150556 10.3877752,101.611326 10.6877441,102.000977 C10.9877131,102.390627 11.3603493,102.69523 11.8056641,102.914795 C12.2509788,103.13436 12.76432,103.244141 13.3457031,103.244141 L13.3457031,103.244141 Z M24.0610352,108.625 L21.5004883,108.625 L21.5004883,95.5532227 L24.0610352,95.5532227 L24.0610352,96.4067383 C24.3393569,96.1160467 24.6826151,95.8686534 25.0908203,95.6645508 C25.4990255,95.4604482 25.9938122,95.3583984 26.5751953,95.3583984 C27.2307975,95.3583984 27.8260878,95.4898262 28.361084,95.7526855 C28.8960801,96.0155449 29.3553041,96.3773577 29.7387695,96.8381348 C30.122235,97.2989118 30.419107,97.8447234 30.6293945,98.4755859 C30.839682,99.1064485 30.9448242,99.7898726 30.9448242,100.525879 C30.9448242,101.261885 30.8365896,101.945309 30.6201172,102.576172 C30.4036448,103.207034 30.1005879,103.7513 29.7109375,104.208984 C29.3212871,104.666669 28.8543321,105.025389 28.3100586,105.285156 C27.765785,105.544923 27.1658561,105.674805 26.5102539,105.674805 C26.2195623,105.674805 25.9551607,105.648519 25.717041,105.595947 C25.4789213,105.543375 25.2609059,105.470704 25.0629883,105.37793 C24.8650706,105.285156 24.682618,105.175375 24.515625,105.048584 C24.348632,104.921793 24.1971035,104.78418 24.0610352,104.635742 L24.0610352,108.625 Z M23.9868164,101.444336 C23.9868164,101.710288 24.0347489,101.956135 24.1306152,102.181885 C24.2264816,102.407635 24.3640942,102.604003 24.543457,102.770996 C24.7228199,102.937989 24.9377429,103.067871 25.1882324,103.160645 C25.438722,103.253418 25.7216781,103.299805 26.0371094,103.299805 C26.4020201,103.299805 26.7251776,103.233318 27.0065918,103.100342 C27.288006,102.967366 27.5245759,102.780275 27.7163086,102.539062 C27.9080413,102.29785 28.0533849,102.011802 28.1523438,101.680908 C28.2513026,101.350015 28.3007812,100.986656 28.3007812,100.59082 L28.3007812,100.470215 C28.3007812,100.07438 28.2513026,99.7094743 28.1523438,99.3754883 C28.0533849,99.0415022 27.9080413,98.7523612 27.7163086,98.5080566 C27.5245759,98.263752 27.288006,98.0735684 27.0065918,97.9375 C26.7251776,97.8014316 26.4020201,97.7333984 26.0371094,97.7333984 C25.7216781,97.7333984 25.438722,97.7797847 25.1882324,97.8725586 C24.9377429,97.9653325 24.7228199,98.095214 24.543457,98.262207 C24.3640942,98.4292001 24.2264816,98.6271147 24.1306152,98.855957 C24.0347489,99.0847993 23.9868164,99.3321927 23.9868164,99.5981445 L23.9868164,101.444336 Z M34.7949219,101.407227 C34.8382164,101.704103 34.9325351,101.976236 35.0778809,102.223633 C35.2232266,102.47103 35.4072254,102.68286 35.6298828,102.859131 C35.8525402,103.035401 36.1092108,103.173014 36.3999023,103.271973 C36.6905939,103.370931 36.9998356,103.42041 37.3276367,103.42041 C37.7049173,103.42041 38.1131163,103.347738 38.5522461,103.202393 C38.9913759,103.057047 39.3933901,102.845216 39.7583008,102.566895 L40.9921875,104.366699 C40.528318,104.75635 39.9593133,105.071776 39.2851562,105.312988 C38.6109992,105.5542 37.8935585,105.674805 37.1328125,105.674805 C36.4462856,105.674805 35.7999705,105.557293 35.1938477,105.322266 C34.5877248,105.087238 34.0573753,104.747073 33.6027832,104.301758 C33.1481911,103.856443 32.7894707,103.31527 32.5266113,102.678223 C32.2637519,102.041175 32.1323242,101.323734 32.1323242,100.525879 C32.1323242,99.7960575 32.2482899,99.1157258 32.4802246,98.4848633 C32.7121594,97.8540008 33.0368631,97.3066429 33.4543457,96.8427734 C33.8718283,96.3789039 34.3712536,96.0155449 34.9526367,95.7526855 C35.5340198,95.4898262 36.1772426,95.3583984 36.8823242,95.3583984 C37.5379265,95.3583984 38.1471326,95.4774565 38.7099609,95.7155762 C39.2727893,95.9536959 39.7613912,96.2876769 40.1757812,96.7175293 C40.5901713,97.1473817 40.9148751,97.6622691 41.1499023,98.262207 C41.3849296,98.8621449 41.5024414,99.5239222 41.5024414,100.247559 L41.5024414,101.407227 L34.7949219,101.407227 Z M36.8730469,97.5849609 C36.3225884,97.5849609 35.8571796,97.7689597 35.4768066,98.1369629 C35.0964336,98.504966 34.8753258,98.9487279 34.8134766,99.4682617 L38.8212891,99.4682617 C38.8089192,98.9425429 38.6171894,98.4972349 38.2460938,98.1323242 C37.8749981,97.7674135 37.4173204,97.5849609 36.8730469,97.5849609 L36.8730469,97.5849609 Z M43.1352539,95.5532227 L45.6958008,95.5532227 L45.6958008,96.4067383 C45.8318692,96.2706699 45.9849438,96.1392422 46.1550293,96.0124512 C46.3251148,95.8856602 46.512206,95.7743332 46.7163086,95.6784668 C46.9204112,95.5826004 47.1477038,95.50529 47.3981934,95.4465332 C47.6486829,95.3877764 47.9254542,95.3583984 48.2285156,95.3583984 C48.7666043,95.3583984 49.2490213,95.4465323 49.6757812,95.6228027 C50.1025412,95.7990731 50.4628078,96.0418279 50.7565918,96.3510742 C51.0503758,96.6603206 51.274576,97.0221333 51.4291992,97.4365234 C51.5838224,97.8509135 51.6611328,98.299314 51.6611328,98.7817383 L51.6611328,105.489258 L49.1005859,105.489258 L49.1005859,99.7094727 C49.1005859,99.3569318 49.0603845,99.0585136 48.9799805,98.814209 C48.8995764,98.5699044 48.7897956,98.3719897 48.6506348,98.220459 C48.5114739,98.0689283 48.3475758,97.9576013 48.1589355,97.8864746 C47.9702953,97.815348 47.7646496,97.7797852 47.5419922,97.7797852 C47.2822253,97.7797852 47.0394705,97.8261714 46.8137207,97.9189453 C46.5879709,98.0117192 46.3916024,98.1524242 46.2246094,98.3410645 C46.0576164,98.5297047 45.9277348,98.7662746 45.8349609,99.0507812 C45.742187,99.3352879 45.6958008,99.6692689 45.6958008,100.052734 L45.6958008,105.489258 L43.1352539,105.489258 L43.1352539,95.5532227 Z" id="Open" fill="#005EA5"></path>
            <path d="M313.753418,102.344238 C313.926596,102.542156 314.13688,102.736978 314.384277,102.928711 C314.631674,103.120444 314.905353,103.292073 315.205322,103.443604 C315.505291,103.595134 315.831541,103.715738 316.184082,103.80542 C316.536623,103.895101 316.91699,103.939941 317.325195,103.939941 C318.085941,103.939941 318.668862,103.780682 319.073975,103.462158 C319.479087,103.143634 319.681641,102.755536 319.681641,102.297852 C319.681641,101.821612 319.503827,101.459799 319.148193,101.212402 C318.79256,100.965005 318.228194,100.770183 317.455078,100.62793 L317.037598,100.553711 C316.480954,100.454752 315.927412,100.324871 315.376953,100.164062 C314.826495,100.003254 314.328616,99.7713231 313.883301,99.4682617 C313.437986,99.1652003 313.076173,98.777102 312.797852,98.3039551 C312.51953,97.8308082 312.380371,97.2324255 312.380371,96.5087891 C312.380371,96.088214 312.473144,95.6475446 312.658691,95.1867676 C312.844239,94.7259905 313.139565,94.3023294 313.544678,93.9157715 C313.94979,93.5292136 314.472409,93.2122408 315.112549,92.9648438 C315.752689,92.7174467 316.527339,92.59375 317.436523,92.59375 C318.512701,92.59375 319.472896,92.771564 320.317139,93.1271973 C321.161381,93.4828306 321.843259,93.9513317 322.362793,94.5327148 L320.572266,96.2026367 C320.207355,95.8006165 319.738854,95.4851899 319.166748,95.2563477 C318.594642,95.0275054 318.005537,94.9130859 317.399414,94.9130859 C316.700517,94.9130859 316.154706,95.0460599 315.761963,95.3120117 C315.36922,95.5779636 315.172852,95.9243143 315.172852,96.3510742 C315.172852,96.6293959 315.236246,96.8613272 315.363037,97.046875 C315.489828,97.2324228 315.667642,97.3854974 315.896484,97.5061035 C316.125327,97.6267096 316.400552,97.7272131 316.722168,97.8076172 C317.043784,97.8880212 317.402505,97.9684241 317.79834,98.0488281 L318.011719,98.0859375 C318.543622,98.1848963 319.072426,98.3101392 319.598145,98.4616699 C320.123863,98.6132006 320.601642,98.8358547 321.031494,99.1296387 C321.461347,99.4234227 321.809243,99.8068824 322.075195,100.280029 C322.341147,100.753176 322.474121,101.357744 322.474121,102.09375 C322.474121,102.761722 322.334962,103.352374 322.056641,103.865723 C321.778319,104.379072 321.410321,104.816649 320.952637,105.178467 C320.494952,105.540285 319.966149,105.812418 319.366211,105.994873 C318.766273,106.177328 318.141605,106.268555 317.492188,106.268555 C316.836585,106.268555 316.228925,106.212891 315.669189,106.101562 C315.109454,105.990234 314.602297,105.832521 314.147705,105.628418 C313.693113,105.424315 313.288006,105.195477 312.932373,104.941895 C312.57674,104.688313 312.265952,104.41618 312,104.125488 L313.753418,102.344238 Z M326.593262,101.166016 C326.593262,101.487632 326.636556,101.810789 326.723145,102.135498 C326.809734,102.460207 326.942707,102.75244 327.12207,103.012207 C327.301433,103.271974 327.531818,103.483805 327.813232,103.647705 C328.094647,103.811606 328.430174,103.893555 328.819824,103.893555 C329.073406,103.893555 329.303791,103.859538 329.510986,103.791504 C329.718181,103.72347 329.903726,103.629151 330.067627,103.508545 C330.231528,103.387939 330.376871,103.245688 330.503662,103.081787 C330.630453,102.917887 330.740234,102.740073 330.833008,102.54834 L333.078125,103.708008 C332.917317,104.097658 332.696209,104.450194 332.414795,104.765625 C332.133381,105.081056 331.807131,105.350097 331.436035,105.572754 C331.06494,105.795411 330.653648,105.96704 330.202148,106.087646 C329.750649,106.208253 329.271324,106.268555 328.76416,106.268555 C328.065263,106.268555 327.422041,106.137127 326.834473,105.874268 C326.246905,105.611408 325.739748,105.251142 325.312988,104.793457 C324.886228,104.335772 324.552247,103.793053 324.311035,103.165283 C324.069823,102.537513 323.949219,101.855635 323.949219,101.119629 C323.949219,100.389808 324.069823,99.7094758 324.311035,99.0786133 C324.552247,98.4477508 324.886228,97.9003929 325.312988,97.4365234 C325.739748,96.9726539 326.246905,96.6092949 326.834473,96.3464355 C327.422041,96.0835762 328.065263,95.9521484 328.76416,95.9521484 C329.271324,95.9521484 329.750649,96.0124506 330.202148,96.1330566 C330.653648,96.2536627 331.06494,96.4268381 331.436035,96.6525879 C331.807131,96.8783377 332.133381,97.1489242 332.414795,97.4643555 C332.696209,97.7797867 332.917317,98.1323223 333.078125,98.5219727 L330.833008,99.6816406 C330.740234,99.4899079 330.630453,99.3120939 330.503662,99.1481934 C330.376871,98.9842928 330.231528,98.8420416 330.067627,98.7214355 C329.903726,98.6008295 329.718181,98.5049645 329.510986,98.4338379 C329.303791,98.3627112 329.073406,98.3271484 328.819824,98.3271484 C328.430174,98.3271484 328.094647,98.4090975 327.813232,98.572998 C327.531818,98.7368986 327.301433,98.9502754 327.12207,99.2131348 C326.942707,99.4759942 326.809734,99.77132 326.723145,100.099121 C326.636556,100.426922 326.593262,100.754718 326.593262,101.08252 L326.593262,101.166016 Z M339.024902,95.9521484 C339.760909,95.9521484 340.428871,96.0835762 341.028809,96.3464355 C341.628746,96.6092949 342.142088,96.9726539 342.568848,97.4365234 C342.995608,97.9003929 343.32495,98.4477508 343.556885,99.0786133 C343.78882,99.7094758 343.904785,100.389808 343.904785,101.119629 C343.904785,101.855635 343.787273,102.537513 343.552246,103.165283 C343.317219,103.793053 342.98633,104.335772 342.55957,104.793457 C342.13281,105.251142 341.619469,105.611408 341.019531,105.874268 C340.419593,106.137127 339.754724,106.268555 339.024902,106.268555 C338.288896,106.268555 337.620934,106.137127 337.020996,105.874268 C336.421058,105.611408 335.907717,105.251142 335.480957,104.793457 C335.054197,104.335772 334.723308,103.793053 334.488281,103.165283 C334.253254,102.537513 334.135742,101.855635 334.135742,101.119629 C334.135742,100.389808 334.251708,99.7094758 334.483643,99.0786133 C334.715577,98.4477508 335.04492,97.9003929 335.47168,97.4365234 C335.89844,96.9726539 336.413327,96.6092949 337.016357,96.3464355 C337.619388,96.0835762 338.288896,95.9521484 339.024902,95.9521484 L339.024902,95.9521484 Z M339.024902,103.893555 C339.389813,103.893555 339.712971,103.825522 339.994385,103.689453 C340.275799,103.553385 340.512369,103.364747 340.704102,103.123535 C340.895834,102.882323 341.041178,102.593182 341.140137,102.256104 C341.239096,101.919025 341.288574,101.549481 341.288574,101.147461 L341.288574,101.08252 C341.288574,100.680499 341.239096,100.310955 341.140137,99.973877 C341.041178,99.6367984 340.895834,99.3461112 340.704102,99.1018066 C340.512369,98.857502 340.275799,98.6673184 339.994385,98.53125 C339.712971,98.3951816 339.389813,98.3271484 339.024902,98.3271484 C338.659992,98.3271484 338.336834,98.3951816 338.05542,98.53125 C337.774006,98.6673184 337.537436,98.857502 337.345703,99.1018066 C337.15397,99.3461112 337.008627,99.6367984 336.909668,99.973877 C336.810709,100.310955 336.76123,100.680499 336.76123,101.08252 L336.76123,101.147461 C336.76123,101.549481 336.810709,101.919025 336.909668,102.256104 C337.008627,102.593182 337.15397,102.882323 337.345703,103.123535 C337.537436,103.364747 337.774006,103.553385 338.05542,103.689453 C338.336834,103.825522 338.659992,103.893555 339.024902,103.893555 L339.024902,103.893555 Z M348.163086,109.21875 L345.602539,109.21875 L345.602539,96.1469727 L348.163086,96.1469727 L348.163086,97.0004883 C348.441408,96.7097967 348.784666,96.4624034 349.192871,96.2583008 C349.601076,96.0541982 350.095863,95.9521484 350.677246,95.9521484 C351.332848,95.9521484 351.928139,96.0835762 352.463135,96.3464355 C352.998131,96.6092949 353.457355,96.9711077 353.84082,97.4318848 C354.224286,97.8926618 354.521158,98.4384734 354.731445,99.0693359 C354.941733,99.7001985 355.046875,100.383623 355.046875,101.119629 C355.046875,101.855635 354.93864,102.539059 354.722168,103.169922 C354.505696,103.800784 354.202639,104.34505 353.812988,104.802734 C353.423338,105.260419 352.956383,105.619139 352.412109,105.878906 C351.867836,106.138673 351.267907,106.268555 350.612305,106.268555 C350.321613,106.268555 350.057211,106.242269 349.819092,106.189697 C349.580972,106.137125 349.362957,106.064454 349.165039,105.97168 C348.967121,105.878906 348.784669,105.769125 348.617676,105.642334 C348.450683,105.515543 348.299154,105.37793 348.163086,105.229492 L348.163086,109.21875 Z M348.088867,102.038086 C348.088867,102.304038 348.1368,102.549885 348.232666,102.775635 C348.328532,103.001385 348.466145,103.197753 348.645508,103.364746 C348.824871,103.531739 349.039794,103.661621 349.290283,103.754395 C349.540773,103.847168 349.823729,103.893555 350.13916,103.893555 C350.504071,103.893555 350.827228,103.827068 351.108643,103.694092 C351.390057,103.561116 351.626627,103.374025 351.818359,103.132812 C352.010092,102.8916 352.155436,102.605552 352.254395,102.274658 C352.353353,101.943765 352.402832,101.580406 352.402832,101.18457 L352.402832,101.063965 C352.402832,100.66813 352.353353,100.303224 352.254395,99.9692383 C352.155436,99.6352522 352.010092,99.3461112 351.818359,99.1018066 C351.626627,98.857502 351.390057,98.6673184 351.108643,98.53125 C350.827228,98.3951816 350.504071,98.3271484 350.13916,98.3271484 C349.823729,98.3271484 349.540773,98.3735347 349.290283,98.4663086 C349.039794,98.5590825 348.824871,98.688964 348.645508,98.855957 C348.466145,99.0229501 348.328532,99.2208647 348.232666,99.449707 C348.1368,99.6785493 348.088867,99.9259427 348.088867,100.191895 L348.088867,102.038086 Z M359.314453,106.083008 L356.753906,106.083008 L356.753906,96.1469727 L359.314453,96.1469727 L359.314453,106.083008 Z M356.484863,93.5400391 C356.484863,93.3297516 356.525065,93.1302907 356.605469,92.9416504 C356.685873,92.7530101 356.795654,92.589112 356.934814,92.4499512 C357.073975,92.3107903 357.236327,92.2010095 357.421875,92.1206055 C357.607423,92.0402014 357.80843,92 358.024902,92 C358.23519,92 358.434651,92.0402014 358.623291,92.1206055 C358.811931,92.2010095 358.975829,92.3107903 359.11499,92.4499512 C359.254151,92.589112 359.363932,92.7530101 359.444336,92.9416504 C359.52474,93.1302907 359.564941,93.3297516 359.564941,93.5400391 C359.564941,93.7565115 359.52474,93.9575186 359.444336,94.1430664 C359.363932,94.3286142 359.254151,94.4909661 359.11499,94.630127 C358.975829,94.7692878 358.811931,94.8790686 358.623291,94.9594727 C358.434651,95.0398767 358.23519,95.0800781 358.024902,95.0800781 C357.80843,95.0800781 357.607423,95.0398767 357.421875,94.9594727 C357.236327,94.8790686 357.073975,94.7692878 356.934814,94.630127 C356.795654,94.4909661 356.685873,94.3286142 356.605469,94.1430664 C356.525065,93.9575186 356.484863,93.7565115 356.484863,93.5400391 L356.484863,93.5400391 Z M361.522461,96.1469727 L364.083008,96.1469727 L364.083008,97.0004883 C364.219076,96.8644199 364.372151,96.7329922 364.542236,96.6062012 C364.712322,96.4794102 364.899413,96.3680832 365.103516,96.2722168 C365.307618,96.1763504 365.534911,96.09904 365.7854,96.0402832 C366.03589,95.9815264 366.312661,95.9521484 366.615723,95.9521484 C367.153811,95.9521484 367.636228,96.0402823 368.062988,96.2165527 C368.489748,96.3928231 368.850015,96.6355779 369.143799,96.9448242 C369.437583,97.2540706 369.661783,97.6158833 369.816406,98.0302734 C369.971029,98.4446635 370.04834,98.893064 370.04834,99.3754883 L370.04834,106.083008 L367.487793,106.083008 L367.487793,100.303223 C367.487793,99.9506818 367.447592,99.6522636 367.367188,99.407959 C367.286783,99.1636544 367.177003,98.9657397 367.037842,98.814209 C366.898681,98.6626783 366.734783,98.5513513 366.546143,98.4802246 C366.357502,98.409098 366.151857,98.3735352 365.929199,98.3735352 C365.669432,98.3735352 365.426678,98.4199214 365.200928,98.5126953 C364.975178,98.6054692 364.778809,98.7461742 364.611816,98.9348145 C364.444823,99.1234547 364.314942,99.3600246 364.222168,99.6445312 C364.129394,99.9290379 364.083008,100.263019 364.083008,100.646484 L364.083008,106.083008 L361.522461,106.083008 L361.522461,96.1469727 Z M378.22168,104.320312 C377.992837,104.598634 377.672772,104.819742 377.261475,104.983643 C376.850177,105.147543 376.403323,105.229492 375.920898,105.229492 C375.252926,105.229492 374.659182,105.11198 374.139648,104.876953 C373.620115,104.641926 373.182538,104.318768 372.826904,103.907471 C372.471271,103.496173 372.199138,103.009117 372.010498,102.446289 C371.821858,101.883461 371.727539,101.264977 371.727539,100.59082 C371.727539,99.9352181 371.821858,99.3213733 372.010498,98.7492676 C372.199138,98.1771619 372.471271,97.6854676 372.826904,97.2741699 C373.182538,96.8628723 373.620115,96.5397147 374.139648,96.3046875 C374.659182,96.0696603 375.252926,95.9521484 375.920898,95.9521484 C376.403323,95.9521484 376.850177,96.0356437 377.261475,96.2026367 C377.672772,96.3696297 377.992837,96.5922838 378.22168,96.8706055 L378.22168,96.1469727 L380.791504,96.1469727 L380.791504,105.990234 C380.791504,106.596357 380.677084,107.117429 380.448242,107.553467 C380.2194,107.989504 379.90552,108.346678 379.506592,108.625 C379.107664,108.903322 378.645348,109.105875 378.119629,109.232666 C377.59391,109.359457 377.034183,109.422852 376.44043,109.422852 C375.716793,109.422852 374.962244,109.33781 374.176758,109.167725 C373.391272,108.997639 372.714033,108.785809 372.14502,108.532227 L372.868652,106.463379 C373.04183,106.537598 373.255207,106.619547 373.508789,106.709229 C373.762371,106.79891 374.034504,106.877767 374.325195,106.945801 C374.615887,107.013835 374.92049,107.071045 375.239014,107.117432 C375.557537,107.163819 375.868325,107.187012 376.171387,107.187012 C376.437339,107.187012 376.694009,107.160726 376.941406,107.108154 C377.188803,107.055582 377.406819,106.968995 377.595459,106.848389 C377.784099,106.727783 377.935628,106.570069 378.050049,106.375244 C378.16447,106.180419 378.22168,105.931479 378.22168,105.628418 L378.22168,104.320312 Z M374.362305,100.62793 C374.362305,100.955731 374.397867,101.263426 374.468994,101.551025 C374.540121,101.838624 374.65454,102.082925 374.812256,102.283936 C374.969971,102.484946 375.172525,102.642659 375.419922,102.75708 C375.667319,102.871501 375.967283,102.928711 376.319824,102.928711 C377.018721,102.928711 377.5166,102.707603 377.813477,102.265381 C378.110353,101.823159 378.258789,101.277347 378.258789,100.62793 L378.258789,100.553711 C378.258789,100.22591 378.224772,99.9197605 378.156738,99.6352539 C378.088704,99.3507473 377.977377,99.1064463 377.822754,98.9023438 C377.668131,98.6982412 377.46867,98.5389817 377.224365,98.4245605 C376.980061,98.3101394 376.67855,98.2529297 376.319824,98.2529297 C375.627112,98.2529297 375.127687,98.4724913 374.821533,98.9116211 C374.515379,99.3507509 374.362305,99.8981087 374.362305,100.553711 L374.362305,100.62793 Z" id="Scoping" fill="#005EA5"></path>
            <path d="M628,92.7792969 L633.148926,92.7792969 C633.940596,92.7792969 634.639483,92.8937163 635.245605,93.1225586 C635.851728,93.3514009 636.358885,93.6575502 636.76709,94.0410156 C637.175295,94.4244811 637.484537,94.8651505 637.694824,95.3630371 C637.905112,95.8609237 638.010254,96.381996 638.010254,96.9262695 C638.010254,97.3653993 637.943767,97.7813294 637.810791,98.1740723 C637.677815,98.5668151 637.495362,98.9224431 637.263428,99.2409668 C637.031493,99.5594905 636.757814,99.8347156 636.442383,100.06665 C636.126952,100.298585 635.786786,100.479492 635.421875,100.609375 L638.334961,106.083008 L635.236328,106.083008 L632.824219,101.295898 L630.69043,101.295898 L630.69043,106.083008 L628,106.083008 L628,92.7792969 Z M635.199219,97.019043 C635.199219,96.7530911 635.151286,96.5056978 635.05542,96.2768555 C634.959554,96.0480132 634.81421,95.8500985 634.619385,95.6831055 C634.42456,95.5161124 634.181805,95.3862309 633.891113,95.293457 C633.600422,95.2006831 633.263348,95.1542969 632.879883,95.1542969 L630.69043,95.1542969 L630.69043,98.9023438 L632.879883,98.9023438 C633.263348,98.9023438 633.600422,98.8544113 633.891113,98.7585449 C634.181805,98.6626786 634.42456,98.5297046 634.619385,98.3596191 C634.81421,98.1895337 634.959554,97.9900728 635.05542,97.7612305 C635.151286,97.5323882 635.199219,97.2849948 635.199219,97.019043 L635.199219,97.019043 Z M642.07373,102.000977 C642.117025,102.297853 642.211344,102.569986 642.356689,102.817383 C642.502035,103.06478 642.686034,103.27661 642.908691,103.452881 C643.131349,103.629151 643.388019,103.766764 643.678711,103.865723 C643.969402,103.964681 644.278644,104.01416 644.606445,104.01416 C644.983726,104.01416 645.391925,103.941488 645.831055,103.796143 C646.270184,103.650797 646.672199,103.438966 647.037109,103.160645 L648.270996,104.960449 C647.807127,105.3501 647.238122,105.665526 646.563965,105.906738 C645.889808,106.14795 645.172367,106.268555 644.411621,106.268555 C643.725094,106.268555 643.078779,106.151043 642.472656,105.916016 C641.866533,105.680988 641.336184,105.340823 640.881592,104.895508 C640.427,104.450193 640.068279,103.90902 639.80542,103.271973 C639.542561,102.634925 639.411133,101.917484 639.411133,101.119629 C639.411133,100.389808 639.527098,99.7094758 639.759033,99.0786133 C639.990968,98.4477508 640.315672,97.9003929 640.733154,97.4365234 C641.150637,96.9726539 641.650062,96.6092949 642.231445,96.3464355 C642.812828,96.0835762 643.456051,95.9521484 644.161133,95.9521484 C644.816735,95.9521484 645.425941,96.0712065 645.98877,96.3093262 C646.551598,96.5474459 647.0402,96.8814269 647.45459,97.3112793 C647.86898,97.7411317 648.193684,98.2560191 648.428711,98.855957 C648.663738,99.4558949 648.78125,100.117672 648.78125,100.841309 L648.78125,102.000977 L642.07373,102.000977 Z M644.151855,98.1787109 C643.601397,98.1787109 643.135988,98.3627097 642.755615,98.7307129 C642.375242,99.098716 642.154134,99.5424779 642.092285,100.062012 L646.100098,100.062012 C646.087728,99.5362929 645.895998,99.0909849 645.524902,98.7260742 C645.153807,98.3611635 644.696129,98.1787109 644.151855,98.1787109 L644.151855,98.1787109 Z M651.119141,102.910156 C651.484051,103.237957 651.920082,103.519367 652.427246,103.754395 C652.93441,103.989422 653.447751,104.106934 653.967285,104.106934 C654.344566,104.106934 654.641438,104.034262 654.85791,103.888916 C655.074383,103.74357 655.182617,103.556479 655.182617,103.327637 C655.182617,102.937986 654.765141,102.634929 653.930176,102.418457 L653.206543,102.223633 C652.847817,102.137044 652.486004,102.017986 652.121094,101.866455 C651.756183,101.714924 651.420656,101.515463 651.114502,101.268066 C650.808348,101.020669 650.560955,100.719159 650.372314,100.363525 C650.183674,100.007892 650.089355,99.5703151 650.089355,99.0507812 C650.089355,98.6363912 650.180582,98.242108 650.363037,97.8679199 C650.545492,97.4937319 650.805255,97.1643894 651.142334,96.8798828 C651.479412,96.5953762 651.889158,96.3696297 652.371582,96.2026367 C652.854006,96.0356437 653.392087,95.9521484 653.98584,95.9521484 C654.833175,95.9521484 655.589271,96.0851224 656.25415,96.3510742 C656.91903,96.6170261 657.443195,96.9169905 657.82666,97.2509766 L656.490723,98.9580078 C656.175291,98.7291655 655.802655,98.532797 655.372803,98.3688965 C654.94295,98.2049959 654.511558,98.1230469 654.078613,98.1230469 C653.676593,98.1230469 653.364259,98.1957187 653.141602,98.3410645 C652.918944,98.4864102 652.807617,98.6611318 652.807617,98.8652344 C652.807617,99.0817068 652.905028,99.2564284 653.099854,99.3894043 C653.294679,99.5223802 653.577635,99.6383459 653.94873,99.7373047 L655.024902,100.043457 C656.0516,100.334149 656.787595,100.726886 657.23291,101.22168 C657.678225,101.716474 657.900879,102.341142 657.900879,103.095703 C657.900879,103.516278 657.814291,103.916746 657.641113,104.297119 C657.467935,104.677492 657.214357,105.016112 656.880371,105.312988 C656.546385,105.609865 656.132001,105.843342 655.637207,106.013428 C655.142413,106.183513 654.579593,106.268555 653.94873,106.268555 C653.466306,106.268555 653.013267,106.225261 652.5896,106.138672 C652.165932,106.052083 651.773195,105.933025 651.411377,105.781494 C651.049559,105.629963 650.723309,105.458334 650.432617,105.266602 C650.141926,105.074869 649.894532,104.883139 649.69043,104.691406 L651.119141,102.910156 Z M663.921875,95.9521484 C664.657881,95.9521484 665.325843,96.0835762 665.925781,96.3464355 C666.525719,96.6092949 667.03906,96.9726539 667.46582,97.4365234 C667.89258,97.9003929 668.221923,98.4477508 668.453857,99.0786133 C668.685792,99.7094758 668.801758,100.389808 668.801758,101.119629 C668.801758,101.855635 668.684246,102.537513 668.449219,103.165283 C668.214192,103.793053 667.883303,104.335772 667.456543,104.793457 C667.029783,105.251142 666.516442,105.611408 665.916504,105.874268 C665.316566,106.137127 664.651696,106.268555 663.921875,106.268555 C663.185869,106.268555 662.517907,106.137127 661.917969,105.874268 C661.318031,105.611408 660.80469,105.251142 660.37793,104.793457 C659.95117,104.335772 659.620281,103.793053 659.385254,103.165283 C659.150227,102.537513 659.032715,101.855635 659.032715,101.119629 C659.032715,100.389808 659.14868,99.7094758 659.380615,99.0786133 C659.61255,98.4477508 659.941892,97.9003929 660.368652,97.4365234 C660.795412,96.9726539 661.3103,96.6092949 661.91333,96.3464355 C662.51636,96.0835762 663.185869,95.9521484 663.921875,95.9521484 L663.921875,95.9521484 Z M663.921875,103.893555 C664.286786,103.893555 664.609943,103.825522 664.891357,103.689453 C665.172772,103.553385 665.409341,103.364747 665.601074,103.123535 C665.792807,102.882323 665.938151,102.593182 666.037109,102.256104 C666.136068,101.919025 666.185547,101.549481 666.185547,101.147461 L666.185547,101.08252 C666.185547,100.680499 666.136068,100.310955 666.037109,99.973877 C665.938151,99.6367984 665.792807,99.3461112 665.601074,99.1018066 C665.409341,98.857502 665.172772,98.6673184 664.891357,98.53125 C664.609943,98.3951816 664.286786,98.3271484 663.921875,98.3271484 C663.556964,98.3271484 663.233807,98.3951816 662.952393,98.53125 C662.670978,98.6673184 662.434409,98.857502 662.242676,99.1018066 C662.050943,99.3461112 661.905599,99.6367984 661.806641,99.973877 C661.707682,100.310955 661.658203,100.680499 661.658203,101.08252 L661.658203,101.147461 C661.658203,101.549481 661.707682,101.919025 661.806641,102.256104 C661.905599,102.593182 662.050943,102.882323 662.242676,103.123535 C662.434409,103.364747 662.670978,103.553385 662.952393,103.689453 C663.233807,103.825522 663.556964,103.893555 663.921875,103.893555 L663.921875,103.893555 Z M678.951172,106.083008 L676.390625,106.083008 L676.390625,105.229492 C676.248372,105.365561 676.093751,105.496988 675.926758,105.623779 C675.759765,105.75057 675.57422,105.861897 675.370117,105.957764 C675.166015,106.05363 674.938722,106.129394 674.688232,106.185059 C674.437743,106.240723 674.160972,106.268555 673.85791,106.268555 C673.319822,106.268555 672.837404,106.180421 672.410645,106.00415 C671.983885,105.82788 671.623618,105.586671 671.329834,105.280518 C671.03605,104.974364 670.81185,104.614097 670.657227,104.199707 C670.502603,103.785317 670.425293,103.336916 670.425293,102.854492 L670.425293,96.1469727 L672.98584,96.1469727 L672.98584,101.91748 C672.98584,102.270021 673.024495,102.569986 673.101807,102.817383 C673.179118,103.06478 673.287353,103.264241 673.426514,103.415771 C673.565675,103.567302 673.731119,103.678629 673.922852,103.749756 C674.114584,103.820883 674.321776,103.856445 674.544434,103.856445 C674.804201,103.856445 675.046955,103.810059 675.272705,103.717285 C675.498455,103.624511 675.694823,103.483806 675.861816,103.295166 C676.028809,103.106526 676.158691,102.869956 676.251465,102.585449 C676.344239,102.300943 676.390625,101.966962 676.390625,101.583496 L676.390625,96.1469727 L678.951172,96.1469727 L678.951172,106.083008 Z M686.744141,98.6333008 L686.475098,98.6333008 C686.110187,98.6333008 685.76229,98.6704098 685.431396,98.7446289 C685.100503,98.818848 684.808269,98.9533682 684.554688,99.1481934 C684.301106,99.3430186 684.098552,99.6105126 683.947021,99.9506836 C683.795491,100.290855 683.719727,100.726885 683.719727,101.258789 L683.719727,106.083008 L681.15918,106.083008 L681.15918,96.1469727 L683.719727,96.1469727 L683.719727,97.2695312 C683.82487,97.1025382 683.960937,96.9417325 684.12793,96.7871094 C684.294923,96.6324862 684.489745,96.4948736 684.712402,96.3742676 C684.93506,96.2536615 685.185545,96.1562504 685.463867,96.0820312 C685.742189,96.0078121 686.042153,95.9707031 686.36377,95.9707031 L686.744141,95.9707031 L686.744141,98.6333008 Z M690.464355,101.166016 C690.464355,101.487632 690.507649,101.810789 690.594238,102.135498 C690.680827,102.460207 690.813801,102.75244 690.993164,103.012207 C691.172527,103.271974 691.402912,103.483805 691.684326,103.647705 C691.96574,103.811606 692.301268,103.893555 692.690918,103.893555 C692.9445,103.893555 693.174885,103.859538 693.38208,103.791504 C693.589275,103.72347 693.77482,103.629151 693.938721,103.508545 C694.102621,103.387939 694.247965,103.245688 694.374756,103.081787 C694.501547,102.917887 694.611328,102.740073 694.704102,102.54834 L696.949219,103.708008 C696.788411,104.097658 696.567303,104.450194 696.285889,104.765625 C696.004475,105.081056 695.678225,105.350097 695.307129,105.572754 C694.936033,105.795411 694.524742,105.96704 694.073242,106.087646 C693.621743,106.208253 693.142418,106.268555 692.635254,106.268555 C691.936357,106.268555 691.293134,106.137127 690.705566,105.874268 C690.117998,105.611408 689.610842,105.251142 689.184082,104.793457 C688.757322,104.335772 688.423341,103.793053 688.182129,103.165283 C687.940917,102.537513 687.820312,101.855635 687.820312,101.119629 C687.820312,100.389808 687.940917,99.7094758 688.182129,99.0786133 C688.423341,98.4477508 688.757322,97.9003929 689.184082,97.4365234 C689.610842,96.9726539 690.117998,96.6092949 690.705566,96.3464355 C691.293134,96.0835762 691.936357,95.9521484 692.635254,95.9521484 C693.142418,95.9521484 693.621743,96.0124506 694.073242,96.1330566 C694.524742,96.2536627 694.936033,96.4268381 695.307129,96.6525879 C695.678225,96.8783377 696.004475,97.1489242 696.285889,97.4643555 C696.567303,97.7797867 696.788411,98.1323223 696.949219,98.5219727 L694.704102,99.6816406 C694.611328,99.4899079 694.501547,99.3120939 694.374756,99.1481934 C694.247965,98.9842928 694.102621,98.8420416 693.938721,98.7214355 C693.77482,98.6008295 693.589275,98.5049645 693.38208,98.4338379 C693.174885,98.3627112 692.9445,98.3271484 692.690918,98.3271484 C692.301268,98.3271484 691.96574,98.4090975 691.684326,98.572998 C691.402912,98.7368986 691.172527,98.9502754 690.993164,99.2131348 C690.813801,99.4759942 690.680827,99.77132 690.594238,100.099121 C690.507649,100.426922 690.464355,100.754718 690.464355,101.08252 L690.464355,101.166016 Z M701.086914,106.083008 L698.526367,106.083008 L698.526367,96.1469727 L701.086914,96.1469727 L701.086914,106.083008 Z M698.257324,93.5400391 C698.257324,93.3297516 698.297526,93.1302907 698.37793,92.9416504 C698.458334,92.7530101 698.568115,92.589112 698.707275,92.4499512 C698.846436,92.3107903 699.008788,92.2010095 699.194336,92.1206055 C699.379884,92.0402014 699.580891,92 699.797363,92 C700.007651,92 700.207112,92.0402014 700.395752,92.1206055 C700.584392,92.2010095 700.74829,92.3107903 700.887451,92.4499512 C701.026612,92.589112 701.136393,92.7530101 701.216797,92.9416504 C701.297201,93.1302907 701.337402,93.3297516 701.337402,93.5400391 C701.337402,93.7565115 701.297201,93.9575186 701.216797,94.1430664 C701.136393,94.3286142 701.026612,94.4909661 700.887451,94.630127 C700.74829,94.7692878 700.584392,94.8790686 700.395752,94.9594727 C700.207112,95.0398767 700.007651,95.0800781 699.797363,95.0800781 C699.580891,95.0800781 699.379884,95.0398767 699.194336,94.9594727 C699.008788,94.8790686 698.846436,94.7692878 698.707275,94.630127 C698.568115,94.4909661 698.458334,94.3286142 698.37793,94.1430664 C698.297526,93.9575186 698.257324,93.7565115 698.257324,93.5400391 L698.257324,93.5400391 Z M703.294922,96.1469727 L705.855469,96.1469727 L705.855469,97.0004883 C705.991537,96.8644199 706.144612,96.7329922 706.314697,96.6062012 C706.484783,96.4794102 706.671874,96.3680832 706.875977,96.2722168 C707.080079,96.1763504 707.307372,96.09904 707.557861,96.0402832 C707.808351,95.9815264 708.085122,95.9521484 708.388184,95.9521484 C708.926272,95.9521484 709.408689,96.0402823 709.835449,96.2165527 C710.262209,96.3928231 710.622476,96.6355779 710.91626,96.9448242 C711.210044,97.2540706 711.434244,97.6158833 711.588867,98.0302734 C711.74349,98.4446635 711.820801,98.893064 711.820801,99.3754883 L711.820801,106.083008 L709.260254,106.083008 L709.260254,100.303223 C709.260254,99.9506818 709.220052,99.6522636 709.139648,99.407959 C709.059244,99.1636544 708.949464,98.9657397 708.810303,98.814209 C708.671142,98.6626783 708.507244,98.5513513 708.318604,98.4802246 C708.129963,98.409098 707.924318,98.3735352 707.70166,98.3735352 C707.441893,98.3735352 707.199138,98.4199214 706.973389,98.5126953 C706.747639,98.6054692 706.55127,98.7461742 706.384277,98.9348145 C706.217284,99.1234547 706.087403,99.3600246 705.994629,99.6445312 C705.901855,99.9290379 705.855469,100.263019 705.855469,100.646484 L705.855469,106.083008 L703.294922,106.083008 L703.294922,96.1469727 Z M719.994141,104.320312 C719.765298,104.598634 719.445233,104.819742 719.033936,104.983643 C718.622638,105.147543 718.175784,105.229492 717.693359,105.229492 C717.025387,105.229492 716.431643,105.11198 715.912109,104.876953 C715.392576,104.641926 714.954999,104.318768 714.599365,103.907471 C714.243732,103.496173 713.971599,103.009117 713.782959,102.446289 C713.594319,101.883461 713.5,101.264977 713.5,100.59082 C713.5,99.9352181 713.594319,99.3213733 713.782959,98.7492676 C713.971599,98.1771619 714.243732,97.6854676 714.599365,97.2741699 C714.954999,96.8628723 715.392576,96.5397147 715.912109,96.3046875 C716.431643,96.0696603 717.025387,95.9521484 717.693359,95.9521484 C718.175784,95.9521484 718.622638,96.0356437 719.033936,96.2026367 C719.445233,96.3696297 719.765298,96.5922838 719.994141,96.8706055 L719.994141,96.1469727 L722.563965,96.1469727 L722.563965,105.990234 C722.563965,106.596357 722.449545,107.117429 722.220703,107.553467 C721.991861,107.989504 721.677981,108.346678 721.279053,108.625 C720.880125,108.903322 720.417809,109.105875 719.89209,109.232666 C719.366371,109.359457 718.806644,109.422852 718.212891,109.422852 C717.489254,109.422852 716.734704,109.33781 715.949219,109.167725 C715.163733,108.997639 714.486494,108.785809 713.91748,108.532227 L714.641113,106.463379 C714.814291,106.537598 715.027668,106.619547 715.28125,106.709229 C715.534832,106.79891 715.806965,106.877767 716.097656,106.945801 C716.388348,107.013835 716.692951,107.071045 717.011475,107.117432 C717.329998,107.163819 717.640786,107.187012 717.943848,107.187012 C718.2098,107.187012 718.46647,107.160726 718.713867,107.108154 C718.961264,107.055582 719.17928,106.968995 719.36792,106.848389 C719.55656,106.727783 719.708089,106.570069 719.82251,106.375244 C719.936931,106.180419 719.994141,105.931479 719.994141,105.628418 L719.994141,104.320312 Z M716.134766,100.62793 C716.134766,100.955731 716.170328,101.263426 716.241455,101.551025 C716.312582,101.838624 716.427001,102.082925 716.584717,102.283936 C716.742432,102.484946 716.944986,102.642659 717.192383,102.75708 C717.43978,102.871501 717.739744,102.928711 718.092285,102.928711 C718.791182,102.928711 719.289061,102.707603 719.585938,102.265381 C719.882814,101.823159 720.03125,101.277347 720.03125,100.62793 L720.03125,100.553711 C720.03125,100.22591 719.997233,99.9197605 719.929199,99.6352539 C719.861165,99.3507473 719.749838,99.1064463 719.595215,98.9023438 C719.440592,98.6982412 719.241131,98.5389817 718.996826,98.4245605 C718.752522,98.3101394 718.451011,98.2529297 718.092285,98.2529297 C717.399573,98.2529297 716.900148,98.4724913 716.593994,98.9116211 C716.28784,99.3507509 716.134766,99.8981087 716.134766,100.553711 L716.134766,100.62793 Z" id="Resourcing" fill="#005EA5"></path>
            <path d="M1264.53516,103.615234 L1259.60889,103.615234 L1258.85742,106.083008 L1256,106.083008 L1260.35107,92.7792969 L1263.88574,92.7792969 L1268.30176,106.083008 L1265.2959,106.083008 L1264.53516,103.615234 Z M1260.33252,101.240234 L1263.81152,101.240234 L1262.08594,95.6181641 L1262.04883,95.6181641 L1260.33252,101.240234 Z M1278.58105,102.835938 L1279.79639,96.1469727 L1282.50537,96.1469727 L1280.21387,106.083008 L1277.1709,106.083008 L1275.68652,99.6259766 L1274.10938,106.083008 L1271.11279,106.083008 L1268.81201,96.1469727 L1271.60449,96.1469727 L1272.78271,102.835938 L1274.5083,96.1469727 L1276.95752,96.1469727 L1278.58105,102.835938 Z M1287.1626,102.047363 C1286.84717,102.096843 1286.59359,102.206623 1286.40186,102.376709 C1286.21012,102.546794 1286.11426,102.77718 1286.11426,103.067871 C1286.11426,103.389487 1286.23177,103.666259 1286.4668,103.898193 C1286.70182,104.130128 1287.04817,104.246094 1287.50586,104.246094 C1287.98828,104.246094 1288.36865,104.106935 1288.64697,103.828613 C1288.92529,103.550292 1289.06445,103.182294 1289.06445,102.724609 L1289.06445,101.722656 L1287.1626,102.047363 Z M1289.48193,105.145996 C1289.37679,105.26351 1289.24845,105.388753 1289.09692,105.521729 C1288.94539,105.654704 1288.76603,105.775309 1288.55884,105.883545 C1288.35164,105.991781 1288.10889,106.083007 1287.83057,106.157227 C1287.55224,106.231446 1287.23991,106.268555 1286.89355,106.268555 C1286.39876,106.268555 1285.94263,106.189698 1285.52515,106.031982 C1285.10766,105.874267 1284.74121,105.653159 1284.42578,105.368652 C1284.11035,105.084146 1283.86296,104.754803 1283.68359,104.380615 C1283.50423,104.006427 1283.41455,103.599774 1283.41455,103.160645 C1283.41455,102.362789 1283.66194,101.710289 1284.15674,101.203125 C1284.65153,100.695961 1285.33496,100.377442 1286.20703,100.247559 L1289.06445,99.8300781 L1289.06445,99.6445312 C1289.06445,99.1992165 1288.92839,98.846681 1288.65625,98.5869141 C1288.38411,98.3271471 1287.9419,98.1972656 1287.32959,98.1972656 C1287.07601,98.1972656 1286.81934,98.2266436 1286.55957,98.2854004 C1286.2998,98.3441572 1286.05086,98.4106442 1285.81274,98.4848633 C1285.57462,98.5590824 1285.35352,98.6441239 1285.14941,98.7399902 C1284.94531,98.8358566 1284.76595,98.9208981 1284.61133,98.9951172 L1283.60938,97.0375977 C1284.17839,96.7221664 1284.81079,96.4624034 1285.50659,96.2583008 C1286.2024,96.0541982 1286.92448,95.9521484 1287.67285,95.9521484 C1288.13054,95.9521484 1288.59285,96.0000809 1289.05981,96.0959473 C1289.52678,96.1918136 1289.95044,96.3665352 1290.33081,96.6201172 C1290.71118,96.8736992 1291.02197,97.2185037 1291.26318,97.654541 C1291.5044,98.0905784 1291.625,98.6456672 1291.625,99.3198242 L1291.625,103.401855 C1291.625,103.692547 1291.70076,103.90747 1291.85229,104.046631 C1292.00383,104.185792 1292.21256,104.314127 1292.47852,104.431641 L1291.31885,106.268555 C1290.84879,106.219075 1290.47152,106.096925 1290.18701,105.9021 C1289.90251,105.707274 1289.66748,105.455242 1289.48193,105.145996 L1289.48193,105.145996 Z M1296.31934,106.083008 L1293.75879,106.083008 L1293.75879,96.1469727 L1296.31934,96.1469727 L1296.31934,106.083008 Z M1293.48975,93.5400391 C1293.48975,93.3297516 1293.52995,93.1302907 1293.61035,92.9416504 C1293.69076,92.7530101 1293.80054,92.589112 1293.9397,92.4499512 C1294.07886,92.3107903 1294.24121,92.2010095 1294.42676,92.1206055 C1294.61231,92.0402014 1294.81331,92 1295.02979,92 C1295.24007,92 1295.43953,92.0402014 1295.62817,92.1206055 C1295.81681,92.2010095 1295.98071,92.3107903 1296.11987,92.4499512 C1296.25903,92.589112 1296.36881,92.7530101 1296.44922,92.9416504 C1296.52962,93.1302907 1296.56982,93.3297516 1296.56982,93.5400391 C1296.56982,93.7565115 1296.52962,93.9575186 1296.44922,94.1430664 C1296.36881,94.3286142 1296.25903,94.4909661 1296.11987,94.630127 C1295.98071,94.7692878 1295.81681,94.8790686 1295.62817,94.9594727 C1295.43953,95.0398767 1295.24007,95.0800781 1295.02979,95.0800781 C1294.81331,95.0800781 1294.61231,95.0398767 1294.42676,94.9594727 C1294.24121,94.8790686 1294.07886,94.7692878 1293.9397,94.630127 C1293.80054,94.4909661 1293.69076,94.3286142 1293.61035,94.1430664 C1293.52995,93.9575186 1293.48975,93.7565115 1293.48975,93.5400391 L1293.48975,93.5400391 Z M1302.19189,103.123535 C1302.19189,103.241049 1302.20736,103.352376 1302.23828,103.45752 C1302.26921,103.562663 1302.32332,103.65389 1302.40063,103.731201 C1302.47795,103.808513 1302.58773,103.868815 1302.72998,103.912109 C1302.87223,103.955404 1303.05469,103.977051 1303.27734,103.977051 C1303.37012,103.977051 1303.47526,103.972412 1303.59277,103.963135 C1303.71029,103.953857 1303.8278,103.943034 1303.94531,103.930664 C1304.06283,103.918294 1304.17261,103.902832 1304.27466,103.884277 C1304.37671,103.865723 1304.46175,103.85026 1304.52979,103.837891 L1304.76172,106.101562 C1304.52051,106.132487 1304.27002,106.160319 1304.01025,106.185059 C1303.7876,106.209798 1303.5402,106.229899 1303.26807,106.245361 C1302.99593,106.260824 1302.7207,106.268555 1302.44238,106.268555 C1301.55794,106.268555 1300.86833,106.067548 1300.37354,105.665527 C1299.87874,105.263507 1299.63135,104.623377 1299.63135,103.745117 L1299.63135,98.3735352 L1297.84082,98.3735352 L1297.84082,96.1469727 L1299.63135,96.1469727 L1299.63135,93.3359375 L1302.19189,92.6494141 L1302.19189,96.1469727 L1304.79883,96.1469727 L1304.79883,98.3735352 L1302.19189,98.3735352 L1302.19189,103.123535 Z M1308.97363,106.083008 L1306.41309,106.083008 L1306.41309,96.1469727 L1308.97363,96.1469727 L1308.97363,106.083008 Z M1306.14404,93.5400391 C1306.14404,93.3297516 1306.18424,93.1302907 1306.26465,92.9416504 C1306.34505,92.7530101 1306.45483,92.589112 1306.59399,92.4499512 C1306.73315,92.3107903 1306.89551,92.2010095 1307.08105,92.1206055 C1307.2666,92.0402014 1307.46761,92 1307.68408,92 C1307.89437,92 1308.09383,92.0402014 1308.28247,92.1206055 C1308.47111,92.2010095 1308.63501,92.3107903 1308.77417,92.4499512 C1308.91333,92.589112 1309.02311,92.7530101 1309.10352,92.9416504 C1309.18392,93.1302907 1309.22412,93.3297516 1309.22412,93.5400391 C1309.22412,93.7565115 1309.18392,93.9575186 1309.10352,94.1430664 C1309.02311,94.3286142 1308.91333,94.4909661 1308.77417,94.630127 C1308.63501,94.7692878 1308.47111,94.8790686 1308.28247,94.9594727 C1308.09383,95.0398767 1307.89437,95.0800781 1307.68408,95.0800781 C1307.46761,95.0800781 1307.2666,95.0398767 1307.08105,94.9594727 C1306.89551,94.8790686 1306.73315,94.7692878 1306.59399,94.630127 C1306.45483,94.4909661 1306.34505,94.3286142 1306.26465,94.1430664 C1306.18424,93.9575186 1306.14404,93.7565115 1306.14404,93.5400391 L1306.14404,93.5400391 Z M1311.18164,96.1469727 L1313.74219,96.1469727 L1313.74219,97.0004883 C1313.87826,96.8644199 1314.03133,96.7329922 1314.20142,96.6062012 C1314.3715,96.4794102 1314.55859,96.3680832 1314.7627,96.2722168 C1314.9668,96.1763504 1315.19409,96.09904 1315.44458,96.0402832 C1315.69507,95.9815264 1315.97184,95.9521484 1316.2749,95.9521484 C1316.81299,95.9521484 1317.29541,96.0402823 1317.72217,96.2165527 C1318.14893,96.3928231 1318.50919,96.6355779 1318.80298,96.9448242 C1319.09676,97.2540706 1319.32096,97.6158833 1319.47559,98.0302734 C1319.63021,98.4446635 1319.70752,98.893064 1319.70752,99.3754883 L1319.70752,106.083008 L1317.14697,106.083008 L1317.14697,100.303223 C1317.14697,99.9506818 1317.10677,99.6522636 1317.02637,99.407959 C1316.94596,99.1636544 1316.83618,98.9657397 1316.69702,98.814209 C1316.55786,98.6626783 1316.39396,98.5513513 1316.20532,98.4802246 C1316.01668,98.409098 1315.81104,98.3735352 1315.58838,98.3735352 C1315.32861,98.3735352 1315.08586,98.4199214 1314.86011,98.5126953 C1314.63436,98.6054692 1314.43799,98.7461742 1314.271,98.9348145 C1314.104,99.1234547 1313.97412,99.3600246 1313.88135,99.6445312 C1313.78857,99.9290379 1313.74219,100.263019 1313.74219,100.646484 L1313.74219,106.083008 L1311.18164,106.083008 L1311.18164,96.1469727 Z M1327.88086,104.320312 C1327.65202,104.598634 1327.33195,104.819742 1326.92065,104.983643 C1326.50936,105.147543 1326.0625,105.229492 1325.58008,105.229492 C1324.91211,105.229492 1324.31836,105.11198 1323.79883,104.876953 C1323.27929,104.641926 1322.84172,104.318768 1322.48608,103.907471 C1322.13045,103.496173 1321.85832,103.009117 1321.66968,102.446289 C1321.48104,101.883461 1321.38672,101.264977 1321.38672,100.59082 C1321.38672,99.9352181 1321.48104,99.3213733 1321.66968,98.7492676 C1321.85832,98.1771619 1322.13045,97.6854676 1322.48608,97.2741699 C1322.84172,96.8628723 1323.27929,96.5397147 1323.79883,96.3046875 C1324.31836,96.0696603 1324.91211,95.9521484 1325.58008,95.9521484 C1326.0625,95.9521484 1326.50936,96.0356437 1326.92065,96.2026367 C1327.33195,96.3696297 1327.65202,96.5922838 1327.88086,96.8706055 L1327.88086,96.1469727 L1330.45068,96.1469727 L1330.45068,105.990234 C1330.45068,106.596357 1330.33626,107.117429 1330.10742,107.553467 C1329.87858,107.989504 1329.5647,108.346678 1329.16577,108.625 C1328.76684,108.903322 1328.30453,109.105875 1327.77881,109.232666 C1327.25309,109.359457 1326.69336,109.422852 1326.09961,109.422852 C1325.37597,109.422852 1324.62142,109.33781 1323.83594,109.167725 C1323.05045,108.997639 1322.37321,108.785809 1321.8042,108.532227 L1322.52783,106.463379 C1322.70101,106.537598 1322.91439,106.619547 1323.16797,106.709229 C1323.42155,106.79891 1323.69368,106.877767 1323.98438,106.945801 C1324.27507,107.013835 1324.57967,107.071045 1324.89819,107.117432 C1325.21672,107.163819 1325.5275,107.187012 1325.83057,107.187012 C1326.09652,107.187012 1326.35319,107.160726 1326.60059,107.108154 C1326.84798,107.055582 1327.066,106.968995 1327.25464,106.848389 C1327.44328,106.727783 1327.59481,106.570069 1327.70923,106.375244 C1327.82365,106.180419 1327.88086,105.931479 1327.88086,105.628418 L1327.88086,104.320312 Z M1324.02148,100.62793 C1324.02148,100.955731 1324.05705,101.263426 1324.12817,101.551025 C1324.1993,101.838624 1324.31372,102.082925 1324.47144,102.283936 C1324.62915,102.484946 1324.8317,102.642659 1325.0791,102.75708 C1325.3265,102.871501 1325.62646,102.928711 1325.979,102.928711 C1326.6779,102.928711 1327.17578,102.707603 1327.47266,102.265381 C1327.76953,101.823159 1327.91797,101.277347 1327.91797,100.62793 L1327.91797,100.553711 C1327.91797,100.22591 1327.88395,99.9197605 1327.81592,99.6352539 C1327.74788,99.3507473 1327.63656,99.1064463 1327.48193,98.9023438 C1327.32731,98.6982412 1327.12785,98.5389817 1326.88354,98.4245605 C1326.63924,98.3101394 1326.33773,98.2529297 1325.979,98.2529297 C1325.28629,98.2529297 1324.78687,98.4724913 1324.48071,98.9116211 C1324.17456,99.3507509 1324.02148,99.8981087 1324.02148,100.553711 L1324.02148,100.62793 Z M1347.69727,99.4311523 C1347.69727,100.426926 1347.56275,101.33455 1347.2937,102.154053 C1347.02466,102.973556 1346.62264,103.673988 1346.08765,104.255371 C1345.55265,104.836754 1344.88314,105.286701 1344.0791,105.605225 C1343.27506,105.923748 1342.33497,106.083008 1341.25879,106.083008 L1336.36035,106.083008 L1336.36035,92.7792969 L1341.25879,92.7792969 C1342.33497,92.7792969 1343.27506,92.9385564 1344.0791,93.2570801 C1344.88314,93.5756038 1345.55265,94.0255505 1346.08765,94.6069336 C1346.62264,95.1883167 1347.02466,95.8887492 1347.2937,96.708252 C1347.56275,97.5277547 1347.69727,98.4353791 1347.69727,99.4311523 L1347.69727,99.4311523 Z M1344.90479,99.1713867 C1344.90479,98.6085584 1344.83521,98.0843937 1344.69604,97.598877 C1344.55688,97.1133602 1344.33423,96.6912453 1344.02808,96.3325195 C1343.72192,95.9737938 1343.32455,95.6908376 1342.83594,95.4836426 C1342.34733,95.2764475 1341.75668,95.1728516 1341.06396,95.1728516 L1339.05078,95.1728516 L1339.05078,103.689453 L1341.06396,103.689453 C1341.75049,103.689453 1342.33805,103.585857 1342.82666,103.378662 C1343.31527,103.171467 1343.71264,102.886965 1344.0188,102.525146 C1344.32495,102.163328 1344.54915,101.738121 1344.69141,101.249512 C1344.83366,100.760903 1344.90479,100.238284 1344.90479,99.6816406 L1344.90479,99.1713867 Z M1351.72363,102.000977 C1351.76693,102.297853 1351.86125,102.569986 1352.00659,102.817383 C1352.15194,103.06478 1352.33594,103.27661 1352.55859,103.452881 C1352.78125,103.629151 1353.03792,103.766764 1353.32861,103.865723 C1353.6193,103.964681 1353.92855,104.01416 1354.25635,104.01416 C1354.63363,104.01416 1355.04183,103.941488 1355.48096,103.796143 C1355.92009,103.650797 1356.3221,103.438966 1356.68701,103.160645 L1357.9209,104.960449 C1357.45703,105.3501 1356.88802,105.665526 1356.21387,105.906738 C1355.53971,106.14795 1354.82227,106.268555 1354.06152,106.268555 C1353.375,106.268555 1352.72868,106.151043 1352.12256,105.916016 C1351.51644,105.680988 1350.98609,105.340823 1350.53149,104.895508 C1350.0769,104.450193 1349.71818,103.90902 1349.45532,103.271973 C1349.19246,102.634925 1349.06104,101.917484 1349.06104,101.119629 C1349.06104,100.389808 1349.177,99.7094758 1349.40894,99.0786133 C1349.64087,98.4477508 1349.96557,97.9003929 1350.38306,97.4365234 C1350.80054,96.9726539 1351.29996,96.6092949 1351.88135,96.3464355 C1352.46273,96.0835762 1353.10595,95.9521484 1353.81104,95.9521484 C1354.46664,95.9521484 1355.07584,96.0712065 1355.63867,96.3093262 C1356.2015,96.5474459 1356.6901,96.8814269 1357.10449,97.3112793 C1357.51888,97.7411317 1357.84359,98.2560191 1358.07861,98.855957 C1358.31364,99.4558949 1358.43115,100.117672 1358.43115,100.841309 L1358.43115,102.000977 L1351.72363,102.000977 Z M1353.80176,98.1787109 C1353.2513,98.1787109 1352.78589,98.3627097 1352.40552,98.7307129 C1352.02514,99.098716 1351.80404,99.5424779 1351.74219,100.062012 L1355.75,100.062012 C1355.73763,99.5362929 1355.5459,99.0909849 1355.1748,98.7260742 C1354.80371,98.3611635 1354.34603,98.1787109 1353.80176,98.1787109 L1353.80176,98.1787109 Z M1362.18848,101.166016 C1362.18848,101.487632 1362.23177,101.810789 1362.31836,102.135498 C1362.40495,102.460207 1362.53792,102.75244 1362.71729,103.012207 C1362.89665,103.271974 1363.12703,103.483805 1363.40845,103.647705 C1363.68986,103.811606 1364.02539,103.893555 1364.41504,103.893555 C1364.66862,103.893555 1364.89901,103.859538 1365.1062,103.791504 C1365.3134,103.72347 1365.49894,103.629151 1365.66284,103.508545 C1365.82674,103.387939 1365.97209,103.245688 1366.09888,103.081787 C1366.22567,102.917887 1366.33545,102.740073 1366.42822,102.54834 L1368.67334,103.708008 C1368.51253,104.097658 1368.29142,104.450194 1368.01001,104.765625 C1367.7286,105.081056 1367.40235,105.350097 1367.03125,105.572754 C1366.66015,105.795411 1366.24886,105.96704 1365.79736,106.087646 C1365.34586,106.208253 1364.86654,106.268555 1364.35938,106.268555 C1363.66048,106.268555 1363.01726,106.137127 1362.42969,105.874268 C1361.84212,105.611408 1361.33496,105.251142 1360.9082,104.793457 C1360.48144,104.335772 1360.14746,103.793053 1359.90625,103.165283 C1359.66504,102.537513 1359.54443,101.855635 1359.54443,101.119629 C1359.54443,100.389808 1359.66504,99.7094758 1359.90625,99.0786133 C1360.14746,98.4477508 1360.48144,97.9003929 1360.9082,97.4365234 C1361.33496,96.9726539 1361.84212,96.6092949 1362.42969,96.3464355 C1363.01726,96.0835762 1363.66048,95.9521484 1364.35938,95.9521484 C1364.86654,95.9521484 1365.34586,96.0124506 1365.79736,96.1330566 C1366.24886,96.2536627 1366.66015,96.4268381 1367.03125,96.6525879 C1367.40235,96.8783377 1367.7286,97.1489242 1368.01001,97.4643555 C1368.29142,97.7797867 1368.51253,98.1323223 1368.67334,98.5219727 L1366.42822,99.6816406 C1366.33545,99.4899079 1366.22567,99.3120939 1366.09888,99.1481934 C1365.97209,98.9842928 1365.82674,98.8420416 1365.66284,98.7214355 C1365.49894,98.6008295 1365.3134,98.5049645 1365.1062,98.4338379 C1364.89901,98.3627112 1364.66862,98.3271484 1364.41504,98.3271484 C1364.02539,98.3271484 1363.68986,98.4090975 1363.40845,98.572998 C1363.12703,98.7368986 1362.89665,98.9502754 1362.71729,99.2131348 C1362.53792,99.4759942 1362.40495,99.77132 1362.31836,100.099121 C1362.23177,100.426922 1362.18848,100.754718 1362.18848,101.08252 L1362.18848,101.166016 Z M1372.81104,106.083008 L1370.25049,106.083008 L1370.25049,96.1469727 L1372.81104,96.1469727 L1372.81104,106.083008 Z M1369.98145,93.5400391 C1369.98145,93.3297516 1370.02165,93.1302907 1370.10205,92.9416504 C1370.18245,92.7530101 1370.29224,92.589112 1370.4314,92.4499512 C1370.57056,92.3107903 1370.73291,92.2010095 1370.91846,92.1206055 C1371.104,92.0402014 1371.30501,92 1371.52148,92 C1371.73177,92 1371.93123,92.0402014 1372.11987,92.1206055 C1372.30851,92.2010095 1372.47241,92.3107903 1372.61157,92.4499512 C1372.75073,92.589112 1372.86051,92.7530101 1372.94092,92.9416504 C1373.02132,93.1302907 1373.06152,93.3297516 1373.06152,93.5400391 C1373.06152,93.7565115 1373.02132,93.9575186 1372.94092,94.1430664 C1372.86051,94.3286142 1372.75073,94.4909661 1372.61157,94.630127 C1372.47241,94.7692878 1372.30851,94.8790686 1372.11987,94.9594727 C1371.93123,95.0398767 1371.73177,95.0800781 1371.52148,95.0800781 C1371.30501,95.0800781 1371.104,95.0398767 1370.91846,94.9594727 C1370.73291,94.8790686 1370.57056,94.7692878 1370.4314,94.630127 C1370.29224,94.4909661 1370.18245,94.3286142 1370.10205,94.1430664 C1370.02165,93.9575186 1369.98145,93.7565115 1369.98145,93.5400391 L1369.98145,93.5400391 Z M1375.72412,102.910156 C1376.08903,103.237957 1376.52506,103.519367 1377.03223,103.754395 C1377.53939,103.989422 1378.05273,104.106934 1378.57227,104.106934 C1378.94955,104.106934 1379.24642,104.034262 1379.46289,103.888916 C1379.67936,103.74357 1379.7876,103.556479 1379.7876,103.327637 C1379.7876,102.937986 1379.37012,102.634929 1378.53516,102.418457 L1377.81152,102.223633 C1377.4528,102.137044 1377.09098,102.017986 1376.72607,101.866455 C1376.36116,101.714924 1376.02564,101.515463 1375.71948,101.268066 C1375.41333,101.020669 1375.16594,100.719159 1374.97729,100.363525 C1374.78865,100.007892 1374.69434,99.5703151 1374.69434,99.0507812 C1374.69434,98.6363912 1374.78556,98.242108 1374.96802,97.8679199 C1375.15047,97.4937319 1375.41024,97.1643894 1375.74731,96.8798828 C1376.08439,96.5953762 1376.49414,96.3696297 1376.97656,96.2026367 C1377.45899,96.0356437 1377.99707,95.9521484 1378.59082,95.9521484 C1379.43816,95.9521484 1380.19425,96.0851224 1380.85913,96.3510742 C1381.52401,96.6170261 1382.04818,96.9169905 1382.43164,97.2509766 L1381.0957,98.9580078 C1380.78027,98.7291655 1380.40764,98.532797 1379.97778,98.3688965 C1379.54793,98.2049959 1379.11654,98.1230469 1378.68359,98.1230469 C1378.28157,98.1230469 1377.96924,98.1957187 1377.74658,98.3410645 C1377.52392,98.4864102 1377.4126,98.6611318 1377.4126,98.8652344 C1377.4126,99.0817068 1377.51001,99.2564284 1377.70483,99.3894043 C1377.89966,99.5223802 1378.18262,99.6383459 1378.55371,99.7373047 L1379.62988,100.043457 C1380.65658,100.334149 1381.39258,100.726886 1381.83789,101.22168 C1382.28321,101.716474 1382.50586,102.341142 1382.50586,103.095703 C1382.50586,103.516278 1382.41927,103.916746 1382.24609,104.297119 C1382.07292,104.677492 1381.81934,105.016112 1381.48535,105.312988 C1381.15137,105.609865 1380.73698,105.843342 1380.24219,106.013428 C1379.74739,106.183513 1379.18457,106.268555 1378.55371,106.268555 C1378.07129,106.268555 1377.61825,106.225261 1377.19458,106.138672 C1376.77091,106.052083 1376.37818,105.933025 1376.01636,105.781494 C1375.65454,105.629963 1375.32829,105.458334 1375.0376,105.266602 C1374.74691,105.074869 1374.49951,104.883139 1374.29541,104.691406 L1375.72412,102.910156 Z M1386.71777,106.083008 L1384.15723,106.083008 L1384.15723,96.1469727 L1386.71777,96.1469727 L1386.71777,106.083008 Z M1383.88818,93.5400391 C1383.88818,93.3297516 1383.92839,93.1302907 1384.00879,92.9416504 C1384.08919,92.7530101 1384.19897,92.589112 1384.33813,92.4499512 C1384.4773,92.3107903 1384.63965,92.2010095 1384.8252,92.1206055 C1385.01074,92.0402014 1385.21175,92 1385.42822,92 C1385.63851,92 1385.83797,92.0402014 1386.02661,92.1206055 C1386.21525,92.2010095 1386.37915,92.3107903 1386.51831,92.4499512 C1386.65747,92.589112 1386.76725,92.7530101 1386.84766,92.9416504 C1386.92806,93.1302907 1386.96826,93.3297516 1386.96826,93.5400391 C1386.96826,93.7565115 1386.92806,93.9575186 1386.84766,94.1430664 C1386.76725,94.3286142 1386.65747,94.4909661 1386.51831,94.630127 C1386.37915,94.7692878 1386.21525,94.8790686 1386.02661,94.9594727 C1385.83797,95.0398767 1385.63851,95.0800781 1385.42822,95.0800781 C1385.21175,95.0800781 1385.01074,95.0398767 1384.8252,94.9594727 C1384.63965,94.8790686 1384.4773,94.7692878 1384.33813,94.630127 C1384.19897,94.4909661 1384.08919,94.3286142 1384.00879,94.1430664 C1383.92839,93.9575186 1383.88818,93.7565115 1383.88818,93.5400391 L1383.88818,93.5400391 Z M1393.29541,95.9521484 C1394.03142,95.9521484 1394.69938,96.0835762 1395.29932,96.3464355 C1395.89925,96.6092949 1396.4126,96.9726539 1396.83936,97.4365234 C1397.26612,97.9003929 1397.59546,98.4477508 1397.82739,99.0786133 C1398.05933,99.7094758 1398.17529,100.389808 1398.17529,101.119629 C1398.17529,101.855635 1398.05778,102.537513 1397.82275,103.165283 C1397.58773,103.793053 1397.25684,104.335772 1396.83008,104.793457 C1396.40332,105.251142 1395.88998,105.611408 1395.29004,105.874268 C1394.6901,106.137127 1394.02523,106.268555 1393.29541,106.268555 C1392.5594,106.268555 1391.89144,106.137127 1391.2915,105.874268 C1390.69157,105.611408 1390.17822,105.251142 1389.75146,104.793457 C1389.3247,104.335772 1388.99382,103.793053 1388.75879,103.165283 C1388.52376,102.537513 1388.40625,101.855635 1388.40625,101.119629 C1388.40625,100.389808 1388.52222,99.7094758 1388.75415,99.0786133 C1388.98609,98.4477508 1389.31543,97.9003929 1389.74219,97.4365234 C1390.16895,96.9726539 1390.68383,96.6092949 1391.28687,96.3464355 C1391.8899,96.0835762 1392.5594,95.9521484 1393.29541,95.9521484 L1393.29541,95.9521484 Z M1393.29541,103.893555 C1393.66032,103.893555 1393.98348,103.825522 1394.26489,103.689453 C1394.54631,103.553385 1394.78288,103.364747 1394.97461,103.123535 C1395.16634,102.882323 1395.31169,102.593182 1395.41064,102.256104 C1395.5096,101.919025 1395.55908,101.549481 1395.55908,101.147461 L1395.55908,101.08252 C1395.55908,100.680499 1395.5096,100.310955 1395.41064,99.973877 C1395.31169,99.6367984 1395.16634,99.3461112 1394.97461,99.1018066 C1394.78288,98.857502 1394.54631,98.6673184 1394.26489,98.53125 C1393.98348,98.3951816 1393.66032,98.3271484 1393.29541,98.3271484 C1392.9305,98.3271484 1392.60734,98.3951816 1392.32593,98.53125 C1392.04451,98.6673184 1391.80794,98.857502 1391.61621,99.1018066 C1391.42448,99.3461112 1391.27913,99.6367984 1391.18018,99.973877 C1391.08122,100.310955 1391.03174,100.680499 1391.03174,101.08252 L1391.03174,101.147461 C1391.03174,101.549481 1391.08122,101.919025 1391.18018,102.256104 C1391.27913,102.593182 1391.42448,102.882323 1391.61621,103.123535 C1391.80794,103.364747 1392.04451,103.553385 1392.32593,103.689453 C1392.60734,103.825522 1392.9305,103.893555 1393.29541,103.893555 L1393.29541,103.893555 Z M1399.87305,96.1469727 L1402.43359,96.1469727 L1402.43359,97.0004883 C1402.56966,96.8644199 1402.72274,96.7329922 1402.89282,96.6062012 C1403.06291,96.4794102 1403.25,96.3680832 1403.4541,96.2722168 C1403.6582,96.1763504 1403.8855,96.09904 1404.13599,96.0402832 C1404.38648,95.9815264 1404.66325,95.9521484 1404.96631,95.9521484 C1405.5044,95.9521484 1405.98681,96.0402823 1406.41357,96.2165527 C1406.84033,96.3928231 1407.2006,96.6355779 1407.49438,96.9448242 C1407.78817,97.2540706 1408.01237,97.6158833 1408.16699,98.0302734 C1408.32162,98.4446635 1408.39893,98.893064 1408.39893,99.3754883 L1408.39893,106.083008 L1405.83838,106.083008 L1405.83838,100.303223 C1405.83838,99.9506818 1405.79818,99.6522636 1405.71777,99.407959 C1405.63737,99.1636544 1405.52759,98.9657397 1405.38843,98.814209 C1405.24927,98.6626783 1405.08537,98.5513513 1404.89673,98.4802246 C1404.70809,98.409098 1404.50244,98.3735352 1404.27979,98.3735352 C1404.02002,98.3735352 1403.77726,98.4199214 1403.55151,98.5126953 C1403.32576,98.6054692 1403.1294,98.7461742 1402.9624,98.9348145 C1402.79541,99.1234547 1402.66553,99.3600246 1402.57275,99.6445312 C1402.47998,99.9290379 1402.43359,100.263019 1402.43359,100.646484 L1402.43359,106.083008 L1399.87305,106.083008 L1399.87305,96.1469727 Z" id="Awaiting-Decision" fill="#005EA5"></path>
            <path d="M1615,98.8374023 C1615,97.8849236 1615.1438,96.9927613 1615.4314,96.1608887 C1615.719,95.329016 1616.13183,94.6053904 1616.66992,93.9899902 C1617.20801,93.37459 1617.86051,92.8890806 1618.62744,92.5334473 C1619.39437,92.177814 1620.25716,92 1621.21582,92 C1621.90853,92 1622.55021,92.0896801 1623.14087,92.269043 C1623.73153,92.4484058 1624.26343,92.701984 1624.73657,93.0297852 C1625.20972,93.3575863 1625.61637,93.7534156 1625.95654,94.2172852 C1626.29671,94.6811547 1626.56575,95.2006807 1626.76367,95.7758789 L1624.17529,96.6386719 C1624.10107,96.3912748 1623.98356,96.1361504 1623.82275,95.873291 C1623.66195,95.6104316 1623.45785,95.3723155 1623.21045,95.1589355 C1622.96305,94.9455556 1622.67391,94.770834 1622.34302,94.6347656 C1622.01212,94.4986972 1621.64258,94.4306641 1621.23438,94.4306641 C1620.62207,94.4306641 1620.0979,94.555907 1619.66187,94.8063965 C1619.22583,95.056886 1618.86865,95.3877746 1618.59033,95.7990723 C1618.31201,96.2103699 1618.10636,96.6773249 1617.97339,97.1999512 C1617.84041,97.7225775 1617.77393,98.2560194 1617.77393,98.800293 L1617.77393,98.8745117 C1617.77393,99.4249702 1617.84041,99.9615045 1617.97339,100.484131 C1618.10636,101.006757 1618.31201,101.472166 1618.59033,101.880371 C1618.86865,102.288576 1619.22583,102.617919 1619.66187,102.868408 C1620.0979,103.118898 1620.62207,103.244141 1621.23438,103.244141 C1621.64258,103.244141 1622.01212,103.176107 1622.34302,103.040039 C1622.67391,102.903971 1622.96305,102.729249 1623.21045,102.515869 C1623.45785,102.302489 1623.66195,102.065919 1623.82275,101.806152 C1623.98356,101.546385 1624.10107,101.292807 1624.17529,101.04541 L1626.76367,101.898926 C1626.56575,102.474124 1626.29671,102.99365 1625.95654,103.45752 C1625.61637,103.921389 1625.20972,104.318765 1624.73657,104.649658 C1624.26343,104.980552 1623.73153,105.23413 1623.14087,105.4104 C1622.55021,105.586671 1621.90853,105.674805 1621.21582,105.674805 C1620.25716,105.674805 1619.39437,105.498537 1618.62744,105.145996 C1617.86051,104.793455 1617.20801,104.307946 1616.66992,103.689453 C1616.13183,103.07096 1615.719,102.347335 1615.4314,101.518555 C1615.1438,100.689775 1615,99.796066 1615,98.8374023 L1615,98.8374023 Z M1628.37793,92.1855469 L1630.93848,92.1855469 L1630.93848,102.789551 C1630.93848,102.999838 1630.99878,103.160644 1631.11938,103.271973 C1631.23999,103.383301 1631.43327,103.438965 1631.69922,103.438965 C1631.82292,103.438965 1631.92961,103.431234 1632.01929,103.415771 C1632.10897,103.400309 1632.22493,103.377116 1632.36719,103.346191 L1632.57129,105.526367 C1632.39811,105.551107 1632.21257,105.575846 1632.01465,105.600586 C1631.84766,105.619141 1631.65438,105.636149 1631.43481,105.651611 C1631.21525,105.667074 1630.98796,105.674805 1630.75293,105.674805 C1630.38802,105.674805 1630.06022,105.628418 1629.76953,105.535645 C1629.47884,105.442871 1629.2299,105.305258 1629.02271,105.122803 C1628.81551,104.940347 1628.65625,104.713055 1628.54492,104.440918 C1628.43359,104.168781 1628.37793,103.853355 1628.37793,103.494629 L1628.37793,92.1855469 Z M1638.35107,95.3583984 C1639.08708,95.3583984 1639.75504,95.4898262 1640.35498,95.7526855 C1640.95492,96.0155449 1641.46826,96.3789039 1641.89502,96.8427734 C1642.32178,97.3066429 1642.65112,97.8540008 1642.88306,98.4848633 C1643.11499,99.1157258 1643.23096,99.7960575 1643.23096,100.525879 C1643.23096,101.261885 1643.11345,101.943763 1642.87842,102.571533 C1642.64339,103.199303 1642.3125,103.742022 1641.88574,104.199707 C1641.45898,104.657392 1640.94564,105.017658 1640.3457,105.280518 C1639.74577,105.543377 1639.0809,105.674805 1638.35107,105.674805 C1637.61507,105.674805 1636.94711,105.543377 1636.34717,105.280518 C1635.74723,105.017658 1635.23389,104.657392 1634.80713,104.199707 C1634.38037,103.742022 1634.04948,103.199303 1633.81445,102.571533 C1633.57943,101.943763 1633.46191,101.261885 1633.46191,100.525879 C1633.46191,99.7960575 1633.57788,99.1157258 1633.80981,98.4848633 C1634.04175,97.8540008 1634.37109,97.3066429 1634.79785,96.8427734 C1635.22461,96.3789039 1635.7395,96.0155449 1636.34253,95.7526855 C1636.94556,95.4898262 1637.61507,95.3583984 1638.35107,95.3583984 L1638.35107,95.3583984 Z M1638.35107,103.299805 C1638.71598,103.299805 1639.03914,103.231772 1639.32056,103.095703 C1639.60197,102.959635 1639.83854,102.770997 1640.03027,102.529785 C1640.22201,102.288573 1640.36735,101.999432 1640.46631,101.662354 C1640.56527,101.325275 1640.61475,100.955731 1640.61475,100.553711 L1640.61475,100.48877 C1640.61475,100.086749 1640.56527,99.7172055 1640.46631,99.380127 C1640.36735,99.0430484 1640.22201,98.7523612 1640.03027,98.5080566 C1639.83854,98.263752 1639.60197,98.0735684 1639.32056,97.9375 C1639.03914,97.8014316 1638.71598,97.7333984 1638.35107,97.7333984 C1637.98616,97.7333984 1637.66301,97.8014316 1637.38159,97.9375 C1637.10018,98.0735684 1636.86361,98.263752 1636.67188,98.5080566 C1636.48014,98.7523612 1636.3348,99.0430484 1636.23584,99.380127 C1636.13688,99.7172055 1636.0874,100.086749 1636.0874,100.48877 L1636.0874,100.553711 C1636.0874,100.955731 1636.13688,101.325275 1636.23584,101.662354 C1636.3348,101.999432 1636.48014,102.288573 1636.67188,102.529785 C1636.86361,102.770997 1637.10018,102.959635 1637.38159,103.095703 C1637.66301,103.231772 1637.98616,103.299805 1638.35107,103.299805 L1638.35107,103.299805 Z M1645.63379,102.316406 C1645.9987,102.644207 1646.43473,102.925617 1646.94189,103.160645 C1647.44906,103.395672 1647.9624,103.513184 1648.48193,103.513184 C1648.85921,103.513184 1649.15609,103.440512 1649.37256,103.295166 C1649.58903,103.14982 1649.69727,102.962729 1649.69727,102.733887 C1649.69727,102.344236 1649.27979,102.041179 1648.44482,101.824707 L1647.72119,101.629883 C1647.36247,101.543294 1647.00065,101.424236 1646.63574,101.272705 C1646.27083,101.121174 1645.9353,100.921713 1645.62915,100.674316 C1645.323,100.426919 1645.0756,100.125409 1644.88696,99.7697754 C1644.69832,99.4141421 1644.604,98.9765651 1644.604,98.4570312 C1644.604,98.0426412 1644.69523,97.648358 1644.87769,97.2741699 C1645.06014,96.8999819 1645.3199,96.5706394 1645.65698,96.2861328 C1645.99406,96.0016262 1646.40381,95.7758797 1646.88623,95.6088867 C1647.36865,95.4418937 1647.90674,95.3583984 1648.50049,95.3583984 C1649.34782,95.3583984 1650.10392,95.4913724 1650.7688,95.7573242 C1651.43368,96.0232761 1651.95784,96.3232405 1652.34131,96.6572266 L1651.00537,98.3642578 C1650.68994,98.1354155 1650.3173,97.939047 1649.88745,97.7751465 C1649.4576,97.6112459 1649.02621,97.5292969 1648.59326,97.5292969 C1648.19124,97.5292969 1647.87891,97.6019687 1647.65625,97.7473145 C1647.43359,97.8926602 1647.32227,98.0673818 1647.32227,98.2714844 C1647.32227,98.4879568 1647.41968,98.6626784 1647.6145,98.7956543 C1647.80933,98.9286302 1648.09228,99.0445959 1648.46338,99.1435547 L1649.53955,99.449707 C1650.56625,99.7403986 1651.30224,100.133136 1651.74756,100.62793 C1652.19287,101.122724 1652.41553,101.747392 1652.41553,102.501953 C1652.41553,102.922528 1652.32894,103.322996 1652.15576,103.703369 C1651.98258,104.083742 1651.72901,104.422362 1651.39502,104.719238 C1651.06103,105.016115 1650.64665,105.249592 1650.15186,105.419678 C1649.65706,105.589763 1649.09424,105.674805 1648.46338,105.674805 C1647.98095,105.674805 1647.52792,105.631511 1647.10425,105.544922 C1646.68058,105.458333 1646.28784,105.339275 1645.92603,105.187744 C1645.56421,105.036213 1645.23796,104.864584 1644.94727,104.672852 C1644.65657,104.481119 1644.40918,104.289389 1644.20508,104.097656 L1645.63379,102.316406 Z M1656.20996,101.407227 C1656.25326,101.704103 1656.34757,101.976236 1656.49292,102.223633 C1656.63827,102.47103 1656.82226,102.68286 1657.04492,102.859131 C1657.26758,103.035401 1657.52425,103.173014 1657.81494,103.271973 C1658.10563,103.370931 1658.41487,103.42041 1658.74268,103.42041 C1659.11996,103.42041 1659.52816,103.347738 1659.96729,103.202393 C1660.40641,103.057047 1660.80843,102.845216 1661.17334,102.566895 L1662.40723,104.366699 C1661.94336,104.75635 1661.37435,105.071776 1660.7002,105.312988 C1660.02604,105.5542 1659.3086,105.674805 1658.54785,105.674805 C1657.86132,105.674805 1657.21501,105.557293 1656.60889,105.322266 C1656.00276,105.087238 1655.47241,104.747073 1655.01782,104.301758 C1654.56323,103.856443 1654.20451,103.31527 1653.94165,102.678223 C1653.67879,102.041175 1653.54736,101.323734 1653.54736,100.525879 C1653.54736,99.7960575 1653.66333,99.1157258 1653.89526,98.4848633 C1654.1272,97.8540008 1654.4519,97.3066429 1654.86938,96.8427734 C1655.28687,96.3789039 1655.78629,96.0155449 1656.36768,95.7526855 C1656.94906,95.4898262 1657.59228,95.3583984 1658.29736,95.3583984 C1658.95297,95.3583984 1659.56217,95.4774565 1660.125,95.7155762 C1660.68783,95.9536959 1661.17643,96.2876769 1661.59082,96.7175293 C1662.00521,97.1473817 1662.32991,97.6622691 1662.56494,98.262207 C1662.79997,98.8621449 1662.91748,99.5239222 1662.91748,100.247559 L1662.91748,101.407227 L1656.20996,101.407227 Z M1658.28809,97.5849609 C1657.73763,97.5849609 1657.27222,97.7689597 1656.89185,98.1369629 C1656.51147,98.504966 1656.29036,98.9487279 1656.22852,99.4682617 L1660.23633,99.4682617 C1660.22396,98.9425429 1660.03223,98.4972349 1659.66113,98.1323242 C1659.29004,97.7674135 1658.83236,97.5849609 1658.28809,97.5849609 L1658.28809,97.5849609 Z M1670.93311,105.489258 L1670.93311,104.635742 C1670.79704,104.78418 1670.64705,104.921793 1670.48315,105.048584 C1670.31925,105.175375 1670.1368,105.285156 1669.93579,105.37793 C1669.73478,105.470704 1669.51522,105.543375 1669.2771,105.595947 C1669.03898,105.648519 1668.77458,105.674805 1668.48389,105.674805 C1667.82828,105.674805 1667.22836,105.544923 1666.68408,105.285156 C1666.13981,105.025389 1665.67285,104.666669 1665.2832,104.208984 C1664.89355,103.7513 1664.59204,103.207034 1664.37866,102.576172 C1664.16528,101.945309 1664.05859,101.261885 1664.05859,100.525879 C1664.05859,99.7898726 1664.16374,99.1064485 1664.37402,98.4755859 C1664.58431,97.8447234 1664.87964,97.2989118 1665.26001,96.8381348 C1665.64038,96.3773577 1666.09961,96.0155449 1666.6377,95.7526855 C1667.17578,95.4898262 1667.77262,95.3583984 1668.42822,95.3583984 C1669.00961,95.3583984 1669.50285,95.458902 1669.90796,95.6599121 C1670.31307,95.8609222 1670.65478,96.1098618 1670.93311,96.4067383 L1670.93311,92.1855469 L1673.49365,92.1855469 L1673.49365,105.489258 L1670.93311,105.489258 Z M1671.00732,99.5981445 C1671.00732,99.3321927 1670.95939,99.0847993 1670.86353,98.855957 C1670.76766,98.6271147 1670.63005,98.4292001 1670.45068,98.262207 C1670.27132,98.095214 1670.0564,97.9653325 1669.80591,97.8725586 C1669.55542,97.7797847 1669.27246,97.7333984 1668.95703,97.7333984 C1668.59212,97.7333984 1668.26896,97.8014316 1667.98755,97.9375 C1667.70613,98.0735684 1667.46956,98.263752 1667.27783,98.5080566 C1667.0861,98.7523612 1666.94076,99.0415022 1666.8418,99.3754883 C1666.74284,99.7094743 1666.69336,100.07438 1666.69336,100.470215 L1666.69336,100.59082 C1666.69336,100.986656 1666.74284,101.350015 1666.8418,101.680908 C1666.94076,102.011802 1667.0861,102.29785 1667.27783,102.539062 C1667.46956,102.780275 1667.70613,102.967366 1667.98755,103.100342 C1668.26896,103.233318 1668.59212,103.299805 1668.95703,103.299805 C1669.27246,103.299805 1669.55542,103.253418 1669.80591,103.160645 C1670.0564,103.067871 1670.27132,102.937989 1670.45068,102.770996 C1670.63005,102.604003 1670.76766,102.407635 1670.86353,102.181885 C1670.95939,101.956135 1671.00732,101.710288 1671.00732,101.444336 L1671.00732,99.5981445 Z" id="Closed" fill="#005EA5"></path>
        </g>
    </g>
</svg>