<?xml version="1.0" encoding="UTF-8" standalone="no"?>
<svg width="1200px" height="137px" viewBox="0 0 1200 137" version="1.1" xmlns="http://www.w3.org/2000/svg" xmlns:xlink="http://www.w3.org/1999/xlink">
    <!-- Generator: Sketch 3.8.3 (29802) - http://www.bohemiancoding.com/sketch -->
    <title>timeline</title>
    <desc>Created with Sketch.</desc>
    <defs></defs>
    <g id="Page-1" stroke="none" stroke-width="1" fill="none" fill-rule="evenodd">
        <g id="timeline">
            <rect id="Rectangle-1" fill="#D53880" x="31.630972" y="61.2833608" width="203" height="9.4892916"></rect>
            <rect id="Rectangle-1-Copy" fill="#D53880" x="266" y="62" width="203" height="9.4892916"></rect>
            <rect id="Rectangle-1-Copy-2" fill="#D53880" x="497" y="62" width="203" height="9.4892916"></rect>
            <rect id="Rectangle-1-Copy-3" fill="#005EA5" x="730" y="62" width="203" height="9.4892916"></rect>
            <rect id="Rectangle-1-Copy-4" fill="#005EA5" x="961" y="62" width="208" height="9.4892916"></rect>
            <path d="M18.9785832,85.9571664 C29.4601653,85.9571664 37.9571664,77.4601653 37.9571664,66.9785832 C37.9571664,56.4970011 29.4601653,48 18.9785832,48 C8.49700112,48 0,56.4970011 0,66.9785832 C0,77.4601653 8.49700112,85.9571664 18.9785832,85.9571664 Z M18.9785832,76.4678748 C24.2193742,76.4678748 28.4678748,72.2193742 28.4678748,66.9785832 C28.4678748,61.7377922 24.2193742,57.4892916 18.9785832,57.4892916 C13.7377922,57.4892916 9.4892916,61.7377922 9.4892916,66.9785832 C9.4892916,72.2193742 13.7377922,76.4678748 18.9785832,76.4678748 Z" id="Combined-Shape" fill="#D53880"></path>
            <path d="M251.378583,85.9571664 C261.860165,85.9571664 270.357166,77.4601653 270.357166,66.9785832 C270.357166,56.4970011 261.860165,48 251.378583,48 C240.897001,48 232.4,56.4970011 232.4,66.9785832 C232.4,77.4601653 240.897001,85.9571664 251.378583,85.9571664 Z M251.378583,76.4678748 C256.619374,76.4678748 260.867875,72.2193742 260.867875,66.9785832 C260.867875,61.7377922 256.619374,57.4892916 251.378583,57.4892916 C246.137792,57.4892916 241.889292,61.7377922 241.889292,66.9785832 C241.889292,72.2193742 246.137792,76.4678748 251.378583,76.4678748 Z" id="Combined-Shape-Copy" fill="#D53880"></path>
            <path d="M483.778583,85.9571664 C494.260165,85.9571664 502.757166,77.4601653 502.757166,66.9785832 C502.757166,56.4970011 494.260165,48 483.778583,48 C473.297001,48 464.8,56.4970011 464.8,66.9785832 C464.8,77.4601653 473.297001,85.9571664 483.778583,85.9571664 Z M483.778583,76.4678748 C489.019374,76.4678748 493.267875,72.2193742 493.267875,66.9785832 C493.267875,61.7377922 489.019374,57.4892916 483.778583,57.4892916 C478.537792,57.4892916 474.289292,61.7377922 474.289292,66.9785832 C474.289292,72.2193742 478.537792,76.4678748 483.778583,76.4678748 Z" id="Combined-Shape-Copy-2" fill="#D53880"></path>
            <path d="M716.178583,85.9571664 C726.660165,85.9571664 735.157166,77.4601653 735.157166,66.9785832 C735.157166,56.4970011 726.660165,48 716.178583,48 C705.697001,48 697.2,56.4970011 697.2,66.9785832 C697.2,77.4601653 705.697001,85.9571664 716.178583,85.9571664 Z M716.178583,76.4678748 C721.419374,76.4678748 725.667875,72.2193742 725.667875,66.9785832 C725.667875,61.7377922 721.419374,57.4892916 716.178583,57.4892916 C710.937792,57.4892916 706.689292,61.7377922 706.689292,66.9785832 C706.689292,72.2193742 710.937792,76.4678748 716.178583,76.4678748 Z" id="Combined-Shape-Copy-3" fill="#D53880"></path>
            <path d="M948.578583,85.9571664 C959.060165,85.9571664 967.557166,77.4601653 967.557166,66.9785832 C967.557166,56.4970011 959.060165,48 948.578583,48 C938.097001,48 929.6,56.4970011 929.6,66.9785832 C929.6,77.4601653 938.097001,85.9571664 948.578583,85.9571664 Z M948.578583,76.4678748 C953.819374,76.4678748 958.067875,72.2193742 958.067875,66.9785832 C958.067875,61.7377922 953.819374,57.4892916 948.578583,57.4892916 C943.337792,57.4892916 939.089292,61.7377922 939.089292,66.9785832 C939.089292,72.2193742 943.337792,76.4678748 948.578583,76.4678748 Z" id="Combined-Shape-Copy-4" fill="#2E358B"></path>
            <path d="M1180.97858,85.9571664 C1191.46017,85.9571664 1199.95717,77.4601653 1199.95717,66.9785832 C1199.95717,56.4970011 1191.46017,48 1180.97858,48 C1170.497,48 1162,56.4970011 1162,66.9785832 C1162,77.4601653 1170.497,85.9571664 1180.97858,85.9571664 Z M1180.97858,76.4678748 C1186.21937,76.4678748 1190.46787,72.2193742 1190.46787,66.9785832 C1190.46787,61.7377922 1186.21937,57.4892916 1180.97858,57.4892916 C1175.73779,57.4892916 1171.48929,61.7377922 1171.48929,66.9785832 C1171.48929,72.2193742 1175.73779,76.4678748 1180.97858,76.4678748 Z" id="Combined-Shape-Copy-5" fill="#2E358B"></path>
            <path d="M619.080078,21.3945312 L623.044922,21.3945312 L623.044922,41 L619.080078,41 L619.080078,21.3945312 Z M626.722656,26.3574219 L630.496094,26.3574219 L630.496094,27.6152344 C630.696616,27.4147125 630.922199,27.2210296 631.172852,27.0341797 C631.423504,26.8473298 631.699217,26.6832689 632,26.5419922 C632.300783,26.4007154 632.63574,26.2867843 633.004883,26.2001953 C633.374025,26.1136063 633.781899,26.0703125 634.228516,26.0703125 C635.021488,26.0703125 635.732419,26.200194 636.361328,26.4599609 C636.990238,26.7197279 637.521157,27.0774717 637.954102,27.5332031 C638.387046,27.9889346 638.717447,28.5221324 638.945312,29.1328125 C639.173178,29.7434926 639.287109,30.4042933 639.287109,31.1152344 L639.287109,41 L635.513672,41 L635.513672,32.4824219 C635.513672,31.962888 635.454428,31.5231138 635.335938,31.1630859 C635.217447,30.8030581 635.055665,30.5113943 634.850586,30.2880859 C634.645507,30.0647775 634.403973,29.9007167 634.125977,29.7958984 C633.84798,29.6910802 633.544924,29.6386719 633.216797,29.6386719 C632.833982,29.6386719 632.476239,29.7070306 632.143555,29.84375 C631.810871,29.9804694 631.521486,30.1878241 631.275391,30.4658203 C631.029296,30.7438165 630.837891,31.0924458 630.701172,31.5117188 C630.564452,31.9309917 630.496094,32.4231743 630.496094,32.9882812 L630.496094,41 L626.722656,41 L626.722656,26.3574219 Z M656.882812,41 L656.882812,39.7421875 C656.682291,39.9609386 656.461264,40.163736 656.219727,40.3505859 C655.978189,40.5374358 655.709311,40.6992181 655.413086,40.8359375 C655.11686,40.9726569 654.793296,41.0797522 654.442383,41.1572266 C654.09147,41.2347009 653.701825,41.2734375 653.273438,41.2734375 C652.307287,41.2734375 651.423181,41.0820332 650.621094,40.6992188 C649.819006,40.3164043 649.130862,39.7877638 648.556641,39.1132812 C647.982419,38.4387987 647.538088,37.6367234 647.223633,36.7070312 C646.909178,35.7773391 646.751953,34.7701877 646.751953,33.6855469 C646.751953,32.600906 646.906899,31.5937546 647.216797,30.6640625 C647.526694,29.7343704 647.961911,28.9300164 648.522461,28.2509766 C649.083011,27.5719367 649.759762,27.0387389 650.552734,26.6513672 C651.345707,26.2639955 652.225256,26.0703125 653.191406,26.0703125 C654.048181,26.0703125 654.775062,26.218423 655.37207,26.5146484 C655.969079,26.8108739 656.472654,27.1777322 656.882812,27.6152344 L656.882812,21.3945312 L660.65625,21.3945312 L660.65625,41 L656.882812,41 Z M656.992188,32.3183594 C656.992188,31.9264303 656.92155,31.5618506 656.780273,31.2246094 C656.638997,30.8873681 656.436199,30.5957044 656.171875,30.3496094 C655.907551,30.1035144 655.590822,29.9121101 655.22168,29.7753906 C654.852537,29.6386712 654.435549,29.5703125 653.970703,29.5703125 C653.43294,29.5703125 652.956708,29.6705719 652.541992,29.8710938 C652.127277,30.0716156 651.778647,30.3518862 651.496094,30.7119141 C651.21354,31.0719419 650.99935,31.4980444 650.853516,31.9902344 C650.707682,32.4824243 650.634766,33.0201794 650.634766,33.6035156 L650.634766,33.78125 C650.634766,34.3645863 650.707682,34.9000627 650.853516,35.3876953 C650.99935,35.875328 651.21354,36.2968732 651.496094,36.6523438 C651.778647,37.0078143 652.127277,37.2835277 652.541992,37.4794922 C652.956708,37.6754567 653.43294,37.7734375 653.970703,37.7734375 C654.435549,37.7734375 654.852537,37.7050788 655.22168,37.5683594 C655.590822,37.4316399 655.907551,37.2402356 656.171875,36.9941406 C656.436199,36.7480456 656.638997,36.4586605 656.780273,36.1259766 C656.92155,35.7932926 656.992188,35.4309915 656.992188,35.0390625 L656.992188,32.3183594 Z M667.068359,34.984375 C667.132162,35.4218772 667.271158,35.8229148 667.485352,36.1875 C667.699545,36.5520852 667.970701,36.8642565 668.298828,37.1240234 C668.626955,37.3837904 669.005206,37.5865878 669.433594,37.7324219 C669.861981,37.8782559 670.317706,37.9511719 670.800781,37.9511719 C671.356774,37.9511719 671.95833,37.8440766 672.605469,37.6298828 C673.252607,37.415689 673.845049,37.1035177 674.382812,36.6933594 L676.201172,39.3457031 C675.517575,39.9199247 674.679041,40.3847638 673.685547,40.7402344 C672.692052,41.0957049 671.634771,41.2734375 670.513672,41.2734375 C669.501948,41.2734375 668.549484,41.1002621 667.65625,40.7539062 C666.763016,40.4075504 665.981449,39.9062533 665.311523,39.25 C664.641598,38.5937467 664.112958,37.7962287 663.725586,36.8574219 C663.338214,35.9186151 663.144531,34.861334 663.144531,33.6855469 C663.144531,32.6100207 663.315428,31.6074265 663.657227,30.6777344 C663.999025,29.7480422 664.477536,28.9414097 665.092773,28.2578125 C665.708011,27.5742153 666.444006,27.0387389 667.300781,26.6513672 C668.157556,26.2639955 669.105464,26.0703125 670.144531,26.0703125 C671.110682,26.0703125 672.008459,26.2457665 672.837891,26.5966797 C673.667322,26.9475929 674.387367,27.4397755 674.998047,28.0732422 C675.608727,28.7067089 676.087238,29.4654904 676.433594,30.3496094 C676.77995,31.2337284 676.953125,32.208979 676.953125,33.2753906 L676.953125,34.984375 L667.068359,34.984375 Z M670.130859,29.3515625 C669.319657,29.3515625 668.633792,29.6227186 668.073242,30.1650391 C667.512693,30.7073595 667.186849,31.3613243 667.095703,32.1269531 L673.001953,32.1269531 C672.983724,31.3522097 672.701175,30.6959662 672.154297,30.1582031 C671.607419,29.62044 670.932947,29.3515625 670.130859,29.3515625 L670.130859,29.3515625 Z M682.462891,41 L677.978516,26.3574219 L682.189453,26.3574219 L684.814453,36.4335938 L687.507812,26.3574219 L691.650391,26.3574219 L687.193359,41 L682.462891,41 Z M696.681641,34.984375 C696.745443,35.4218772 696.884439,35.8229148 697.098633,36.1875 C697.312827,36.5520852 697.583983,36.8642565 697.912109,37.1240234 C698.240236,37.3837904 698.618487,37.5865878 699.046875,37.7324219 C699.475263,37.8782559 699.930987,37.9511719 700.414062,37.9511719 C700.970055,37.9511719 701.571611,37.8440766 702.21875,37.6298828 C702.865889,37.415689 703.458331,37.1035177 703.996094,36.6933594 L705.814453,39.3457031 C705.130856,39.9199247 704.292323,40.3847638 703.298828,40.7402344 C702.305334,41.0957049 701.248052,41.2734375 700.126953,41.2734375 C699.115229,41.2734375 698.162765,41.1002621 697.269531,40.7539062 C696.376298,40.4075504 695.59473,39.9062533 694.924805,39.25 C694.254879,38.5937467 693.726239,37.7962287 693.338867,36.8574219 C692.951495,35.9186151 692.757812,34.861334 692.757812,33.6855469 C692.757812,32.6100207 692.928709,31.6074265 693.270508,30.6777344 C693.612306,29.7480422 694.090817,28.9414097 694.706055,28.2578125 C695.321292,27.5742153 696.057287,27.0387389 696.914062,26.6513672 C697.770838,26.2639955 698.718745,26.0703125 699.757812,26.0703125 C700.723963,26.0703125 701.621741,26.2457665 702.451172,26.5966797 C703.280603,26.9475929 704.000648,27.4397755 704.611328,28.0732422 C705.222008,28.7067089 705.700519,29.4654904 706.046875,30.3496094 C706.393231,31.2337284 706.566406,32.208979 706.566406,33.2753906 L706.566406,34.984375 L696.681641,34.984375 Z M699.744141,29.3515625 C698.932939,29.3515625 698.247073,29.6227186 697.686523,30.1650391 C697.125974,30.7073595 696.800131,31.3613243 696.708984,32.1269531 L702.615234,32.1269531 C702.597005,31.3522097 702.314456,30.6959662 701.767578,30.1582031 C701.2207,29.62044 700.546228,29.3515625 699.744141,29.3515625 L699.744141,29.3515625 Z M708.917969,21.3945312 L712.691406,21.3945312 L712.691406,37.0214844 C712.691406,37.3313818 712.780273,37.5683586 712.958008,37.7324219 C713.135743,37.8964852 713.420571,37.9785156 713.8125,37.9785156 C713.994793,37.9785156 714.152018,37.9671225 714.28418,37.9443359 C714.416342,37.9215494 714.587239,37.88737 714.796875,37.8417969 L715.097656,41.0546875 C714.842447,41.091146 714.569012,41.127604 714.277344,41.1640625 C714.031249,41.1914064 713.746421,41.2164712 713.422852,41.2392578 C713.099282,41.2620444 712.764325,41.2734375 712.417969,41.2734375 C711.880206,41.2734375 711.397138,41.2050788 710.96875,41.0683594 C710.540362,40.9316399 710.173504,40.7288425 709.868164,40.4599609 C709.562824,40.1910794 709.328126,39.8561218 709.164062,39.4550781 C708.999999,39.0540345 708.917969,38.5891954 708.917969,38.0605469 L708.917969,21.3945312 Z M723.615234,26.0703125 C724.699875,26.0703125 725.68424,26.2639955 726.568359,26.6513672 C727.452478,27.0387389 728.208981,27.5742153 728.837891,28.2578125 C729.4668,28.9414097 729.952147,29.7480422 730.293945,30.6777344 C730.635744,31.6074265 730.806641,32.6100207 730.806641,33.6855469 C730.806641,34.7701877 730.633465,35.7750605 730.287109,36.7001953 C729.940753,37.6253301 729.453128,38.4251268 728.824219,39.0996094 C728.195309,39.7740919 727.438807,40.3050111 726.554688,40.6923828 C725.670568,41.0797545 724.690761,41.2734375 723.615234,41.2734375 C722.530594,41.2734375 721.546228,41.0797545 720.662109,40.6923828 C719.77799,40.3050111 719.021488,39.7740919 718.392578,39.0996094 C717.763669,38.4251268 717.276043,37.6253301 716.929688,36.7001953 C716.583332,35.7750605 716.410156,34.7701877 716.410156,33.6855469 C716.410156,32.6100207 716.581053,31.6074265 716.922852,30.6777344 C717.26465,29.7480422 717.749997,28.9414097 718.378906,28.2578125 C719.007816,27.5742153 719.766597,27.0387389 720.655273,26.6513672 C721.54395,26.2639955 722.530594,26.0703125 723.615234,26.0703125 L723.615234,26.0703125 Z M723.615234,37.7734375 C724.152997,37.7734375 724.62923,37.6731781 725.043945,37.4726562 C725.458661,37.2721344 725.80729,36.9941424 726.089844,36.6386719 C726.372397,36.2832013 726.586588,35.8570988 726.732422,35.3603516 C726.878256,34.8636043 726.951172,34.3190134 726.951172,33.7265625 L726.951172,33.6308594 C726.951172,33.0384085 726.878256,32.4938176 726.732422,31.9970703 C726.586588,31.500323 726.372397,31.0719419 726.089844,30.7119141 C725.80729,30.3518862 725.458661,30.0716156 725.043945,29.8710938 C724.62923,29.6705719 724.152997,29.5703125 723.615234,29.5703125 C723.077471,29.5703125 722.601239,29.6705719 722.186523,29.8710938 C721.771808,30.0716156 721.423178,30.3518862 721.140625,30.7119141 C720.858072,31.0719419 720.643881,31.500323 720.498047,31.9970703 C720.352213,32.4938176 720.279297,33.0384085 720.279297,33.6308594 L720.279297,33.7265625 C720.279297,34.3190134 720.352213,34.8636043 720.498047,35.3603516 C720.643881,35.8570988 720.858072,36.2832013 721.140625,36.6386719 C721.423178,36.9941424 721.771808,37.2721344 722.186523,37.4726562 C722.601239,37.6731781 723.077471,37.7734375 723.615234,37.7734375 L723.615234,37.7734375 Z M737.082031,45.6210938 L733.308594,45.6210938 L733.308594,26.3574219 L737.082031,26.3574219 L737.082031,27.6152344 C737.49219,27.1868468 737.998044,26.8222671 738.599609,26.5214844 C739.201175,26.2207016 739.930334,26.0703125 740.787109,26.0703125 C741.75326,26.0703125 742.63053,26.2639955 743.418945,26.6513672 C744.207361,27.0387389 744.884112,27.5719367 745.449219,28.2509766 C746.014326,28.9300164 746.451821,29.7343704 746.761719,30.6640625 C747.071616,31.5937546 747.226562,32.600906 747.226562,33.6855469 C747.226562,34.7701877 747.067059,35.7773391 746.748047,36.7070312 C746.429035,37.6367234 745.982425,38.4387987 745.408203,39.1132812 C744.833982,39.7877638 744.145837,40.3164043 743.34375,40.6992188 C742.541663,41.0820332 741.657557,41.2734375 740.691406,41.2734375 C740.263019,41.2734375 739.873374,41.2347009 739.522461,41.1572266 C739.171548,41.0797522 738.850262,40.9726569 738.558594,40.8359375 C738.266926,40.6992181 737.998048,40.5374358 737.751953,40.3505859 C737.505858,40.163736 737.282553,39.9609386 737.082031,39.7421875 L737.082031,45.6210938 Z M736.972656,35.0390625 C736.972656,35.4309915 737.043294,35.7932926 737.18457,36.1259766 C737.325847,36.4586605 737.528645,36.7480456 737.792969,36.9941406 C738.057293,37.2402356 738.374022,37.4316399 738.743164,37.5683594 C739.112307,37.7050788 739.529295,37.7734375 739.994141,37.7734375 C740.531904,37.7734375 741.008136,37.6754567 741.422852,37.4794922 C741.837567,37.2835277 742.186197,37.0078143 742.46875,36.6523438 C742.751303,36.2968732 742.965494,35.875328 743.111328,35.3876953 C743.257162,34.9000627 743.330078,34.3645863 743.330078,33.78125 L743.330078,33.6035156 C743.330078,33.0201794 743.257162,32.4824243 743.111328,31.9902344 C742.965494,31.4980444 742.751303,31.0719419 742.46875,30.7119141 C742.186197,30.3518862 741.837567,30.0716156 741.422852,29.8710938 C741.008136,29.6705719 740.531904,29.5703125 739.994141,29.5703125 C739.529295,29.5703125 739.112307,29.6386712 738.743164,29.7753906 C738.374022,29.9121101 738.057293,30.1035144 737.792969,30.3496094 C737.528645,30.5957044 737.325847,30.8873681 737.18457,31.2246094 C737.043294,31.5618506 736.972656,31.9264303 736.972656,32.3183594 L736.972656,35.0390625 Z M762.087891,41 L758.300781,41 L758.300781,32.4824219 C758.300781,31.962888 758.243816,31.5231138 758.129883,31.1630859 C758.01595,30.8030581 757.858725,30.5113943 757.658203,30.2880859 C757.457681,30.0647775 757.225262,29.9052739 756.960938,29.8095703 C756.696613,29.7138667 756.409507,29.6660156 756.099609,29.6660156 C755.735024,29.6660156 755.395509,29.7298171 755.081055,29.8574219 C754.7666,29.9850267 754.493165,30.1855455 754.260742,30.4589844 C754.028319,30.7324232 753.846029,31.0810526 753.713867,31.5048828 C753.581705,31.9287131 753.515625,32.4322887 753.515625,33.015625 L753.515625,41 L749.742188,41 L749.742188,26.3574219 L753.515625,26.3574219 L753.515625,27.6425781 C753.9987,27.104815 754.56152,26.7083346 755.204102,26.453125 C755.846683,26.1979154 756.537106,26.0703125 757.275391,26.0703125 C758.031905,26.0703125 758.740557,26.2252589 759.401367,26.5351562 C760.062178,26.8450536 760.611326,27.3554652 761.048828,28.0664062 C761.304038,27.7018211 761.59798,27.3919284 761.930664,27.1367188 C762.263348,26.8815091 762.621092,26.6764331 763.003906,26.5214844 C763.386721,26.3665357 763.78548,26.2526045 764.200195,26.1796875 C764.614911,26.1067705 765.041013,26.0703125 765.478516,26.0703125 C766.298832,26.0703125 767.03027,26.2047513 767.672852,26.4736328 C768.315433,26.7425144 768.860024,27.1048154 769.306641,27.5605469 C769.753257,28.0162783 770.095051,28.5403616 770.332031,29.1328125 C770.569012,29.7252634 770.6875,30.3496061 770.6875,31.0058594 L770.6875,41 L766.873047,41 L766.873047,32.4824219 C766.873047,31.962888 766.816081,31.5231138 766.702148,31.1630859 C766.588216,30.8030581 766.430991,30.5113943 766.230469,30.2880859 C766.029947,30.0647775 765.795249,29.9052739 765.526367,29.8095703 C765.257486,29.7138667 764.968101,29.6660156 764.658203,29.6660156 C764.293618,29.6660156 763.956382,29.7298171 763.646484,29.8574219 C763.336587,29.9850267 763.065431,30.1855455 762.833008,30.4589844 C762.600585,30.7324232 762.418295,31.0810526 762.286133,31.5048828 C762.153971,31.9287131 762.087891,32.4322887 762.087891,33.015625 L762.087891,41 Z M776.976562,34.984375 C777.040365,35.4218772 777.179361,35.8229148 777.393555,36.1875 C777.607748,36.5520852 777.878905,36.8642565 778.207031,37.1240234 C778.535158,37.3837904 778.913409,37.5865878 779.341797,37.7324219 C779.770184,37.8782559 780.225909,37.9511719 780.708984,37.9511719 C781.264977,37.9511719 781.866533,37.8440766 782.513672,37.6298828 C783.160811,37.415689 783.753253,37.1035177 784.291016,36.6933594 L786.109375,39.3457031 C785.425778,39.9199247 784.587245,40.3847638 783.59375,40.7402344 C782.600255,41.0957049 781.542974,41.2734375 780.421875,41.2734375 C779.410151,41.2734375 778.457687,41.1002621 777.564453,40.7539062 C776.671219,40.4075504 775.889652,39.9062533 775.219727,39.25 C774.549801,38.5937467 774.021161,37.7962287 773.633789,36.8574219 C773.246417,35.9186151 773.052734,34.861334 773.052734,33.6855469 C773.052734,32.6100207 773.223631,31.6074265 773.56543,30.6777344 C773.907228,29.7480422 774.385739,28.9414097 775.000977,28.2578125 C775.616214,27.5742153 776.352209,27.0387389 777.208984,26.6513672 C778.065759,26.2639955 779.013667,26.0703125 780.052734,26.0703125 C781.018885,26.0703125 781.916663,26.2457665 782.746094,26.5966797 C783.575525,26.9475929 784.29557,27.4397755 784.90625,28.0732422 C785.51693,28.7067089 785.995441,29.4654904 786.341797,30.3496094 C786.688153,31.2337284 786.861328,32.208979 786.861328,33.2753906 L786.861328,34.984375 L776.976562,34.984375 Z M780.039062,29.3515625 C779.227861,29.3515625 778.541995,29.6227186 777.981445,30.1650391 C777.420896,30.7073595 777.095053,31.3613243 777.003906,32.1269531 L782.910156,32.1269531 C782.891927,31.3522097 782.609378,30.6959662 782.0625,30.1582031 C781.515622,29.62044 780.84115,29.3515625 780.039062,29.3515625 L780.039062,29.3515625 Z M789.267578,26.3574219 L793.041016,26.3574219 L793.041016,27.6152344 C793.241537,27.4147125 793.467121,27.2210296 793.717773,27.0341797 C793.968426,26.8473298 794.244139,26.6832689 794.544922,26.5419922 C794.845705,26.4007154 795.180662,26.2867843 795.549805,26.2001953 C795.918947,26.1136063 796.326821,26.0703125 796.773438,26.0703125 C797.56641,26.0703125 798.277341,26.200194 798.90625,26.4599609 C799.535159,26.7197279 800.066079,27.0774717 800.499023,27.5332031 C800.931968,27.9889346 801.262369,28.5221324 801.490234,29.1328125 C801.7181,29.7434926 801.832031,30.4042933 801.832031,31.1152344 L801.832031,41 L798.058594,41 L798.058594,32.4824219 C798.058594,31.962888 797.99935,31.5231138 797.880859,31.1630859 C797.762369,30.8030581 797.600587,30.5113943 797.395508,30.2880859 C797.190429,30.0647775 796.948895,29.9007167 796.670898,29.7958984 C796.392902,29.6910802 796.089845,29.6386719 795.761719,29.6386719 C795.378904,29.6386719 795.021161,29.7070306 794.688477,29.84375 C794.355793,29.9804694 794.066407,30.1878241 793.820312,30.4658203 C793.574218,30.7438165 793.382813,31.0924458 793.246094,31.5117188 C793.109374,31.9309917 793.041016,32.4231743 793.041016,32.9882812 L793.041016,41 L789.267578,41 L789.267578,26.3574219 Z M810.376953,36.6386719 C810.376953,36.8118498 810.399739,36.9759107 810.445312,37.1308594 C810.490886,37.2858081 810.570637,37.4202468 810.68457,37.5341797 C810.798503,37.6481125 810.960285,37.7369788 811.169922,37.8007812 C811.379558,37.8645837 811.648436,37.8964844 811.976562,37.8964844 C812.113282,37.8964844 812.268228,37.8896485 812.441406,37.8759766 C812.614584,37.8623046 812.78776,37.8463543 812.960938,37.828125 C813.134115,37.8098957 813.295898,37.7871095 813.446289,37.7597656 C813.59668,37.7324217 813.722005,37.7096355 813.822266,37.6914062 L814.164062,41.0273438 C813.808592,41.0729169 813.439455,41.1139321 813.056641,41.1503906 C812.728514,41.1868491 812.363934,41.2164712 811.962891,41.2392578 C811.561847,41.2620444 811.156252,41.2734375 810.746094,41.2734375 C809.442702,41.2734375 808.426436,40.9772165 807.697266,40.3847656 C806.968095,39.7923147 806.603516,38.8489648 806.603516,37.5546875 L806.603516,29.6386719 L803.964844,29.6386719 L803.964844,26.3574219 L806.603516,26.3574219 L806.603516,22.2148438 L810.376953,21.203125 L810.376953,26.3574219 L814.21875,26.3574219 L814.21875,29.6386719 L810.376953,29.6386719 L810.376953,36.6386719 Z" id="In-development" fill="#D53880"></path>
            <path d="M13.3620605,90.5107422 C14.3516488,90.5107422 15.2391725,90.6885562 16.0246582,91.0441895 C16.8101439,91.3998227 17.4765598,91.8853322 18.0239258,92.5007324 C18.5712918,93.1161326 18.9887681,93.8397582 19.2763672,94.6716309 C19.5639663,95.5035035 19.7077637,96.3956658 19.7077637,97.3481445 C19.7077637,98.3068082 19.5639663,99.2005167 19.2763672,100.029297 C18.9887681,100.858077 18.5712918,101.581703 18.0239258,102.200195 C17.4765598,102.818688 16.8101439,103.304197 16.0246582,103.656738 C15.2391725,104.009279 14.3516488,104.185547 13.3620605,104.185547 C12.3662873,104.185547 11.4772175,104.009279 10.6948242,103.656738 C9.91243098,103.304197 9.24756133,102.818688 8.70019531,102.200195 C8.15282929,101.581703 7.735353,100.858077 7.44775391,100.029297 C7.16015481,99.2005167 7.01635742,98.3068082 7.01635742,97.3481445 C7.01635742,96.3956658 7.16015481,95.5035035 7.44775391,94.6716309 C7.735353,93.8397582 8.15282929,93.1161326 8.70019531,92.5007324 C9.24756133,91.8853322 9.91243098,91.3998227 10.6948242,91.0441895 C11.4772175,90.6885562 12.3662873,90.5107422 13.3620605,90.5107422 L13.3620605,90.5107422 Z M13.3620605,101.754883 C13.9434437,101.754883 14.4552387,101.645102 14.8974609,101.425537 C15.3396832,101.205972 15.7123194,100.901369 16.0153809,100.511719 C16.3184423,100.122068 16.5472811,99.6612982 16.7019043,99.1293945 C16.8565275,98.5974908 16.9338379,98.0161164 16.9338379,97.3852539 L16.9338379,97.3110352 C16.9338379,96.6863576 16.8565275,96.1065294 16.7019043,95.5715332 C16.5472811,95.036537 16.3184423,94.5742207 16.0153809,94.1845703 C15.7123194,93.7949199 15.3396832,93.4903169 14.8974609,93.270752 C14.4552387,93.0511871 13.9434437,92.9414062 13.3620605,92.9414062 C12.7806774,92.9414062 12.2673362,93.0511871 11.8220215,93.270752 C11.3767068,93.4903169 11.0040705,93.7949199 10.7041016,94.1845703 C10.4041326,94.5742207 10.17684,95.036537 10.0222168,95.5715332 C9.86759363,96.1065294 9.7902832,96.6863576 9.7902832,97.3110352 L9.7902832,97.3852539 C9.7902832,98.0161164 9.86759363,98.5974908 10.0222168,99.1293945 C10.17684,99.6612982 10.4041326,100.122068 10.7041016,100.511719 C11.0040705,100.901369 11.3767068,101.205972 11.8220215,101.425537 C12.2673362,101.645102 12.7806774,101.754883 13.3620605,101.754883 L13.3620605,101.754883 Z M24.0773926,107.135742 L21.5168457,107.135742 L21.5168457,94.0639648 L24.0773926,94.0639648 L24.0773926,94.9174805 C24.3557143,94.6267889 24.6989726,94.3793956 25.1071777,94.175293 C25.5153829,93.9711904 26.0101696,93.8691406 26.5915527,93.8691406 C27.247155,93.8691406 27.8424452,94.0005683 28.3774414,94.2634277 C28.9124376,94.5262871 29.3716615,94.8880999 29.755127,95.348877 C30.1385924,95.809654 30.4354644,96.3554656 30.645752,96.9863281 C30.8560395,97.6171907 30.9611816,98.3006148 30.9611816,99.0366211 C30.9611816,99.7726274 30.852947,100.456052 30.6364746,101.086914 C30.4200022,101.717777 30.1169453,102.262042 29.7272949,102.719727 C29.3376445,103.177411 28.8706896,103.536132 28.326416,103.795898 C27.7821425,104.055665 27.1822136,104.185547 26.5266113,104.185547 C26.2359198,104.185547 25.9715181,104.159261 25.7333984,104.106689 C25.4952788,104.054118 25.2772634,103.981446 25.0793457,103.888672 C24.881428,103.795898 24.6989754,103.686117 24.5319824,103.559326 C24.3649894,103.432535 24.213461,103.294923 24.0773926,103.146484 L24.0773926,107.135742 Z M24.0031738,99.9550781 C24.0031738,100.22103 24.0511063,100.466877 24.1469727,100.692627 C24.242839,100.918377 24.3804516,101.114745 24.5598145,101.281738 C24.7391773,101.448731 24.9541003,101.578613 25.2045898,101.671387 C25.4550794,101.764161 25.7380355,101.810547 26.0534668,101.810547 C26.4183775,101.810547 26.7415351,101.74406 27.0229492,101.611084 C27.3043634,101.478108 27.5409333,101.291017 27.732666,101.049805 C27.9243987,100.808593 28.0697423,100.522544 28.1687012,100.19165 C28.26766,99.8607568 28.3171387,99.4973978 28.3171387,99.1015625 L28.3171387,98.980957 C28.3171387,98.5851217 28.26766,98.2202165 28.1687012,97.8862305 C28.0697423,97.5522444 27.9243987,97.2631034 27.732666,97.0187988 C27.5409333,96.7744942 27.3043634,96.5843106 27.0229492,96.4482422 C26.7415351,96.3121738 26.4183775,96.2441406 26.0534668,96.2441406 C25.7380355,96.2441406 25.4550794,96.2905269 25.2045898,96.3833008 C24.9541003,96.4760747 24.7391773,96.6059562 24.5598145,96.7729492 C24.3804516,96.9399422 24.242839,97.1378569 24.1469727,97.3666992 C24.0511063,97.5955415 24.0031738,97.8429349 24.0031738,98.1088867 L24.0031738,99.9550781 Z M34.8112793,99.9179688 C34.8545738,100.214845 34.9488925,100.486978 35.0942383,100.734375 C35.2395841,100.981772 35.4235829,101.193603 35.6462402,101.369873 C35.8688976,101.546143 36.1255682,101.683756 36.4162598,101.782715 C36.7069513,101.881674 37.016193,101.931152 37.3439941,101.931152 C37.7212747,101.931152 38.1294737,101.858481 38.5686035,101.713135 C39.0077333,101.567789 39.4097475,101.355958 39.7746582,101.077637 L41.0085449,102.877441 C40.5446754,103.267092 39.9756707,103.582518 39.3015137,103.82373 C38.6273567,104.064943 37.9099159,104.185547 37.1491699,104.185547 C36.4626431,104.185547 35.8163279,104.068035 35.2102051,103.833008 C34.6040823,103.597981 34.0737327,103.257815 33.6191406,102.8125 C33.1645485,102.367185 32.8058281,101.826012 32.5429688,101.188965 C32.2801094,100.551917 32.1486816,99.8344766 32.1486816,99.0366211 C32.1486816,98.3067997 32.2646473,97.626468 32.496582,96.9956055 C32.7285168,96.3647429 33.0532206,95.8173851 33.4707031,95.3535156 C33.8881857,94.8896461 34.387611,94.5262871 34.9689941,94.2634277 C35.5503773,94.0005683 36.1936,93.8691406 36.8986816,93.8691406 C37.5542839,93.8691406 38.16349,93.9881987 38.7263184,94.2263184 C39.2891467,94.464438 39.7777486,94.7984191 40.1921387,95.2282715 C40.6065288,95.6581239 40.9312325,96.1730113 41.1662598,96.7729492 C41.401287,97.3728871 41.5187988,98.0346644 41.5187988,98.7583008 L41.5187988,99.9179688 L34.8112793,99.9179688 Z M36.8894043,96.0957031 C36.3389458,96.0957031 35.8735371,96.2797019 35.4931641,96.6477051 C35.1127911,97.0157082 34.8916833,97.4594701 34.829834,97.9790039 L38.8376465,97.9790039 C38.8252766,97.4532851 38.6335468,97.0079771 38.2624512,96.6430664 C37.8913556,96.2781557 37.4336779,96.0957031 36.8894043,96.0957031 L36.8894043,96.0957031 Z M43.1516113,94.0639648 L45.7121582,94.0639648 L45.7121582,94.9174805 C45.8482266,94.7814121 46.0013012,94.6499844 46.1713867,94.5231934 C46.3414722,94.3964024 46.5285634,94.2850753 46.732666,94.189209 C46.9367686,94.0933426 47.1640612,94.0160322 47.4145508,93.9572754 C47.6650403,93.8985186 47.9418116,93.8691406 48.244873,93.8691406 C48.7829617,93.8691406 49.2653787,93.9572745 49.6921387,94.1335449 C50.1188986,94.3098153 50.4791652,94.5525701 50.7729492,94.8618164 C51.0667332,95.1710627 51.2909335,95.5328755 51.4455566,95.9472656 C51.6001798,96.3616557 51.6774902,96.8100562 51.6774902,97.2924805 L51.6774902,104 L49.1169434,104 L49.1169434,98.2202148 C49.1169434,97.867674 49.0767419,97.5692558 48.9963379,97.3249512 C48.9159338,97.0806466 48.806153,96.8827319 48.6669922,96.7312012 C48.5278313,96.5796705 48.3639332,96.4683435 48.175293,96.3972168 C47.9866527,96.3260901 47.781007,96.2905273 47.5583496,96.2905273 C47.2985827,96.2905273 47.055828,96.3369136 46.8300781,96.4296875 C46.6043283,96.5224614 46.4079598,96.6631664 46.2409668,96.8518066 C46.0739738,97.0404469 45.9440923,97.2770168 45.8513184,97.5615234 C45.7585445,97.8460301 45.7121582,98.1800111 45.7121582,98.5634766 L45.7121582,104 L43.1516113,104 L43.1516113,94.0639648 Z" id="Open" fill="#005EA5"></path>
            <path d="M218.574707,99.2612305 C218.747885,99.4591481 218.958169,99.6539704 219.205566,99.8457031 C219.452963,100.037436 219.726642,100.209065 220.026611,100.360596 C220.32658,100.512126 220.65283,100.632731 221.005371,100.722412 C221.357912,100.812094 221.738279,100.856934 222.146484,100.856934 C222.90723,100.856934 223.490151,100.697674 223.895264,100.37915 C224.300376,100.060627 224.50293,99.6725283 224.50293,99.2148438 C224.50293,98.7386044 224.325116,98.3767916 223.969482,98.1293945 C223.613849,97.8819975 223.049483,97.6871752 222.276367,97.5449219 L221.858887,97.4707031 C221.302243,97.3717443 220.748701,97.2418628 220.198242,97.0810547 C219.647784,96.9202466 219.149905,96.6883153 218.70459,96.3852539 C218.259275,96.0821925 217.897462,95.6940942 217.619141,95.2209473 C217.340819,94.7478004 217.20166,94.1494177 217.20166,93.4257812 C217.20166,93.0052062 217.294433,92.5645368 217.47998,92.1037598 C217.665528,91.6429827 217.960854,91.2193216 218.365967,90.8327637 C218.771079,90.4462057 219.293698,90.129233 219.933838,89.8818359 C220.573978,89.6344389 221.348628,89.5107422 222.257812,89.5107422 C223.33399,89.5107422 224.294185,89.6885562 225.138428,90.0441895 C225.98267,90.3998227 226.664548,90.8683239 227.184082,91.449707 L225.393555,93.1196289 C225.028644,92.7176087 224.560143,92.4021821 223.988037,92.1733398 C223.415931,91.9444976 222.826826,91.8300781 222.220703,91.8300781 C221.521806,91.8300781 220.975995,91.9630521 220.583252,92.2290039 C220.190509,92.4949558 219.994141,92.8413065 219.994141,93.2680664 C219.994141,93.5463881 220.057535,93.7783194 220.184326,93.9638672 C220.311117,94.149415 220.488931,94.3024896 220.717773,94.4230957 C220.946616,94.5437018 221.221841,94.6442053 221.543457,94.7246094 C221.865073,94.8050134 222.223794,94.8854163 222.619629,94.9658203 L222.833008,95.0029297 C223.364912,95.1018885 223.893715,95.2271314 224.419434,95.3786621 C224.945152,95.5301928 225.422931,95.7528468 225.852783,96.0466309 C226.282636,96.3404149 226.630533,96.7238746 226.896484,97.1970215 C227.162436,97.6701684 227.29541,98.2747359 227.29541,99.0107422 C227.29541,99.6787143 227.156251,100.269366 226.87793,100.782715 C226.599608,101.296064 226.23161,101.733641 225.773926,102.095459 C225.316241,102.457277 224.787438,102.72941 224.1875,102.911865 C223.587562,103.094321 222.962894,103.185547 222.313477,103.185547 C221.657874,103.185547 221.050214,103.129883 220.490479,103.018555 C219.930743,102.907226 219.423586,102.749513 218.968994,102.54541 C218.514402,102.341308 218.109295,102.112469 217.753662,101.858887 C217.398029,101.605305 217.087241,101.333172 216.821289,101.04248 L218.574707,99.2612305 Z M231.414551,98.0830078 C231.414551,98.404624 231.457845,98.7277816 231.544434,99.0524902 C231.631023,99.3771989 231.763996,99.6694323 231.943359,99.9291992 C232.122722,100.188966 232.353107,100.400797 232.634521,100.564697 C232.915936,100.728598 233.251463,100.810547 233.641113,100.810547 C233.894695,100.810547 234.12508,100.77653 234.332275,100.708496 C234.53947,100.640462 234.725015,100.546143 234.888916,100.425537 C235.052817,100.304931 235.19816,100.16268 235.324951,99.9987793 C235.451742,99.8348787 235.561523,99.6570648 235.654297,99.465332 L237.899414,100.625 C237.738606,101.01465 237.517498,101.367186 237.236084,101.682617 C236.95467,101.998048 236.62842,102.267089 236.257324,102.489746 C235.886229,102.712403 235.474937,102.884033 235.023438,103.004639 C234.571938,103.125245 234.092613,103.185547 233.585449,103.185547 C232.886552,103.185547 232.24333,103.054119 231.655762,102.79126 C231.068194,102.5284 230.561037,102.168134 230.134277,101.710449 C229.707517,101.252765 229.373536,100.710045 229.132324,100.082275 C228.891112,99.4545053 228.770508,98.7726274 228.770508,98.0366211 C228.770508,97.3067997 228.891112,96.626468 229.132324,95.9956055 C229.373536,95.3647429 229.707517,94.8173851 230.134277,94.3535156 C230.561037,93.8896461 231.068194,93.5262871 231.655762,93.2634277 C232.24333,93.0005683 232.886552,92.8691406 233.585449,92.8691406 C234.092613,92.8691406 234.571938,92.9294428 235.023438,93.0500488 C235.474937,93.1706549 235.886229,93.3438303 236.257324,93.5695801 C236.62842,93.7953299 236.95467,94.0659164 237.236084,94.3813477 C237.517498,94.6967789 237.738606,95.0493145 237.899414,95.4389648 L235.654297,96.5986328 C235.561523,96.4069001 235.451742,96.2290861 235.324951,96.0651855 C235.19816,95.901285 235.052817,95.7590338 234.888916,95.6384277 C234.725015,95.5178217 234.53947,95.4219567 234.332275,95.3508301 C234.12508,95.2797034 233.894695,95.2441406 233.641113,95.2441406 C233.251463,95.2441406 232.915936,95.3260897 232.634521,95.4899902 C232.353107,95.6538908 232.122722,95.8672676 231.943359,96.130127 C231.763996,96.3929863 231.631023,96.6883122 231.544434,97.0161133 C231.457845,97.3439144 231.414551,97.6717106 231.414551,97.9995117 L231.414551,98.0830078 Z M243.846191,92.8691406 C244.582198,92.8691406 245.25016,93.0005683 245.850098,93.2634277 C246.450036,93.5262871 246.963377,93.8896461 247.390137,94.3535156 C247.816897,94.8173851 248.146239,95.3647429 248.378174,95.9956055 C248.610109,96.626468 248.726074,97.3067997 248.726074,98.0366211 C248.726074,98.7726274 248.608562,99.4545053 248.373535,100.082275 C248.138508,100.710045 247.807619,101.252765 247.380859,101.710449 C246.954099,102.168134 246.440758,102.5284 245.84082,102.79126 C245.240882,103.054119 244.576013,103.185547 243.846191,103.185547 C243.110185,103.185547 242.442223,103.054119 241.842285,102.79126 C241.242347,102.5284 240.729006,102.168134 240.302246,101.710449 C239.875486,101.252765 239.544598,100.710045 239.30957,100.082275 C239.074543,99.4545053 238.957031,98.7726274 238.957031,98.0366211 C238.957031,97.3067997 239.072997,96.626468 239.304932,95.9956055 C239.536866,95.3647429 239.866209,94.8173851 240.292969,94.3535156 C240.719729,93.8896461 241.234616,93.5262871 241.837646,93.2634277 C242.440677,93.0005683 243.110185,92.8691406 243.846191,92.8691406 L243.846191,92.8691406 Z M243.846191,100.810547 C244.211102,100.810547 244.53426,100.742514 244.815674,100.606445 C245.097088,100.470377 245.333658,100.281739 245.525391,100.040527 C245.717123,99.7993152 245.862467,99.5101742 245.961426,99.1730957 C246.060385,98.8360172 246.109863,98.4664734 246.109863,98.0644531 L246.109863,97.9995117 C246.109863,97.5974915 246.060385,97.2279476 245.961426,96.8908691 C245.862467,96.5537906 245.717123,96.2631034 245.525391,96.0187988 C245.333658,95.7744942 245.097088,95.5843106 244.815674,95.4482422 C244.53426,95.3121738 244.211102,95.2441406 243.846191,95.2441406 C243.481281,95.2441406 243.158123,95.3121738 242.876709,95.4482422 C242.595295,95.5843106 242.358725,95.7744942 242.166992,96.0187988 C241.975259,96.2631034 241.829916,96.5537906 241.730957,96.8908691 C241.631998,97.2279476 241.58252,97.5974915 241.58252,97.9995117 L241.58252,98.0644531 C241.58252,98.4664734 241.631998,98.8360172 241.730957,99.1730957 C241.829916,99.5101742 241.975259,99.7993152 242.166992,100.040527 C242.358725,100.281739 242.595295,100.470377 242.876709,100.606445 C243.158123,100.742514 243.481281,100.810547 243.846191,100.810547 L243.846191,100.810547 Z M252.984375,106.135742 L250.423828,106.135742 L250.423828,93.0639648 L252.984375,93.0639648 L252.984375,93.9174805 C253.262697,93.6267889 253.605955,93.3793956 254.01416,93.175293 C254.422365,92.9711904 254.917152,92.8691406 255.498535,92.8691406 C256.154137,92.8691406 256.749428,93.0005683 257.284424,93.2634277 C257.81942,93.5262871 258.278644,93.8880999 258.662109,94.348877 C259.045575,94.809654 259.342447,95.3554656 259.552734,95.9863281 C259.763022,96.6171907 259.868164,97.3006148 259.868164,98.0366211 C259.868164,98.7726274 259.759929,99.4560515 259.543457,100.086914 C259.326985,100.717777 259.023928,101.262042 258.634277,101.719727 C258.244627,102.177411 257.777672,102.536132 257.233398,102.795898 C256.689125,103.055665 256.089196,103.185547 255.433594,103.185547 C255.142902,103.185547 254.878501,103.159261 254.640381,103.106689 C254.402261,103.054118 254.184246,102.981446 253.986328,102.888672 C253.78841,102.795898 253.605958,102.686117 253.438965,102.559326 C253.271972,102.432535 253.120443,102.294923 252.984375,102.146484 L252.984375,106.135742 Z M252.910156,98.9550781 C252.910156,99.22103 252.958089,99.4668771 253.053955,99.692627 C253.149821,99.9183768 253.287434,100.114745 253.466797,100.281738 C253.64616,100.448731 253.861083,100.578613 254.111572,100.671387 C254.362062,100.764161 254.645018,100.810547 254.960449,100.810547 C255.32536,100.810547 255.648517,100.74406 255.929932,100.611084 C256.211346,100.478108 256.447916,100.291017 256.639648,100.049805 C256.831381,99.8085925 256.976725,99.522544 257.075684,99.1916504 C257.174642,98.8607568 257.224121,98.4973978 257.224121,98.1015625 L257.224121,97.980957 C257.224121,97.5851217 257.174642,97.2202165 257.075684,96.8862305 C256.976725,96.5522444 256.831381,96.2631034 256.639648,96.0187988 C256.447916,95.7744942 256.211346,95.5843106 255.929932,95.4482422 C255.648517,95.3121738 255.32536,95.2441406 254.960449,95.2441406 C254.645018,95.2441406 254.362062,95.2905269 254.111572,95.3833008 C253.861083,95.4760747 253.64616,95.6059562 253.466797,95.7729492 C253.287434,95.9399422 253.149821,96.1378569 253.053955,96.3666992 C252.958089,96.5955415 252.910156,96.8429349 252.910156,97.1088867 L252.910156,98.9550781 Z M264.135742,103 L261.575195,103 L261.575195,93.0639648 L264.135742,93.0639648 L264.135742,103 Z M261.306152,90.4570312 C261.306152,90.2467437 261.346354,90.0472828 261.426758,89.8586426 C261.507162,89.6700023 261.616943,89.5061042 261.756104,89.3669434 C261.895264,89.2277825 262.057616,89.1180017 262.243164,89.0375977 C262.428712,88.9571936 262.629719,88.9169922 262.846191,88.9169922 C263.056479,88.9169922 263.25594,88.9571936 263.44458,89.0375977 C263.63322,89.1180017 263.797118,89.2277825 263.936279,89.3669434 C264.07544,89.5061042 264.185221,89.6700023 264.265625,89.8586426 C264.346029,90.0472828 264.38623,90.2467437 264.38623,90.4570312 C264.38623,90.6735037 264.346029,90.8745108 264.265625,91.0600586 C264.185221,91.2456064 264.07544,91.4079583 263.936279,91.5471191 C263.797118,91.68628 263.63322,91.7960608 263.44458,91.8764648 C263.25594,91.9568689 263.056479,91.9970703 262.846191,91.9970703 C262.629719,91.9970703 262.428712,91.9568689 262.243164,91.8764648 C262.057616,91.7960608 261.895264,91.68628 261.756104,91.5471191 C261.616943,91.4079583 261.507162,91.2456064 261.426758,91.0600586 C261.346354,90.8745108 261.306152,90.6735037 261.306152,90.4570312 L261.306152,90.4570312 Z M266.34375,93.0639648 L268.904297,93.0639648 L268.904297,93.9174805 C269.040365,93.7814121 269.19344,93.6499844 269.363525,93.5231934 C269.533611,93.3964024 269.720702,93.2850753 269.924805,93.189209 C270.128907,93.0933426 270.3562,93.0160322 270.606689,92.9572754 C270.857179,92.8985186 271.13395,92.8691406 271.437012,92.8691406 C271.9751,92.8691406 272.457517,92.9572745 272.884277,93.1335449 C273.311037,93.3098153 273.671304,93.5525701 273.965088,93.8618164 C274.258872,94.1710627 274.483072,94.5328755 274.637695,94.9472656 C274.792318,95.3616557 274.869629,95.8100562 274.869629,96.2924805 L274.869629,103 L272.309082,103 L272.309082,97.2202148 C272.309082,96.867674 272.268881,96.5692558 272.188477,96.3249512 C272.108073,96.0806466 271.998292,95.8827319 271.859131,95.7312012 C271.71997,95.5796705 271.556072,95.4683435 271.367432,95.3972168 C271.178791,95.3260901 270.973146,95.2905273 270.750488,95.2905273 C270.490721,95.2905273 270.247967,95.3369136 270.022217,95.4296875 C269.796467,95.5224614 269.600098,95.6631664 269.433105,95.8518066 C269.266112,96.0404469 269.136231,96.2770168 269.043457,96.5615234 C268.950683,96.8460301 268.904297,97.1800111 268.904297,97.5634766 L268.904297,103 L266.34375,103 L266.34375,93.0639648 Z M283.042969,101.237305 C282.814126,101.515626 282.494061,101.736734 282.082764,101.900635 C281.671466,102.064535 281.224612,102.146484 280.742188,102.146484 C280.074215,102.146484 279.480471,102.028973 278.960938,101.793945 C278.441404,101.558918 278.003827,101.235761 277.648193,100.824463 C277.29256,100.413165 277.020427,99.9261096 276.831787,99.3632812 C276.643147,98.8004529 276.548828,98.1819695 276.548828,97.5078125 C276.548828,96.8522103 276.643147,96.2383655 276.831787,95.6662598 C277.020427,95.094154 277.29256,94.6024597 277.648193,94.1911621 C278.003827,93.7798645 278.441404,93.4567069 278.960938,93.2216797 C279.480471,92.9866525 280.074215,92.8691406 280.742188,92.8691406 C281.224612,92.8691406 281.671466,92.9526359 282.082764,93.1196289 C282.494061,93.2866219 282.814126,93.509276 283.042969,93.7875977 L283.042969,93.0639648 L285.612793,93.0639648 L285.612793,102.907227 C285.612793,103.513349 285.498374,104.034422 285.269531,104.470459 C285.040689,104.906496 284.726809,105.26367 284.327881,105.541992 C283.928953,105.820314 283.466637,106.022867 282.940918,106.149658 C282.415199,106.276449 281.855472,106.339844 281.261719,106.339844 C280.538082,106.339844 279.783533,106.254802 278.998047,106.084717 C278.212561,105.914631 277.535322,105.702801 276.966309,105.449219 L277.689941,103.380371 C277.863119,103.45459 278.076496,103.536539 278.330078,103.626221 C278.58366,103.715902 278.855793,103.794759 279.146484,103.862793 C279.437176,103.930827 279.741779,103.988037 280.060303,104.034424 C280.378826,104.080811 280.689614,104.104004 280.992676,104.104004 C281.258628,104.104004 281.515298,104.077718 281.762695,104.025146 C282.010092,103.972575 282.228108,103.885987 282.416748,103.765381 C282.605388,103.644775 282.756917,103.487062 282.871338,103.292236 C282.985759,103.097411 283.042969,102.848472 283.042969,102.54541 L283.042969,101.237305 Z M279.183594,97.5449219 C279.183594,97.872723 279.219157,98.1804185 279.290283,98.4680176 C279.36141,98.7556167 279.475829,98.9999176 279.633545,99.2009277 C279.791261,99.4019379 279.993814,99.5596511 280.241211,99.6740723 C280.488608,99.7884934 280.788572,99.8457031 281.141113,99.8457031 C281.84001,99.8457031 282.337889,99.6245953 282.634766,99.182373 C282.931642,98.7401508 283.080078,98.1943392 283.080078,97.5449219 L283.080078,97.4707031 C283.080078,97.142902 283.046062,96.8367527 282.978027,96.5522461 C282.909993,96.2677395 282.798666,96.0234385 282.644043,95.8193359 C282.48942,95.6152334 282.289959,95.4559739 282.045654,95.3415527 C281.80135,95.2271316 281.499839,95.1699219 281.141113,95.1699219 C280.448401,95.1699219 279.948976,95.3894835 279.642822,95.8286133 C279.336668,96.2677431 279.183594,96.8151009 279.183594,97.4707031 L279.183594,97.5449219 Z" id="Scoping" fill="#005EA5"></path>
            <path d="M436.866455,89.6962891 L442.015381,89.6962891 C442.807051,89.6962891 443.505938,89.8107085 444.112061,90.0395508 C444.718183,90.2683931 445.22534,90.5745424 445.633545,90.9580078 C446.04175,91.3414733 446.350992,91.7821427 446.561279,92.2800293 C446.771567,92.7779159 446.876709,93.2989882 446.876709,93.8432617 C446.876709,94.2823915 446.810222,94.6983216 446.677246,95.0910645 C446.54427,95.4838073 446.361818,95.8394353 446.129883,96.157959 C445.897948,96.4764827 445.624269,96.7517078 445.308838,96.9836426 C444.993407,97.2155773 444.653241,97.3964837 444.28833,97.5263672 L447.201416,103 L444.102783,103 L441.690674,98.2128906 L439.556885,98.2128906 L439.556885,103 L436.866455,103 L436.866455,89.6962891 Z M444.065674,93.9360352 C444.065674,93.6700833 444.017741,93.4226899 443.921875,93.1938477 C443.826009,92.9650054 443.680665,92.7670907 443.48584,92.6000977 C443.291015,92.4331046 443.04826,92.3032231 442.757568,92.2104492 C442.466877,92.1176753 442.129803,92.0712891 441.746338,92.0712891 L439.556885,92.0712891 L439.556885,95.8193359 L441.746338,95.8193359 C442.129803,95.8193359 442.466877,95.7714035 442.757568,95.6755371 C443.04826,95.5796707 443.291015,95.4466968 443.48584,95.2766113 C443.680665,95.1065258 443.826009,94.9070649 443.921875,94.6782227 C444.017741,94.4493804 444.065674,94.201987 444.065674,93.9360352 L444.065674,93.9360352 Z M450.940186,98.9179688 C450.98348,99.2148452 451.077799,99.4869779 451.223145,99.734375 C451.36849,99.9817721 451.552489,100.193603 451.775146,100.369873 C451.997804,100.546143 452.254474,100.683756 452.545166,100.782715 C452.835858,100.881674 453.145099,100.931152 453.4729,100.931152 C453.850181,100.931152 454.25838,100.858481 454.69751,100.713135 C455.13664,100.567789 455.538654,100.355958 455.903564,100.077637 L457.137451,101.877441 C456.673582,102.267092 456.104577,102.582518 455.43042,102.82373 C454.756263,103.064943 454.038822,103.185547 453.278076,103.185547 C452.591549,103.185547 451.945234,103.068035 451.339111,102.833008 C450.732989,102.597981 450.202639,102.257815 449.748047,101.8125 C449.293455,101.367185 448.934734,100.826012 448.671875,100.188965 C448.409016,99.5519174 448.277588,98.8344766 448.277588,98.0366211 C448.277588,97.3067997 448.393554,96.626468 448.625488,95.9956055 C448.857423,95.3647429 449.182127,94.8173851 449.599609,94.3535156 C450.017092,93.8896461 450.516517,93.5262871 451.0979,93.2634277 C451.679284,93.0005683 452.322506,92.8691406 453.027588,92.8691406 C453.68319,92.8691406 454.292396,92.9881987 454.855225,93.2263184 C455.418053,93.464438 455.906655,93.7984191 456.321045,94.2282715 C456.735435,94.6581239 457.060139,95.1730113 457.295166,95.7729492 C457.530193,96.3728871 457.647705,97.0346644 457.647705,97.7583008 L457.647705,98.9179688 L450.940186,98.9179688 Z M453.018311,95.0957031 C452.467852,95.0957031 452.002443,95.2797019 451.62207,95.6477051 C451.241697,96.0157082 451.02059,96.4594701 450.95874,96.9790039 L454.966553,96.9790039 C454.954183,96.4532851 454.762453,96.0079771 454.391357,95.6430664 C454.020262,95.2781557 453.562584,95.0957031 453.018311,95.0957031 L453.018311,95.0957031 Z M459.985596,99.8271484 C460.350506,100.15495 460.786537,100.43636 461.293701,100.671387 C461.800865,100.906414 462.314206,101.023926 462.83374,101.023926 C463.211021,101.023926 463.507893,100.951254 463.724365,100.805908 C463.940838,100.660562 464.049072,100.473471 464.049072,100.244629 C464.049072,99.8549785 463.631596,99.5519217 462.796631,99.3354492 L462.072998,99.140625 C461.714272,99.054036 461.35246,98.934978 460.987549,98.7834473 C460.622638,98.6319166 460.287111,98.4324557 459.980957,98.1850586 C459.674803,97.9376615 459.42741,97.6361509 459.23877,97.2805176 C459.050129,96.9248843 458.955811,96.4873073 458.955811,95.9677734 C458.955811,95.5533833 459.047037,95.1591002 459.229492,94.7849121 C459.411948,94.410724 459.671711,94.0813816 460.008789,93.796875 C460.345868,93.5123684 460.755613,93.2866219 461.238037,93.1196289 C461.720461,92.9526359 462.258542,92.8691406 462.852295,92.8691406 C463.69963,92.8691406 464.455726,93.0021146 465.120605,93.2680664 C465.785485,93.5340183 466.30965,93.8339827 466.693115,94.1679688 L465.357178,95.875 C465.041746,95.6461577 464.66911,95.4497892 464.239258,95.2858887 C463.809405,95.1219881 463.378013,95.0400391 462.945068,95.0400391 C462.543048,95.0400391 462.230714,95.1127109 462.008057,95.2580566 C461.785399,95.4034024 461.674072,95.578124 461.674072,95.7822266 C461.674072,95.998699 461.771483,96.1734206 461.966309,96.3063965 C462.161134,96.4393724 462.44409,96.555338 462.815186,96.6542969 L463.891357,96.9604492 C464.918055,97.2511408 465.654051,97.6438777 466.099365,98.1386719 C466.54468,98.633466 466.767334,99.2581342 466.767334,100.012695 C466.767334,100.43327 466.680746,100.833738 466.507568,101.214111 C466.33439,101.594484 466.080812,101.933104 465.746826,102.22998 C465.41284,102.526857 464.998456,102.760334 464.503662,102.93042 C464.008868,103.100505 463.446048,103.185547 462.815186,103.185547 C462.332761,103.185547 461.879722,103.142253 461.456055,103.055664 C461.032387,102.969075 460.63965,102.850017 460.277832,102.698486 C459.916014,102.546956 459.589764,102.375326 459.299072,102.183594 C459.008381,101.991861 458.760987,101.800131 458.556885,101.608398 L459.985596,99.8271484 Z M472.78833,92.8691406 C473.524336,92.8691406 474.192298,93.0005683 474.792236,93.2634277 C475.392174,93.5262871 475.905515,93.8896461 476.332275,94.3535156 C476.759035,94.8173851 477.088378,95.3647429 477.320312,95.9956055 C477.552247,96.626468 477.668213,97.3067997 477.668213,98.0366211 C477.668213,98.7726274 477.550701,99.4545053 477.315674,100.082275 C477.080647,100.710045 476.749758,101.252765 476.322998,101.710449 C475.896238,102.168134 475.382897,102.5284 474.782959,102.79126 C474.183021,103.054119 473.518151,103.185547 472.78833,103.185547 C472.052324,103.185547 471.384362,103.054119 470.784424,102.79126 C470.184486,102.5284 469.671145,102.168134 469.244385,101.710449 C468.817625,101.252765 468.486736,100.710045 468.251709,100.082275 C468.016682,99.4545053 467.89917,98.7726274 467.89917,98.0366211 C467.89917,97.3067997 468.015136,96.626468 468.24707,95.9956055 C468.479005,95.3647429 468.808347,94.8173851 469.235107,94.3535156 C469.661867,93.8896461 470.176755,93.5262871 470.779785,93.2634277 C471.382816,93.0005683 472.052324,92.8691406 472.78833,92.8691406 L472.78833,92.8691406 Z M472.78833,100.810547 C473.153241,100.810547 473.476398,100.742514 473.757812,100.606445 C474.039227,100.470377 474.275797,100.281739 474.467529,100.040527 C474.659262,99.7993152 474.804606,99.5101742 474.903564,99.1730957 C475.002523,98.8360172 475.052002,98.4664734 475.052002,98.0644531 L475.052002,97.9995117 C475.052002,97.5974915 475.002523,97.2279476 474.903564,96.8908691 C474.804606,96.5537906 474.659262,96.2631034 474.467529,96.0187988 C474.275797,95.7744942 474.039227,95.5843106 473.757812,95.4482422 C473.476398,95.3121738 473.153241,95.2441406 472.78833,95.2441406 C472.423419,95.2441406 472.100262,95.3121738 471.818848,95.4482422 C471.537433,95.5843106 471.300864,95.7744942 471.109131,96.0187988 C470.917398,96.2631034 470.772055,96.5537906 470.673096,96.8908691 C470.574137,97.2279476 470.524658,97.5974915 470.524658,97.9995117 L470.524658,98.0644531 C470.524658,98.4664734 470.574137,98.8360172 470.673096,99.1730957 C470.772055,99.5101742 470.917398,99.7993152 471.109131,100.040527 C471.300864,100.281739 471.537433,100.470377 471.818848,100.606445 C472.100262,100.742514 472.423419,100.810547 472.78833,100.810547 L472.78833,100.810547 Z M487.817627,103 L485.25708,103 L485.25708,102.146484 C485.114827,102.282553 484.960206,102.41398 484.793213,102.540771 C484.62622,102.667562 484.440675,102.778889 484.236572,102.874756 C484.03247,102.970622 483.805177,103.046386 483.554688,103.102051 C483.304198,103.157715 483.027427,103.185547 482.724365,103.185547 C482.186277,103.185547 481.70386,103.097413 481.2771,102.921143 C480.85034,102.744872 480.490073,102.503664 480.196289,102.19751 C479.902505,101.891356 479.678305,101.531089 479.523682,101.116699 C479.369058,100.702309 479.291748,100.253909 479.291748,99.7714844 L479.291748,93.0639648 L481.852295,93.0639648 L481.852295,98.8344727 C481.852295,99.1870135 481.89095,99.4869779 481.968262,99.734375 C482.045573,99.9817721 482.153808,100.181233 482.292969,100.332764 C482.43213,100.484294 482.597574,100.595621 482.789307,100.666748 C482.981039,100.737875 483.188231,100.773438 483.410889,100.773438 C483.670656,100.773438 483.91341,100.727051 484.13916,100.634277 C484.36491,100.541503 484.561278,100.400798 484.728271,100.212158 C484.895265,100.023518 485.025146,99.786948 485.11792,99.5024414 C485.210694,99.2179348 485.25708,98.8839537 485.25708,98.5004883 L485.25708,93.0639648 L487.817627,93.0639648 L487.817627,103 Z M495.610596,95.550293 L495.341553,95.550293 C494.976642,95.550293 494.628745,95.587402 494.297852,95.6616211 C493.966958,95.7358402 493.674725,95.8703604 493.421143,96.0651855 C493.167561,96.2600107 492.965007,96.5275048 492.813477,96.8676758 C492.661946,97.2078468 492.586182,97.6438775 492.586182,98.1757812 L492.586182,103 L490.025635,103 L490.025635,93.0639648 L492.586182,93.0639648 L492.586182,94.1865234 C492.691325,94.0195304 492.827392,93.8587247 492.994385,93.7041016 C493.161378,93.5494784 493.3562,93.4118658 493.578857,93.2912598 C493.801515,93.1706537 494.052001,93.0732426 494.330322,92.9990234 C494.608644,92.9248043 494.908608,92.8876953 495.230225,92.8876953 L495.610596,92.8876953 L495.610596,95.550293 Z M499.330811,98.0830078 C499.330811,98.404624 499.374104,98.7277816 499.460693,99.0524902 C499.547282,99.3771989 499.680256,99.6694323 499.859619,99.9291992 C500.038982,100.188966 500.269367,100.400797 500.550781,100.564697 C500.832195,100.728598 501.167723,100.810547 501.557373,100.810547 C501.810955,100.810547 502.04134,100.77653 502.248535,100.708496 C502.45573,100.640462 502.641275,100.546143 502.805176,100.425537 C502.969076,100.304931 503.11442,100.16268 503.241211,99.9987793 C503.368002,99.8348787 503.477783,99.6570648 503.570557,99.465332 L505.815674,100.625 C505.654866,101.01465 505.433758,101.367186 505.152344,101.682617 C504.87093,101.998048 504.54468,102.267089 504.173584,102.489746 C503.802488,102.712403 503.391197,102.884033 502.939697,103.004639 C502.488198,103.125245 502.008873,103.185547 501.501709,103.185547 C500.802812,103.185547 500.15959,103.054119 499.572021,102.79126 C498.984453,102.5284 498.477297,102.168134 498.050537,101.710449 C497.623777,101.252765 497.289796,100.710045 497.048584,100.082275 C496.807372,99.4545053 496.686768,98.7726274 496.686768,98.0366211 C496.686768,97.3067997 496.807372,96.626468 497.048584,95.9956055 C497.289796,95.3647429 497.623777,94.8173851 498.050537,94.3535156 C498.477297,93.8896461 498.984453,93.5262871 499.572021,93.2634277 C500.15959,93.0005683 500.802812,92.8691406 501.501709,92.8691406 C502.008873,92.8691406 502.488198,92.9294428 502.939697,93.0500488 C503.391197,93.1706549 503.802488,93.3438303 504.173584,93.5695801 C504.54468,93.7953299 504.87093,94.0659164 505.152344,94.3813477 C505.433758,94.6967789 505.654866,95.0493145 505.815674,95.4389648 L503.570557,96.5986328 C503.477783,96.4069001 503.368002,96.2290861 503.241211,96.0651855 C503.11442,95.901285 502.969076,95.7590338 502.805176,95.6384277 C502.641275,95.5178217 502.45573,95.4219567 502.248535,95.3508301 C502.04134,95.2797034 501.810955,95.2441406 501.557373,95.2441406 C501.167723,95.2441406 500.832195,95.3260897 500.550781,95.4899902 C500.269367,95.6538908 500.038982,95.8672676 499.859619,96.130127 C499.680256,96.3929863 499.547282,96.6883122 499.460693,97.0161133 C499.374104,97.3439144 499.330811,97.6717106 499.330811,97.9995117 L499.330811,98.0830078 Z M509.953369,103 L507.392822,103 L507.392822,93.0639648 L509.953369,93.0639648 L509.953369,103 Z M507.123779,90.4570312 C507.123779,90.2467437 507.163981,90.0472828 507.244385,89.8586426 C507.324789,89.6700023 507.43457,89.5061042 507.57373,89.3669434 C507.712891,89.2277825 507.875243,89.1180017 508.060791,89.0375977 C508.246339,88.9571936 508.447346,88.9169922 508.663818,88.9169922 C508.874106,88.9169922 509.073567,88.9571936 509.262207,89.0375977 C509.450847,89.1180017 509.614745,89.2277825 509.753906,89.3669434 C509.893067,89.5061042 510.002848,89.6700023 510.083252,89.8586426 C510.163656,90.0472828 510.203857,90.2467437 510.203857,90.4570312 C510.203857,90.6735037 510.163656,90.8745108 510.083252,91.0600586 C510.002848,91.2456064 509.893067,91.4079583 509.753906,91.5471191 C509.614745,91.68628 509.450847,91.7960608 509.262207,91.8764648 C509.073567,91.9568689 508.874106,91.9970703 508.663818,91.9970703 C508.447346,91.9970703 508.246339,91.9568689 508.060791,91.8764648 C507.875243,91.7960608 507.712891,91.68628 507.57373,91.5471191 C507.43457,91.4079583 507.324789,91.2456064 507.244385,91.0600586 C507.163981,90.8745108 507.123779,90.6735037 507.123779,90.4570312 L507.123779,90.4570312 Z M512.161377,93.0639648 L514.721924,93.0639648 L514.721924,93.9174805 C514.857992,93.7814121 515.011067,93.6499844 515.181152,93.5231934 C515.351238,93.3964024 515.538329,93.2850753 515.742432,93.189209 C515.946534,93.0933426 516.173827,93.0160322 516.424316,92.9572754 C516.674806,92.8985186 516.951577,92.8691406 517.254639,92.8691406 C517.792727,92.8691406 518.275144,92.9572745 518.701904,93.1335449 C519.128664,93.3098153 519.488931,93.5525701 519.782715,93.8618164 C520.076499,94.1710627 520.300699,94.5328755 520.455322,94.9472656 C520.609945,95.3616557 520.687256,95.8100562 520.687256,96.2924805 L520.687256,103 L518.126709,103 L518.126709,97.2202148 C518.126709,96.867674 518.086508,96.5692558 518.006104,96.3249512 C517.925699,96.0806466 517.815919,95.8827319 517.676758,95.7312012 C517.537597,95.5796705 517.373699,95.4683435 517.185059,95.3972168 C516.996418,95.3260901 516.790773,95.2905273 516.568115,95.2905273 C516.308348,95.2905273 516.065594,95.3369136 515.839844,95.4296875 C515.614094,95.5224614 515.417725,95.6631664 515.250732,95.8518066 C515.083739,96.0404469 514.953858,96.2770168 514.861084,96.5615234 C514.76831,96.8460301 514.721924,97.1800111 514.721924,97.5634766 L514.721924,103 L512.161377,103 L512.161377,93.0639648 Z M528.860596,101.237305 C528.631753,101.515626 528.311688,101.736734 527.900391,101.900635 C527.489093,102.064535 527.042239,102.146484 526.559814,102.146484 C525.891842,102.146484 525.298098,102.028973 524.778564,101.793945 C524.259031,101.558918 523.821454,101.235761 523.46582,100.824463 C523.110187,100.413165 522.838054,99.9261096 522.649414,99.3632812 C522.460774,98.8004529 522.366455,98.1819695 522.366455,97.5078125 C522.366455,96.8522103 522.460774,96.2383655 522.649414,95.6662598 C522.838054,95.094154 523.110187,94.6024597 523.46582,94.1911621 C523.821454,93.7798645 524.259031,93.4567069 524.778564,93.2216797 C525.298098,92.9866525 525.891842,92.8691406 526.559814,92.8691406 C527.042239,92.8691406 527.489093,92.9526359 527.900391,93.1196289 C528.311688,93.2866219 528.631753,93.509276 528.860596,93.7875977 L528.860596,93.0639648 L531.43042,93.0639648 L531.43042,102.907227 C531.43042,103.513349 531.316,104.034422 531.087158,104.470459 C530.858316,104.906496 530.544436,105.26367 530.145508,105.541992 C529.74658,105.820314 529.284264,106.022867 528.758545,106.149658 C528.232826,106.276449 527.673099,106.339844 527.079346,106.339844 C526.355709,106.339844 525.60116,106.254802 524.815674,106.084717 C524.030188,105.914631 523.352949,105.702801 522.783936,105.449219 L523.507568,103.380371 C523.680746,103.45459 523.894123,103.536539 524.147705,103.626221 C524.401287,103.715902 524.67342,103.794759 524.964111,103.862793 C525.254803,103.930827 525.559406,103.988037 525.87793,104.034424 C526.196453,104.080811 526.507241,104.104004 526.810303,104.104004 C527.076255,104.104004 527.332925,104.077718 527.580322,104.025146 C527.827719,103.972575 528.045735,103.885987 528.234375,103.765381 C528.423015,103.644775 528.574544,103.487062 528.688965,103.292236 C528.803386,103.097411 528.860596,102.848472 528.860596,102.54541 L528.860596,101.237305 Z M525.001221,97.5449219 C525.001221,97.872723 525.036783,98.1804185 525.10791,98.4680176 C525.179037,98.7556167 525.293456,98.9999176 525.451172,99.2009277 C525.608888,99.4019379 525.811441,99.5596511 526.058838,99.6740723 C526.306235,99.7884934 526.606199,99.8457031 526.95874,99.8457031 C527.657637,99.8457031 528.155516,99.6245953 528.452393,99.182373 C528.749269,98.7401508 528.897705,98.1943392 528.897705,97.5449219 L528.897705,97.4707031 C528.897705,97.142902 528.863688,96.8367527 528.795654,96.5522461 C528.72762,96.2677395 528.616293,96.0234385 528.46167,95.8193359 C528.307047,95.6152334 528.107586,95.4559739 527.863281,95.3415527 C527.618977,95.2271316 527.317466,95.1699219 526.95874,95.1699219 C526.266028,95.1699219 525.766603,95.3894835 525.460449,95.8286133 C525.154295,96.2677431 525.001221,96.8151009 525.001221,97.4707031 L525.001221,97.5449219 Z" id="Resourcing" fill="#005EA5"></path>
            <path d="M880.913574,101.532227 L875.987305,101.532227 L875.23584,104 L872.378418,104 L876.729492,90.6962891 L880.26416,90.6962891 L884.680176,104 L881.674316,104 L880.913574,101.532227 Z M876.710938,99.1572266 L880.189941,99.1572266 L878.464355,93.5351562 L878.427246,93.5351562 L876.710938,99.1572266 Z M894.959473,100.75293 L896.174805,94.0639648 L898.883789,94.0639648 L896.592285,104 L893.549316,104 L892.064941,97.5429688 L890.487793,104 L887.491211,104 L885.19043,94.0639648 L887.98291,94.0639648 L889.161133,100.75293 L890.886719,94.0639648 L893.335938,94.0639648 L894.959473,100.75293 Z M903.541016,99.9643555 C903.225584,100.013835 902.972006,100.123616 902.780273,100.293701 C902.588541,100.463787 902.492676,100.694172 902.492676,100.984863 C902.492676,101.306479 902.610188,101.583251 902.845215,101.815186 C903.080242,102.04712 903.426593,102.163086 903.884277,102.163086 C904.366702,102.163086 904.747069,102.023927 905.025391,101.745605 C905.303712,101.467284 905.442871,101.099286 905.442871,100.641602 L905.442871,99.6396484 L903.541016,99.9643555 Z M905.860352,103.062988 C905.755208,103.180502 905.626873,103.305745 905.475342,103.438721 C905.323811,103.571697 905.144451,103.692301 904.937256,103.800537 C904.730061,103.908773 904.487306,104 904.208984,104.074219 C903.930663,104.148438 903.618329,104.185547 903.271973,104.185547 C902.777179,104.185547 902.321047,104.10669 901.903564,103.948975 C901.486082,103.791259 901.11963,103.570151 900.804199,103.285645 C900.488768,103.001138 900.241375,102.671795 900.062012,102.297607 C899.882649,101.923419 899.792969,101.516767 899.792969,101.077637 C899.792969,100.279781 900.040362,99.6272812 900.535156,99.1201172 C901.02995,98.6129532 901.713375,98.2944342 902.585449,98.1645508 L905.442871,97.7470703 L905.442871,97.5615234 C905.442871,97.1162087 905.306805,96.7636732 905.034668,96.5039062 C904.762531,96.2441393 904.320316,96.1142578 903.708008,96.1142578 C903.454426,96.1142578 903.197755,96.1436358 902.937988,96.2023926 C902.678221,96.2611494 902.429282,96.3276363 902.191162,96.4018555 C901.953042,96.4760746 901.731935,96.5611161 901.527832,96.6569824 C901.323729,96.7528488 901.144369,96.8378903 900.989746,96.9121094 L899.987793,94.9545898 C900.556806,94.6391586 901.189206,94.3793956 901.88501,94.175293 C902.580814,93.9711904 903.302893,93.8691406 904.05127,93.8691406 C904.508954,93.8691406 904.97127,93.9170731 905.438232,94.0129395 C905.905194,94.1088058 906.328856,94.2835274 906.709229,94.5371094 C907.089602,94.7906914 907.400389,95.1354959 907.641602,95.5715332 C907.882814,96.0075705 908.003418,96.5626594 908.003418,97.2368164 L908.003418,101.318848 C908.003418,101.609539 908.079182,101.824462 908.230713,101.963623 C908.382244,102.102784 908.590982,102.231119 908.856934,102.348633 L907.697266,104.185547 C907.227211,104.136067 906.849936,104.013917 906.56543,103.819092 C906.280923,103.624267 906.045899,103.372235 905.860352,103.062988 L905.860352,103.062988 Z M912.697754,104 L910.137207,104 L910.137207,94.0639648 L912.697754,94.0639648 L912.697754,104 Z M909.868164,91.4570312 C909.868164,91.2467437 909.908365,91.0472828 909.98877,90.8586426 C910.069174,90.6700023 910.178954,90.5061042 910.318115,90.3669434 C910.457276,90.2277825 910.619628,90.1180017 910.805176,90.0375977 C910.990724,89.9571936 911.191731,89.9169922 911.408203,89.9169922 C911.618491,89.9169922 911.817952,89.9571936 912.006592,90.0375977 C912.195232,90.1180017 912.35913,90.2277825 912.498291,90.3669434 C912.637452,90.5061042 912.747233,90.6700023 912.827637,90.8586426 C912.908041,91.0472828 912.948242,91.2467437 912.948242,91.4570312 C912.948242,91.6735037 912.908041,91.8745108 912.827637,92.0600586 C912.747233,92.2456064 912.637452,92.4079583 912.498291,92.5471191 C912.35913,92.68628 912.195232,92.7960608 912.006592,92.8764648 C911.817952,92.9568689 911.618491,92.9970703 911.408203,92.9970703 C911.191731,92.9970703 910.990724,92.9568689 910.805176,92.8764648 C910.619628,92.7960608 910.457276,92.68628 910.318115,92.5471191 C910.178954,92.4079583 910.069174,92.2456064 909.98877,92.0600586 C909.908365,91.8745108 909.868164,91.6735037 909.868164,91.4570312 L909.868164,91.4570312 Z M918.570312,101.040527 C918.570312,101.158041 918.585775,101.269368 918.616699,101.374512 C918.647624,101.479655 918.701741,101.570882 918.779053,101.648193 C918.856364,101.725505 918.966145,101.785807 919.108398,101.829102 C919.250652,101.872396 919.433104,101.894043 919.655762,101.894043 C919.748536,101.894043 919.853678,101.889404 919.971191,101.880127 C920.088705,101.87085 920.206217,101.860026 920.32373,101.847656 C920.441244,101.835286 920.551025,101.819824 920.653076,101.80127 C920.755127,101.782715 920.840169,101.767253 920.908203,101.754883 L921.140137,104.018555 C920.898925,104.049479 920.648439,104.077311 920.388672,104.102051 C920.166015,104.12679 919.918621,104.146891 919.646484,104.162354 C919.374348,104.177816 919.099122,104.185547 918.820801,104.185547 C917.936356,104.185547 917.246747,103.98454 916.751953,103.58252 C916.257159,103.180499 916.009766,102.540369 916.009766,101.662109 L916.009766,96.2905273 L914.219238,96.2905273 L914.219238,94.0639648 L916.009766,94.0639648 L916.009766,91.2529297 L918.570312,90.5664062 L918.570312,94.0639648 L921.177246,94.0639648 L921.177246,96.2905273 L918.570312,96.2905273 L918.570312,101.040527 Z M925.352051,104 L922.791504,104 L922.791504,94.0639648 L925.352051,94.0639648 L925.352051,104 Z M922.522461,91.4570312 C922.522461,91.2467437 922.562662,91.0472828 922.643066,90.8586426 C922.72347,90.6700023 922.833251,90.5061042 922.972412,90.3669434 C923.111573,90.2277825 923.273925,90.1180017 923.459473,90.0375977 C923.64502,89.9571936 923.846028,89.9169922 924.0625,89.9169922 C924.272788,89.9169922 924.472248,89.9571936 924.660889,90.0375977 C924.849529,90.1180017 925.013427,90.2277825 925.152588,90.3669434 C925.291749,90.5061042 925.40153,90.6700023 925.481934,90.8586426 C925.562338,91.0472828 925.602539,91.2467437 925.602539,91.4570312 C925.602539,91.6735037 925.562338,91.8745108 925.481934,92.0600586 C925.40153,92.2456064 925.291749,92.4079583 925.152588,92.5471191 C925.013427,92.68628 924.849529,92.7960608 924.660889,92.8764648 C924.472248,92.9568689 924.272788,92.9970703 924.0625,92.9970703 C923.846028,92.9970703 923.64502,92.9568689 923.459473,92.8764648 C923.273925,92.7960608 923.111573,92.68628 922.972412,92.5471191 C922.833251,92.4079583 922.72347,92.2456064 922.643066,92.0600586 C922.562662,91.8745108 922.522461,91.6735037 922.522461,91.4570312 L922.522461,91.4570312 Z M927.560059,94.0639648 L930.120605,94.0639648 L930.120605,94.9174805 C930.256674,94.7814121 930.409748,94.6499844 930.579834,94.5231934 C930.749919,94.3964024 930.937011,94.2850753 931.141113,94.189209 C931.345216,94.0933426 931.572509,94.0160322 931.822998,93.9572754 C932.073488,93.8985186 932.350259,93.8691406 932.65332,93.8691406 C933.191409,93.8691406 933.673826,93.9572745 934.100586,94.1335449 C934.527346,94.3098153 934.887612,94.5525701 935.181396,94.8618164 C935.475181,95.1710627 935.699381,95.5328755 935.854004,95.9472656 C936.008627,96.3616557 936.085938,96.8100562 936.085938,97.2924805 L936.085938,104 L933.525391,104 L933.525391,98.2202148 C933.525391,97.867674 933.485189,97.5692558 933.404785,97.3249512 C933.324381,97.0806466 933.2146,96.8827319 933.075439,96.7312012 C932.936279,96.5796705 932.772381,96.4683435 932.58374,96.3972168 C932.3951,96.3260901 932.189454,96.2905273 931.966797,96.2905273 C931.70703,96.2905273 931.464275,96.3369136 931.238525,96.4296875 C931.012776,96.5224614 930.816407,96.6631664 930.649414,96.8518066 C930.482421,97.0404469 930.35254,97.2770168 930.259766,97.5615234 C930.166992,97.8460301 930.120605,98.1800111 930.120605,98.5634766 L930.120605,104 L927.560059,104 L927.560059,94.0639648 Z M944.259277,102.237305 C944.030435,102.515626 943.71037,102.736734 943.299072,102.900635 C942.887775,103.064535 942.44092,103.146484 941.958496,103.146484 C941.290524,103.146484 940.69678,103.028973 940.177246,102.793945 C939.657712,102.558918 939.220135,102.235761 938.864502,101.824463 C938.508869,101.413165 938.236736,100.92611 938.048096,100.363281 C937.859455,99.8004529 937.765137,99.1819695 937.765137,98.5078125 C937.765137,97.8522103 937.859455,97.2383655 938.048096,96.6662598 C938.236736,96.094154 938.508869,95.6024597 938.864502,95.1911621 C939.220135,94.7798645 939.657712,94.4567069 940.177246,94.2216797 C940.69678,93.9866525 941.290524,93.8691406 941.958496,93.8691406 C942.44092,93.8691406 942.887775,93.9526359 943.299072,94.1196289 C943.71037,94.2866219 944.030435,94.509276 944.259277,94.7875977 L944.259277,94.0639648 L946.829102,94.0639648 L946.829102,103.907227 C946.829102,104.513349 946.714682,105.034422 946.48584,105.470459 C946.256998,105.906496 945.943117,106.26367 945.544189,106.541992 C945.145262,106.820314 944.682945,107.022867 944.157227,107.149658 C943.631508,107.276449 943.07178,107.339844 942.478027,107.339844 C941.754391,107.339844 940.999841,107.254802 940.214355,107.084717 C939.42887,106.914631 938.75163,106.702801 938.182617,106.449219 L938.90625,104.380371 C939.079428,104.45459 939.292805,104.536539 939.546387,104.626221 C939.799969,104.715902 940.072101,104.794759 940.362793,104.862793 C940.653485,104.930827 940.958088,104.988037 941.276611,105.034424 C941.595135,105.080811 941.905923,105.104004 942.208984,105.104004 C942.474936,105.104004 942.731607,105.077718 942.979004,105.025146 C943.226401,104.972575 943.444416,104.885987 943.633057,104.765381 C943.821697,104.644775 943.973225,104.487062 944.087646,104.292236 C944.202068,104.097411 944.259277,103.848472 944.259277,103.54541 L944.259277,102.237305 Z M940.399902,98.5449219 C940.399902,98.872723 940.435465,99.1804185 940.506592,99.4680176 C940.577718,99.7556167 940.692138,99.9999176 940.849854,100.200928 C941.007569,100.401938 941.210122,100.559651 941.45752,100.674072 C941.704917,100.788493 942.004881,100.845703 942.357422,100.845703 C943.056319,100.845703 943.554198,100.624595 943.851074,100.182373 C944.147951,99.7401508 944.296387,99.1943392 944.296387,98.5449219 L944.296387,98.4707031 C944.296387,98.142902 944.26237,97.8367527 944.194336,97.5522461 C944.126302,97.2677395 944.014975,97.0234385 943.860352,96.8193359 C943.705728,96.6152334 943.506267,96.4559739 943.261963,96.3415527 C943.017658,96.2271316 942.716148,96.1699219 942.357422,96.1699219 C941.66471,96.1699219 941.165285,96.3894835 940.859131,96.8286133 C940.552977,97.2677431 940.399902,97.8151009 940.399902,98.4707031 L940.399902,98.5449219 Z M964.075684,97.3481445 C964.075684,98.3439177 963.941163,99.2515421 963.672119,100.071045 C963.403075,100.890548 963.001061,101.59098 962.466064,102.172363 C961.931068,102.753746 961.26156,103.203693 960.45752,103.522217 C959.653479,103.840741 958.713384,104 957.637207,104 L952.73877,104 L952.73877,90.6962891 L957.637207,90.6962891 C958.713384,90.6962891 959.653479,90.8555485 960.45752,91.1740723 C961.26156,91.492596 961.931068,91.9425427 962.466064,92.5239258 C963.001061,93.1053089 963.403075,93.8057413 963.672119,94.6252441 C963.941163,95.4447469 964.075684,96.3523713 964.075684,97.3481445 L964.075684,97.3481445 Z M961.283203,97.0883789 C961.283203,96.5255506 961.213624,96.0013859 961.074463,95.5158691 C960.935302,95.0303524 960.712648,94.6082375 960.406494,94.2495117 C960.10034,93.890786 959.702965,93.6078298 959.214355,93.4006348 C958.725746,93.1934397 958.135095,93.0898438 957.442383,93.0898438 L955.429199,93.0898438 L955.429199,101.606445 L957.442383,101.606445 C958.12891,101.606445 958.716469,101.502849 959.205078,101.295654 C959.693687,101.088459 960.091063,100.803957 960.397217,100.442139 C960.703371,100.08032 960.927571,99.6551131 961.069824,99.1665039 C961.212078,98.6778947 961.283203,98.1552762 961.283203,97.5986328 L961.283203,97.0883789 Z M968.102051,99.9179688 C968.145345,100.214845 968.239664,100.486978 968.38501,100.734375 C968.530356,100.981772 968.714354,101.193603 968.937012,101.369873 C969.159669,101.546143 969.41634,101.683756 969.707031,101.782715 C969.997723,101.881674 970.306965,101.931152 970.634766,101.931152 C971.012046,101.931152 971.420245,101.858481 971.859375,101.713135 C972.298505,101.567789 972.700519,101.355958 973.06543,101.077637 L974.299316,102.877441 C973.835447,103.267092 973.266442,103.582518 972.592285,103.82373 C971.918128,104.064943 971.200687,104.185547 970.439941,104.185547 C969.753415,104.185547 969.107099,104.068035 968.500977,103.833008 C967.894854,103.597981 967.364504,103.257815 966.909912,102.8125 C966.45532,102.367185 966.0966,101.826012 965.83374,101.188965 C965.570881,100.551917 965.439453,99.8344766 965.439453,99.0366211 C965.439453,98.3067997 965.555419,97.626468 965.787354,96.9956055 C966.019288,96.3647429 966.343992,95.8173851 966.761475,95.3535156 C967.178957,94.8896461 967.678383,94.5262871 968.259766,94.2634277 C968.841149,94.0005683 969.484371,93.8691406 970.189453,93.8691406 C970.845055,93.8691406 971.454262,93.9881987 972.01709,94.2263184 C972.579918,94.464438 973.06852,94.7984191 973.48291,95.2282715 C973.8973,95.6581239 974.222004,96.1730113 974.457031,96.7729492 C974.692058,97.3728871 974.80957,98.0346644 974.80957,98.7583008 L974.80957,99.9179688 L968.102051,99.9179688 Z M970.180176,96.0957031 C969.629717,96.0957031 969.164309,96.2797019 968.783936,96.6477051 C968.403563,97.0157082 968.182455,97.4594701 968.120605,97.9790039 L972.128418,97.9790039 C972.116048,97.4532851 971.924318,97.0079771 971.553223,96.6430664 C971.182127,96.2781557 970.724449,96.0957031 970.180176,96.0957031 L970.180176,96.0957031 Z M978.566895,99.0830078 C978.566895,99.404624 978.610188,99.7277816 978.696777,100.05249 C978.783366,100.377199 978.91634,100.669432 979.095703,100.929199 C979.275066,101.188966 979.505451,101.400797 979.786865,101.564697 C980.068279,101.728598 980.403807,101.810547 980.793457,101.810547 C981.047039,101.810547 981.277424,101.77653 981.484619,101.708496 C981.691814,101.640462 981.877359,101.546143 982.04126,101.425537 C982.20516,101.304931 982.350504,101.16268 982.477295,100.998779 C982.604086,100.834879 982.713867,100.657065 982.806641,100.465332 L985.051758,101.625 C984.89095,102.01465 984.669842,102.367186 984.388428,102.682617 C984.107014,102.998048 983.780764,103.267089 983.409668,103.489746 C983.038572,103.712403 982.627281,103.884033 982.175781,104.004639 C981.724282,104.125245 981.244957,104.185547 980.737793,104.185547 C980.038896,104.185547 979.395674,104.054119 978.808105,103.79126 C978.220537,103.5284 977.713381,103.168134 977.286621,102.710449 C976.859861,102.252765 976.52588,101.710045 976.284668,101.082275 C976.043456,100.454505 975.922852,99.7726274 975.922852,99.0366211 C975.922852,98.3067997 976.043456,97.626468 976.284668,96.9956055 C976.52588,96.3647429 976.859861,95.8173851 977.286621,95.3535156 C977.713381,94.8896461 978.220537,94.5262871 978.808105,94.2634277 C979.395674,94.0005683 980.038896,93.8691406 980.737793,93.8691406 C981.244957,93.8691406 981.724282,93.9294428 982.175781,94.0500488 C982.627281,94.1706549 983.038572,94.3438303 983.409668,94.5695801 C983.780764,94.7953299 984.107014,95.0659164 984.388428,95.3813477 C984.669842,95.6967789 984.89095,96.0493145 985.051758,96.4389648 L982.806641,97.5986328 C982.713867,97.4069001 982.604086,97.2290861 982.477295,97.0651855 C982.350504,96.901285 982.20516,96.7590338 982.04126,96.6384277 C981.877359,96.5178217 981.691814,96.4219567 981.484619,96.3508301 C981.277424,96.2797034 981.047039,96.2441406 980.793457,96.2441406 C980.403807,96.2441406 980.068279,96.3260897 979.786865,96.4899902 C979.505451,96.6538908 979.275066,96.8672676 979.095703,97.130127 C978.91634,97.3929863 978.783366,97.6883122 978.696777,98.0161133 C978.610188,98.3439144 978.566895,98.6717106 978.566895,98.9995117 L978.566895,99.0830078 Z M989.189453,104 L986.628906,104 L986.628906,94.0639648 L989.189453,94.0639648 L989.189453,104 Z M986.359863,91.4570312 C986.359863,91.2467437 986.400065,91.0472828 986.480469,90.8586426 C986.560873,90.6700023 986.670654,90.5061042 986.809814,90.3669434 C986.948975,90.2277825 987.111327,90.1180017 987.296875,90.0375977 C987.482423,89.9571936 987.68343,89.9169922 987.899902,89.9169922 C988.11019,89.9169922 988.309651,89.9571936 988.498291,90.0375977 C988.686931,90.1180017 988.850829,90.2277825 988.98999,90.3669434 C989.129151,90.5061042 989.238932,90.6700023 989.319336,90.8586426 C989.39974,91.0472828 989.439941,91.2467437 989.439941,91.4570312 C989.439941,91.6735037 989.39974,91.8745108 989.319336,92.0600586 C989.238932,92.2456064 989.129151,92.4079583 988.98999,92.5471191 C988.850829,92.68628 988.686931,92.7960608 988.498291,92.8764648 C988.309651,92.9568689 988.11019,92.9970703 987.899902,92.9970703 C987.68343,92.9970703 987.482423,92.9568689 987.296875,92.8764648 C987.111327,92.7960608 986.948975,92.68628 986.809814,92.5471191 C986.670654,92.4079583 986.560873,92.2456064 986.480469,92.0600586 C986.400065,91.8745108 986.359863,91.6735037 986.359863,91.4570312 L986.359863,91.4570312 Z M992.102539,100.827148 C992.46745,101.15495 992.903481,101.43636 993.410645,101.671387 C993.917809,101.906414 994.43115,102.023926 994.950684,102.023926 C995.327964,102.023926 995.624836,101.951254 995.841309,101.805908 C996.057781,101.660562 996.166016,101.473471 996.166016,101.244629 C996.166016,100.854979 995.748539,100.551922 994.913574,100.335449 L994.189941,100.140625 C993.831216,100.054036 993.469403,99.934978 993.104492,99.7834473 C992.739582,99.6319166 992.404054,99.4324557 992.0979,99.1850586 C991.791747,98.9376615 991.544353,98.6361509 991.355713,98.2805176 C991.167073,97.9248843 991.072754,97.4873073 991.072754,96.9677734 C991.072754,96.5533833 991.16398,96.1591002 991.346436,95.7849121 C991.528891,95.410724 991.788654,95.0813816 992.125732,94.796875 C992.462811,94.5123684 992.872556,94.2866219 993.35498,94.1196289 C993.837405,93.9526359 994.375485,93.8691406 994.969238,93.8691406 C995.816573,93.8691406 996.572669,94.0021146 997.237549,94.2680664 C997.902428,94.5340183 998.426593,94.8339827 998.810059,95.1679688 L997.474121,96.875 C997.15869,96.6461577 996.786054,96.4497892 996.356201,96.2858887 C995.926349,96.1219881 995.494957,96.0400391 995.062012,96.0400391 C994.659991,96.0400391 994.347657,96.1127109 994.125,96.2580566 C993.902343,96.4034024 993.791016,96.578124 993.791016,96.7822266 C993.791016,96.998699 993.888427,97.1734206 994.083252,97.3063965 C994.278077,97.4393724 994.561033,97.555338 994.932129,97.6542969 L996.008301,97.9604492 C997.034999,98.2511408 997.770994,98.6438777 998.216309,99.1386719 C998.661623,99.633466 998.884277,100.258134 998.884277,101.012695 C998.884277,101.43327 998.79769,101.833738 998.624512,102.214111 C998.451334,102.594484 998.197756,102.933104 997.86377,103.22998 C997.529783,103.526857 997.1154,103.760334 996.620605,103.93042 C996.125811,104.100505 995.562991,104.185547 994.932129,104.185547 C994.449705,104.185547 993.996666,104.142253 993.572998,104.055664 C993.149331,103.969075 992.756594,103.850017 992.394775,103.698486 C992.032957,103.546956 991.706707,103.375326 991.416016,103.183594 C991.125324,102.991861 990.877931,102.800131 990.673828,102.608398 L992.102539,100.827148 Z M1003.09619,104 L1000.53564,104 L1000.53564,94.0639648 L1003.09619,94.0639648 L1003.09619,104 Z M1000.2666,91.4570312 C1000.2666,91.2467437 1000.3068,91.0472828 1000.38721,90.8586426 C1000.46761,90.6700023 1000.57739,90.5061042 1000.71655,90.3669434 C1000.85571,90.2277825 1001.01807,90.1180017 1001.20361,90.0375977 C1001.38916,89.9571936 1001.59017,89.9169922 1001.80664,89.9169922 C1002.01693,89.9169922 1002.21639,89.9571936 1002.40503,90.0375977 C1002.59367,90.1180017 1002.75757,90.2277825 1002.89673,90.3669434 C1003.03589,90.5061042 1003.14567,90.6700023 1003.22607,90.8586426 C1003.30648,91.0472828 1003.34668,91.2467437 1003.34668,91.4570312 C1003.34668,91.6735037 1003.30648,91.8745108 1003.22607,92.0600586 C1003.14567,92.2456064 1003.03589,92.4079583 1002.89673,92.5471191 C1002.75757,92.68628 1002.59367,92.7960608 1002.40503,92.8764648 C1002.21639,92.9568689 1002.01693,92.9970703 1001.80664,92.9970703 C1001.59017,92.9970703 1001.38916,92.9568689 1001.20361,92.8764648 C1001.01807,92.7960608 1000.85571,92.68628 1000.71655,92.5471191 C1000.57739,92.4079583 1000.46761,92.2456064 1000.38721,92.0600586 C1000.3068,91.8745108 1000.2666,91.6735037 1000.2666,91.4570312 L1000.2666,91.4570312 Z M1009.67383,93.8691406 C1010.40983,93.8691406 1011.0778,94.0005683 1011.67773,94.2634277 C1012.27767,94.5262871 1012.79101,94.8896461 1013.21777,95.3535156 C1013.64453,95.8173851 1013.97388,96.3647429 1014.20581,96.9956055 C1014.43775,97.626468 1014.55371,98.3067997 1014.55371,99.0366211 C1014.55371,99.7726274 1014.4362,100.454505 1014.20117,101.082275 C1013.96614,101.710045 1013.63526,102.252765 1013.2085,102.710449 C1012.78174,103.168134 1012.26839,103.5284 1011.66846,103.79126 C1011.06852,104.054119 1010.40365,104.185547 1009.67383,104.185547 C1008.93782,104.185547 1008.26986,104.054119 1007.66992,103.79126 C1007.06998,103.5284 1006.55664,103.168134 1006.12988,102.710449 C1005.70312,102.252765 1005.37223,101.710045 1005.13721,101.082275 C1004.90218,100.454505 1004.78467,99.7726274 1004.78467,99.0366211 C1004.78467,98.3067997 1004.90063,97.626468 1005.13257,96.9956055 C1005.3645,96.3647429 1005.69385,95.8173851 1006.12061,95.3535156 C1006.54737,94.8896461 1007.06225,94.5262871 1007.66528,94.2634277 C1008.26831,94.0005683 1008.93782,93.8691406 1009.67383,93.8691406 L1009.67383,93.8691406 Z M1009.67383,101.810547 C1010.03874,101.810547 1010.3619,101.742514 1010.64331,101.606445 C1010.92472,101.470377 1011.16129,101.281739 1011.35303,101.040527 C1011.54476,100.799315 1011.6901,100.510174 1011.78906,100.173096 C1011.88802,99.8360172 1011.9375,99.4664734 1011.9375,99.0644531 L1011.9375,98.9995117 C1011.9375,98.5974915 1011.88802,98.2279476 1011.78906,97.8908691 C1011.6901,97.5537906 1011.54476,97.2631034 1011.35303,97.0187988 C1011.16129,96.7744942 1010.92472,96.5843106 1010.64331,96.4482422 C1010.3619,96.3121738 1010.03874,96.2441406 1009.67383,96.2441406 C1009.30892,96.2441406 1008.98576,96.3121738 1008.70435,96.4482422 C1008.42293,96.5843106 1008.18636,96.7744942 1007.99463,97.0187988 C1007.8029,97.2631034 1007.65755,97.5537906 1007.55859,97.8908691 C1007.45963,98.2279476 1007.41016,98.5974915 1007.41016,98.9995117 L1007.41016,99.0644531 C1007.41016,99.4664734 1007.45963,99.8360172 1007.55859,100.173096 C1007.65755,100.510174 1007.8029,100.799315 1007.99463,101.040527 C1008.18636,101.281739 1008.42293,101.470377 1008.70435,101.606445 C1008.98576,101.742514 1009.30892,101.810547 1009.67383,101.810547 L1009.67383,101.810547 Z M1016.25146,94.0639648 L1018.81201,94.0639648 L1018.81201,94.9174805 C1018.94808,94.7814121 1019.10115,94.6499844 1019.27124,94.5231934 C1019.44133,94.3964024 1019.62842,94.2850753 1019.83252,94.189209 C1020.03662,94.0933426 1020.26391,94.0160322 1020.5144,93.9572754 C1020.76489,93.8985186 1021.04167,93.8691406 1021.34473,93.8691406 C1021.88282,93.8691406 1022.36523,93.9572745 1022.79199,94.1335449 C1023.21875,94.3098153 1023.57902,94.5525701 1023.8728,94.8618164 C1024.16659,95.1710627 1024.39079,95.5328755 1024.54541,95.9472656 C1024.70003,96.3616557 1024.77734,96.8100562 1024.77734,97.2924805 L1024.77734,104 L1022.2168,104 L1022.2168,98.2202148 C1022.2168,97.867674 1022.1766,97.5692558 1022.09619,97.3249512 C1022.01579,97.0806466 1021.90601,96.8827319 1021.76685,96.7312012 C1021.62768,96.5796705 1021.46379,96.4683435 1021.27515,96.3972168 C1021.08651,96.3260901 1020.88086,96.2905273 1020.6582,96.2905273 C1020.39844,96.2905273 1020.15568,96.3369136 1019.92993,96.4296875 C1019.70418,96.5224614 1019.50781,96.6631664 1019.34082,96.8518066 C1019.17383,97.0404469 1019.04395,97.2770168 1018.95117,97.5615234 C1018.8584,97.8460301 1018.81201,98.1800111 1018.81201,98.5634766 L1018.81201,104 L1016.25146,104 L1016.25146,94.0639648 Z" id="Awaiting-Decision" fill="#005EA5"></path>
            <path d="M1133.06299,96.3481445 C1133.06299,95.3956658 1133.20679,94.5035035 1133.49438,93.6716309 C1133.78198,92.8397582 1134.19482,92.1161326 1134.73291,91.5007324 C1135.271,90.8853322 1135.9235,90.3998227 1136.69043,90.0441895 C1137.45736,89.6885562 1138.32014,89.5107422 1139.27881,89.5107422 C1139.97152,89.5107422 1140.6132,89.6004223 1141.20386,89.7797852 C1141.79452,89.959148 1142.32641,90.2127262 1142.79956,90.5405273 C1143.27271,90.8683285 1143.67936,91.2641578 1144.01953,91.7280273 C1144.3597,92.1918969 1144.62874,92.7114229 1144.82666,93.2866211 L1142.23828,94.1494141 C1142.16406,93.902017 1142.04655,93.6468926 1141.88574,93.3840332 C1141.72493,93.1211738 1141.52083,92.8830577 1141.27344,92.6696777 C1141.02604,92.4562978 1140.7369,92.2815762 1140.40601,92.1455078 C1140.07511,92.0094394 1139.70557,91.9414062 1139.29736,91.9414062 C1138.68506,91.9414062 1138.16089,92.0666491 1137.72485,92.3171387 C1137.28882,92.5676282 1136.93164,92.8985168 1136.65332,93.3098145 C1136.375,93.7211121 1136.16935,94.188067 1136.03638,94.7106934 C1135.9034,95.2333197 1135.83691,95.7667616 1135.83691,96.3110352 L1135.83691,96.3852539 C1135.83691,96.9357124 1135.9034,97.4722467 1136.03638,97.994873 C1136.16935,98.5174994 1136.375,98.9829081 1136.65332,99.3911133 C1136.93164,99.7993184 1137.28882,100.128661 1137.72485,100.37915 C1138.16089,100.62964 1138.68506,100.754883 1139.29736,100.754883 C1139.70557,100.754883 1140.07511,100.68685 1140.40601,100.550781 C1140.7369,100.414713 1141.02604,100.239991 1141.27344,100.026611 C1141.52083,99.8132314 1141.72493,99.5766615 1141.88574,99.3168945 C1142.04655,99.0571276 1142.16406,98.8035494 1142.23828,98.5561523 L1144.82666,99.409668 C1144.62874,99.9848662 1144.3597,100.504392 1144.01953,100.968262 C1143.67936,101.432131 1143.27271,101.829507 1142.79956,102.1604 C1142.32641,102.491294 1141.79452,102.744872 1141.20386,102.921143 C1140.6132,103.097413 1139.97152,103.185547 1139.27881,103.185547 C1138.32014,103.185547 1137.45736,103.009279 1136.69043,102.656738 C1135.9235,102.304197 1135.271,101.818688 1134.73291,101.200195 C1134.19482,100.581703 1133.78198,99.8580771 1133.49438,99.0292969 C1133.20679,98.2005167 1133.06299,97.3068082 1133.06299,96.3481445 L1133.06299,96.3481445 Z M1146.44092,89.6962891 L1149.00146,89.6962891 L1149.00146,100.300293 C1149.00146,100.51058 1149.06177,100.671386 1149.18237,100.782715 C1149.30298,100.894044 1149.49626,100.949707 1149.76221,100.949707 C1149.88591,100.949707 1149.99259,100.941976 1150.08228,100.926514 C1150.17196,100.911051 1150.28792,100.887858 1150.43018,100.856934 L1150.63428,103.037109 C1150.4611,103.061849 1150.27555,103.086588 1150.07764,103.111328 C1149.91064,103.129883 1149.71737,103.146891 1149.4978,103.162354 C1149.27824,103.177816 1149.05095,103.185547 1148.81592,103.185547 C1148.45101,103.185547 1148.12321,103.139161 1147.83252,103.046387 C1147.54183,102.953613 1147.29289,102.816 1147.08569,102.633545 C1146.8785,102.45109 1146.71924,102.223797 1146.60791,101.95166 C1146.49658,101.679523 1146.44092,101.364097 1146.44092,101.005371 L1146.44092,89.6962891 Z M1156.41406,92.8691406 C1157.15007,92.8691406 1157.81803,93.0005683 1158.41797,93.2634277 C1159.01791,93.5262871 1159.53125,93.8896461 1159.95801,94.3535156 C1160.38477,94.8173851 1160.71411,95.3647429 1160.94604,95.9956055 C1161.17798,96.626468 1161.29395,97.3067997 1161.29395,98.0366211 C1161.29395,98.7726274 1161.17643,99.4545053 1160.94141,100.082275 C1160.70638,100.710045 1160.37549,101.252765 1159.94873,101.710449 C1159.52197,102.168134 1159.00863,102.5284 1158.40869,102.79126 C1157.80875,103.054119 1157.14388,103.185547 1156.41406,103.185547 C1155.67806,103.185547 1155.01009,103.054119 1154.41016,102.79126 C1153.81022,102.5284 1153.29688,102.168134 1152.87012,101.710449 C1152.44336,101.252765 1152.11247,100.710045 1151.87744,100.082275 C1151.64241,99.4545053 1151.5249,98.7726274 1151.5249,98.0366211 C1151.5249,97.3067997 1151.64087,96.626468 1151.8728,95.9956055 C1152.10474,95.3647429 1152.43408,94.8173851 1152.86084,94.3535156 C1153.2876,93.8896461 1153.80249,93.5262871 1154.40552,93.2634277 C1155.00855,93.0005683 1155.67806,92.8691406 1156.41406,92.8691406 L1156.41406,92.8691406 Z M1156.41406,100.810547 C1156.77897,100.810547 1157.10213,100.742514 1157.38354,100.606445 C1157.66496,100.470377 1157.90153,100.281739 1158.09326,100.040527 C1158.28499,99.7993152 1158.43034,99.5101742 1158.5293,99.1730957 C1158.62826,98.8360172 1158.67773,98.4664734 1158.67773,98.0644531 L1158.67773,97.9995117 C1158.67773,97.5974915 1158.62826,97.2279476 1158.5293,96.8908691 C1158.43034,96.5537906 1158.28499,96.2631034 1158.09326,96.0187988 C1157.90153,95.7744942 1157.66496,95.5843106 1157.38354,95.4482422 C1157.10213,95.3121738 1156.77897,95.2441406 1156.41406,95.2441406 C1156.04915,95.2441406 1155.72599,95.3121738 1155.44458,95.4482422 C1155.16317,95.5843106 1154.9266,95.7744942 1154.73486,96.0187988 C1154.54313,96.2631034 1154.39779,96.5537906 1154.29883,96.8908691 C1154.19987,97.2279476 1154.15039,97.5974915 1154.15039,97.9995117 L1154.15039,98.0644531 C1154.15039,98.4664734 1154.19987,98.8360172 1154.29883,99.1730957 C1154.39779,99.5101742 1154.54313,99.7993152 1154.73486,100.040527 C1154.9266,100.281739 1155.16317,100.470377 1155.44458,100.606445 C1155.72599,100.742514 1156.04915,100.810547 1156.41406,100.810547 L1156.41406,100.810547 Z M1163.69678,99.8271484 C1164.06169,100.15495 1164.49772,100.43636 1165.00488,100.671387 C1165.51205,100.906414 1166.02539,101.023926 1166.54492,101.023926 C1166.9222,101.023926 1167.21907,100.951254 1167.43555,100.805908 C1167.65202,100.660562 1167.76025,100.473471 1167.76025,100.244629 C1167.76025,99.8549785 1167.34278,99.5519217 1166.50781,99.3354492 L1165.78418,99.140625 C1165.42545,99.054036 1165.06364,98.934978 1164.69873,98.7834473 C1164.33382,98.6319166 1163.99829,98.4324557 1163.69214,98.1850586 C1163.38598,97.9376615 1163.13859,97.6361509 1162.94995,97.2805176 C1162.76131,96.9248843 1162.66699,96.4873073 1162.66699,95.9677734 C1162.66699,95.5533833 1162.75822,95.1591002 1162.94067,94.7849121 C1163.12313,94.410724 1163.38289,94.0813816 1163.71997,93.796875 C1164.05705,93.5123684 1164.46679,93.2866219 1164.94922,93.1196289 C1165.43164,92.9526359 1165.96972,92.8691406 1166.56348,92.8691406 C1167.41081,92.8691406 1168.16691,93.0021146 1168.83179,93.2680664 C1169.49667,93.5340183 1170.02083,93.8339827 1170.4043,94.1679688 L1169.06836,95.875 C1168.75293,95.6461577 1168.38029,95.4497892 1167.95044,95.2858887 C1167.52059,95.1219881 1167.08919,95.0400391 1166.65625,95.0400391 C1166.25423,95.0400391 1165.9419,95.1127109 1165.71924,95.2580566 C1165.49658,95.4034024 1165.38525,95.578124 1165.38525,95.7822266 C1165.38525,95.998699 1165.48267,96.1734206 1165.67749,96.3063965 C1165.87232,96.4393724 1166.15527,96.555338 1166.52637,96.6542969 L1167.60254,96.9604492 C1168.62924,97.2511408 1169.36523,97.6438777 1169.81055,98.1386719 C1170.25586,98.633466 1170.47852,99.2581342 1170.47852,100.012695 C1170.47852,100.43327 1170.39193,100.833738 1170.21875,101.214111 C1170.04557,101.594484 1169.79199,101.933104 1169.45801,102.22998 C1169.12402,102.526857 1168.70964,102.760334 1168.21484,102.93042 C1167.72005,103.100505 1167.15723,103.185547 1166.52637,103.185547 C1166.04394,103.185547 1165.5909,103.142253 1165.16724,103.055664 C1164.74357,102.969075 1164.35083,102.850017 1163.98901,102.698486 C1163.6272,102.546956 1163.30095,102.375326 1163.01025,102.183594 C1162.71956,101.991861 1162.47217,101.800131 1162.26807,101.608398 L1163.69678,99.8271484 Z M1174.27295,98.9179688 C1174.31624,99.2148452 1174.41056,99.4869779 1174.55591,99.734375 C1174.70125,99.9817721 1174.88525,100.193603 1175.10791,100.369873 C1175.33057,100.546143 1175.58724,100.683756 1175.87793,100.782715 C1176.16862,100.881674 1176.47786,100.931152 1176.80566,100.931152 C1177.18294,100.931152 1177.59114,100.858481 1178.03027,100.713135 C1178.4694,100.567789 1178.87142,100.355958 1179.23633,100.077637 L1180.47021,101.877441 C1180.00635,102.267092 1179.43734,102.582518 1178.76318,102.82373 C1178.08903,103.064943 1177.37159,103.185547 1176.61084,103.185547 C1175.92431,103.185547 1175.278,103.068035 1174.67188,102.833008 C1174.06575,102.597981 1173.5354,102.257815 1173.08081,101.8125 C1172.62622,101.367185 1172.2675,100.826012 1172.00464,100.188965 C1171.74178,99.5519174 1171.61035,98.8344766 1171.61035,98.0366211 C1171.61035,97.3067997 1171.72632,96.626468 1171.95825,95.9956055 C1172.19019,95.3647429 1172.51489,94.8173851 1172.93237,94.3535156 C1173.34986,93.8896461 1173.84928,93.5262871 1174.43066,93.2634277 C1175.01205,93.0005683 1175.65527,92.8691406 1176.36035,92.8691406 C1177.01595,92.8691406 1177.62516,92.9881987 1178.18799,93.2263184 C1178.75082,93.464438 1179.23942,93.7984191 1179.65381,94.2282715 C1180.0682,94.6581239 1180.3929,95.1730113 1180.62793,95.7729492 C1180.86296,96.3728871 1180.98047,97.0346644 1180.98047,97.7583008 L1180.98047,98.9179688 L1174.27295,98.9179688 Z M1176.35107,95.0957031 C1175.80062,95.0957031 1175.33521,95.2797019 1174.95483,95.6477051 C1174.57446,96.0157082 1174.35335,96.4594701 1174.2915,96.9790039 L1178.29932,96.9790039 C1178.28695,96.4532851 1178.09522,96.0079771 1177.72412,95.6430664 C1177.35303,95.2781557 1176.89535,95.0957031 1176.35107,95.0957031 L1176.35107,95.0957031 Z M1188.99609,103 L1188.99609,102.146484 C1188.86003,102.294923 1188.71004,102.432535 1188.54614,102.559326 C1188.38224,102.686117 1188.19979,102.795898 1187.99878,102.888672 C1187.79777,102.981446 1187.57821,103.054118 1187.34009,103.106689 C1187.10197,103.159261 1186.83757,103.185547 1186.54688,103.185547 C1185.89127,103.185547 1185.29134,103.055665 1184.74707,102.795898 C1184.2028,102.536132 1183.73584,102.177411 1183.34619,101.719727 C1182.95654,101.262042 1182.65503,100.717777 1182.44165,100.086914 C1182.22827,99.4560515 1182.12158,98.7726274 1182.12158,98.0366211 C1182.12158,97.3006148 1182.22672,96.6171907 1182.43701,95.9863281 C1182.6473,95.3554656 1182.94263,94.809654 1183.323,94.348877 C1183.70337,93.8880999 1184.16259,93.5262871 1184.70068,93.2634277 C1185.23877,93.0005683 1185.83561,92.8691406 1186.49121,92.8691406 C1187.07259,92.8691406 1187.56583,92.9696442 1187.97095,93.1706543 C1188.37606,93.3716644 1188.71777,93.620604 1188.99609,93.9174805 L1188.99609,89.6962891 L1191.55664,89.6962891 L1191.55664,103 L1188.99609,103 Z M1189.07031,97.1088867 C1189.07031,96.8429349 1189.02238,96.5955415 1188.92651,96.3666992 C1188.83065,96.1378569 1188.69303,95.9399422 1188.51367,95.7729492 C1188.33431,95.6059562 1188.11939,95.4760747 1187.8689,95.3833008 C1187.61841,95.2905269 1187.33545,95.2441406 1187.02002,95.2441406 C1186.65511,95.2441406 1186.33195,95.3121738 1186.05054,95.4482422 C1185.76912,95.5843106 1185.53255,95.7744942 1185.34082,96.0187988 C1185.14909,96.2631034 1185.00374,96.5522444 1184.90479,96.8862305 C1184.80583,97.2202165 1184.75635,97.5851217 1184.75635,97.980957 L1184.75635,98.1015625 C1184.75635,98.4973978 1184.80583,98.8607568 1184.90479,99.1916504 C1185.00374,99.522544 1185.14909,99.8085925 1185.34082,100.049805 C1185.53255,100.291017 1185.76912,100.478108 1186.05054,100.611084 C1186.33195,100.74406 1186.65511,100.810547 1187.02002,100.810547 C1187.33545,100.810547 1187.61841,100.764161 1187.8689,100.671387 C1188.11939,100.578613 1188.33431,100.448731 1188.51367,100.281738 C1188.69303,100.114745 1188.83065,99.9183768 1188.92651,99.692627 C1189.02238,99.4668771 1189.07031,99.22103 1189.07031,98.9550781 L1189.07031,97.1088867 Z" id="Closed" fill="#005EA5"></path>
        </g>
    </g>
</svg>